<svg width="32" height="28" viewBox="0 0 32 28" fill="none" xmlns="http://www.w3.org/2000/svg" xmlns:xlink="http://www.w3.org/1999/xlink">
<path d="M6,10C8.761,10 11,7.761 11,5C11,2.239 8.761,0 6,0C3.239,0 1,2.239 1,5C1,7.761 3.239,10 6,10ZM26,28C28.761,28 31,25.761 31,23C31,20.239 28.761,18 26,18C23.239,18 21,20.239 21,23C21,25.761 23.239,28 26,28ZM11,23C11,25.761 8.761,28 6,28C3.239,28 1,25.761 1,23C1,20.239 3.239,18 6,18C8.761,18 11,20.239 11,23ZM26,10C28.761,10 31,7.761 31,5C31,2.239 28.761,0 26,0C23.239,0 21,2.239 21,5C21,7.761 23.239,10 26,10Z" clip-rule="evenodd" fill-rule="evenodd" fill="#1A2530"/>
</svg>
