<svg width="36" height="24" viewBox="0 0 36 24" fill="none" xmlns="http://www.w3.org/2000/svg" xmlns:xlink="http://www.w3.org/1999/xlink">
<path d="M29.246,2.812C29.2,3.044 29.2,3.322 29.2,3.88L29.2,19.28C29.2,19.838 29.2,20.116 29.246,20.348C29.436,21.3 30.18,22.045 31.132,22.234C31.364,22.28 31.643,22.28 32.2,22.28C32.758,22.28 33.037,22.28 33.268,22.234C34.22,22.045 34.965,21.3 35.154,20.348C35.2,20.116 35.2,19.838 35.2,19.28L35.2,3.88C35.2,3.322 35.2,3.044 35.154,2.812C34.965,1.86 34.22,1.115 33.268,0.926C33.037,0.88 32.758,0.88 32.2,0.88C31.643,0.88 31.364,0.88 31.132,0.926C30.18,1.115 29.436,1.86 29.246,2.812ZM19.8,8.68C19.8,8.122 19.8,7.844 19.846,7.612C20.035,6.66 20.78,5.916 21.732,5.726C21.964,5.68 22.242,5.68 22.8,5.68C23.358,5.68 23.636,5.68 23.868,5.726C24.82,5.916 25.564,6.66 25.754,7.612C25.8,7.844 25.8,8.122 25.8,8.68L25.8,19.28C25.8,19.838 25.8,20.116 25.754,20.348C25.564,21.3 24.82,22.045 23.868,22.234C23.636,22.28 23.358,22.28 22.8,22.28C22.242,22.28 21.964,22.28 21.732,22.234C20.78,22.045 20.035,21.3 19.846,20.348C19.8,20.116 19.8,19.838 19.8,19.28L19.8,8.68ZM10.646,12.212C10.6,12.444 10.6,12.722 10.6,13.28L10.6,19.28C10.6,19.838 10.6,20.116 10.646,20.348C10.835,21.3 11.579,22.045 12.531,22.234C12.763,22.28 13.042,22.28 13.6,22.28C14.157,22.28 14.436,22.28 14.668,22.234C15.62,22.045 16.364,21.3 16.553,20.348C16.6,20.116 16.6,19.838 16.6,19.28L16.6,13.28C16.6,12.722 16.6,12.444 16.553,12.212C16.364,11.26 15.62,10.516 14.668,10.326C14.436,10.28 14.157,10.28 13.6,10.28C13.042,10.28 12.763,10.28 12.531,10.326C11.579,10.516 10.835,11.26 10.646,12.212ZM1.046,16.212C1,16.444 1,16.722 1,17.28L1,19.28C1,19.838 1,20.116 1.046,20.348C1.235,21.3 1.98,22.045 2.932,22.234C3.164,22.28 3.442,22.28 4,22.28C4.558,22.28 4.836,22.28 5.068,22.234C6.02,22.045 6.765,21.3 6.954,20.348C7,20.116 7,19.838 7,19.28L7,17.28C7,16.722 7,16.444 6.954,16.212C6.765,15.26 6.02,14.516 5.068,14.326C4.836,14.28 4.558,14.28 4,14.28C3.442,14.28 3.164,14.28 2.932,14.326C1.98,14.516 1.235,15.26 1.046,16.212Z" clip-rule="evenodd" fill-rule="evenodd" fill="#1A2530"/>
</svg>
