<svg width="34" height="24" viewBox="0 0 34 24" fill="none" xmlns="http://www.w3.org/2000/svg" xmlns:xlink="http://www.w3.org/1999/xlink">
<path d="M27.246,2.812C27.2,3.044 27.2,3.322 27.2,3.88L27.2,19.28C27.2,19.838 27.2,20.116 27.246,20.348C27.436,21.3 28.18,22.045 29.132,22.234C29.364,22.28 29.643,22.28 30.2,22.28C30.758,22.28 31.037,22.28 31.268,22.234C32.22,22.045 32.965,21.3 33.154,20.348C33.2,20.116 33.2,19.838 33.2,19.28L33.2,3.88C33.2,3.322 33.2,3.044 33.154,2.812C32.965,1.86 32.22,1.115 31.268,0.926C31.037,0.88 30.758,0.88 30.2,0.88C29.643,0.88 29.364,0.88 29.132,0.926C28.18,1.115 27.436,1.86 27.246,2.812ZM17.8,8.68C17.8,8.122 17.8,7.844 17.846,7.612C18.035,6.66 18.78,5.916 19.732,5.726C19.964,5.68 20.242,5.68 20.8,5.68C21.358,5.68 21.636,5.68 21.868,5.726C22.82,5.916 23.564,6.66 23.754,7.612C23.8,7.844 23.8,8.122 23.8,8.68L23.8,19.28C23.8,19.838 23.8,20.116 23.754,20.348C23.564,21.3 22.82,22.045 21.868,22.234C21.636,22.28 21.358,22.28 20.8,22.28C20.242,22.28 19.964,22.28 19.732,22.234C18.78,22.045 18.035,21.3 17.846,20.348C17.8,20.116 17.8,19.838 17.8,19.28L17.8,8.68ZM8.646,12.212C8.6,12.444 8.6,12.722 8.6,13.28L8.6,19.28C8.6,19.838 8.6,20.116 8.646,20.348C8.835,21.3 9.579,22.045 10.531,22.234C10.763,22.28 11.042,22.28 11.6,22.28C12.157,22.28 12.436,22.28 12.668,22.234C13.62,22.045 14.364,21.3 14.553,20.348C14.6,20.116 14.6,19.838 14.6,19.28L14.6,13.28C14.6,12.722 14.6,12.444 14.553,12.212C14.364,11.26 13.62,10.516 12.668,10.326C12.436,10.28 12.157,10.28 11.6,10.28C11.042,10.28 10.763,10.28 10.531,10.326C9.579,10.516 8.835,11.26 8.646,12.212ZM-0.954,16.212C-1,16.444 -1,16.722 -1,17.28L-1,19.28C-1,19.838 -1,20.116 -0.954,20.348C-0.765,21.3 -0.02,22.045 0.932,22.234C1.164,22.28 1.442,22.28 2,22.28C2.558,22.28 2.836,22.28 3.068,22.234C4.02,22.045 4.764,21.3 4.954,20.348C5,20.116 5,19.838 5,19.28L5,17.28C5,16.722 5,16.444 4.954,16.212C4.764,15.26 4.02,14.516 3.068,14.326C2.836,14.28 2.558,14.28 2,14.28C1.442,14.28 1.164,14.28 0.932,14.326C-0.02,14.516 -0.765,15.26 -0.954,16.212Z" clip-rule="evenodd" fill-rule="evenodd" fill="#1A2530"/>
</svg>
