<svg width="44" height="38" viewBox="0 0 44 38" fill="none" xmlns="http://www.w3.org/2000/svg" xmlns:xlink="http://www.w3.org/1999/xlink">
<path d="M12.408,34.072L11.348,33.01L11.347,33.011L12.408,34.072ZM11.347,30.652C12,31.305 11.999,32.361 11.348,33.01L13.468,35.133C15.293,33.311 15.292,30.354 13.469,28.531L11.347,30.652ZM11.347,33.011C10.695,33.664 9.639,33.663 8.99,33.012L6.866,35.132C8.689,36.957 11.645,36.956 13.469,35.132L11.347,33.011ZM8.99,33.012C8.337,32.358 8.338,31.302 8.988,30.653L6.868,28.53C5.042,30.354 5.047,33.31 6.866,35.132L8.99,33.012ZM8.988,30.653C9.641,30.001 10.696,30.001 11.347,30.652L13.469,28.531C11.644,26.706 8.691,26.711 6.868,28.53L8.988,30.653Z" fill="#707B81"/>
<path d="M17,-0.5C16.172,-0.5 15.5,0.172 15.5,1C15.5,1.828 16.172,2.5 17,2.5L17,-0.5ZM27,23L27,24.5C27.828,24.5 28.5,23.828 28.5,23L27,23ZM1,21.5C0.172,21.5 -0.5,22.172 -0.5,23C-0.5,23.828 0.172,24.5 1,24.5L1,21.5ZM17,2.5L25,2.5L25,-0.5L17,-0.5L17,2.5ZM25,2.5C25.276,2.5 25.5,2.724 25.5,3L28.5,3C28.5,1.068 26.932,-0.5 25,-0.5L25,2.5ZM25.5,3L25.5,23L28.5,23L28.5,3L25.5,3ZM27,21.5L1,21.5L1,24.5L27,24.5L27,21.5Z" fill="#707B81"/>
<path d="M7,33.332C7.828,33.332 8.5,32.66 8.5,31.832C8.5,31.004 7.828,30.332 7,30.332L7,33.332ZM2.5,19C2.5,18.172 1.828,17.5 1,17.5C0.172,17.5 -0.5,18.172 -0.5,19L2.5,19ZM7,30.332L3,30.332L3,33.332L7,33.332L7,30.332ZM3,30.332C2.724,30.332 2.5,30.108 2.5,29.832L-0.5,29.832C-0.5,31.764 1.068,33.332 3,33.332L3,30.332ZM2.5,29.832L2.5,19L-0.5,19L-0.5,29.832L2.5,29.832Z" fill="#707B81"/>
<path d="M27,5.5C26.172,5.5 25.5,6.172 25.5,7C25.5,7.828 26.172,8.5 27,8.5L27,5.5ZM37.502,8.258L36.108,8.812L36.109,8.815L37.502,8.258ZM40.714,16.286L42.108,15.731L42.107,15.729L40.714,16.286ZM35.338,30.166C34.51,30.166 33.838,30.838 33.838,31.666C33.838,32.494 34.51,33.166 35.338,33.166L35.338,30.166ZM27,8.5L35.646,8.5L35.646,5.5L27,5.5L27,8.5ZM35.646,8.5C35.851,8.5 36.034,8.625 36.108,8.812L38.896,7.704C38.366,6.371 37.077,5.5 35.646,5.5L35.646,8.5ZM36.109,8.815L39.321,16.843L42.107,15.729L38.895,7.701L36.109,8.815ZM39.32,16.841C39.439,17.139 39.5,17.455 39.5,17.77L42.5,17.77C42.5,17.069 42.365,16.377 42.108,15.731L39.32,16.841ZM39.5,17.77L39.5,29.666L42.5,29.666L42.5,17.77L39.5,17.77ZM39.5,29.666C39.5,29.942 39.276,30.166 39,30.166L39,33.166C40.932,33.166 42.5,31.598 42.5,29.666L39.5,29.666ZM39,30.166L35.338,30.166L35.338,33.166L39,33.166L39,30.166Z" fill="#707B81"/>
<line x1="13.34" y1="30.34" x2="29" y2="30.34" stroke="#707B81" stroke-width="1.5" stroke-miterlimit="3.999327" stroke-linecap="round" stroke-linejoin="round"/>
<path d="M41,22.5C41.828,22.5 42.5,21.828 42.5,21C42.5,20.172 41.828,19.5 41,19.5L41,22.5ZM33,21L31.5,21C31.5,21.828 32.172,22.5 33,22.5L33,21ZM33,13L33,11.5C32.172,11.5 31.5,12.172 31.5,13L33,13ZM39.4,14.5C40.228,14.5 40.9,13.828 40.9,13C40.9,12.172 40.228,11.5 39.4,11.5L39.4,14.5ZM41,19.5L33,19.5L33,22.5L41,22.5L41,19.5ZM34.5,21L34.5,13L31.5,13L31.5,21L34.5,21ZM33,14.5L39.4,14.5L39.4,11.5L33,11.5L33,14.5Z" fill="#707B81"/>
<line x1="1" y1="-0.5" x2="11" y2="-0.5" stroke="#707B81" stroke-width="1.5" stroke-miterlimit="3.999327" stroke-linecap="round" stroke-linejoin="round"/>
<line x1="1" y1="5.5" x2="7" y2="5.5" stroke="#707B81" stroke-width="1.5" stroke-miterlimit="3.999327" stroke-linecap="round" stroke-linejoin="round"/>
<line x1="1" y1="11.5" x2="3" y2="11.5" stroke="#707B81" stroke-width="1.5" stroke-miterlimit="3.999327" stroke-linecap="round" stroke-linejoin="round"/>
</svg>
