<svg width="36" height="38" viewBox="0 0 36 38" fill="none" xmlns="http://www.w3.org/2000/svg" xmlns:xlink="http://www.w3.org/1999/xlink">
<path d="M18.5,9.833C18.5,9.005 17.828,8.333 17,8.333C16.172,8.333 15.5,9.005 15.5,9.833L18.5,9.833ZM17,19L15.5,19C15.5,19.502 15.751,19.97 16.168,20.248L17,19ZM21.668,23.915C22.357,24.374 23.289,24.188 23.748,23.499C24.208,22.809 24.021,21.878 23.332,21.419L21.668,23.915ZM15.5,9.833L15.5,19L18.5,19L18.5,9.833L15.5,9.833ZM16.168,20.248L21.668,23.915L23.332,21.419L17.832,17.752L16.168,20.248Z" fill="#707B81"/>
<path d="M32,19C32,27.284 25.284,34 17,34L17,37C26.941,37 35,28.941 35,19L32,19ZM17,34C8.716,34 2,27.284 2,19L-1,19C-1,28.941 7.059,37 17,37L17,34ZM2,19C2,10.716 8.716,4 17,4L17,1C7.059,1 -1,9.059 -1,19L2,19ZM17,4C25.284,4 32,10.716 32,19L35,19C35,9.059 26.941,1 17,1L17,4Z" fill="#707B81"/>
</svg>
