<svg width="36" height="42" viewBox="0 0 36 42" fill="none" xmlns="http://www.w3.org/2000/svg" xmlns:xlink="http://www.w3.org/1999/xlink">
<path d="M10.631,39.644L11.324,35.241L9.78,35.205L2.406,35.205L7.531,2.713C7.546,2.613 7.596,2.523 7.673,2.458C7.749,2.392 7.846,2.357 7.947,2.357L20.38,2.357C24.508,2.357 27.356,3.216 28.844,4.912C29.541,5.707 29.985,6.538 30.2,7.453C30.425,8.412 30.429,9.559 30.209,10.957L30.193,11.059L30.193,11.955L30.89,12.35C31.422,12.62 31.901,12.985 32.302,13.427C32.898,14.107 33.284,14.971 33.447,15.996C33.615,17.049 33.56,18.303 33.284,19.723C32.966,21.356 32.452,22.778 31.757,23.942C31.144,24.985 30.32,25.888 29.338,26.593C28.415,27.248 27.319,27.745 26.08,28.063C24.879,28.376 23.51,28.534 22.008,28.534L21.04,28.534C20.348,28.534 19.676,28.783 19.149,29.23C18.622,29.681 18.273,30.305 18.163,30.99L18.09,31.386L16.865,39.147L16.809,39.432C16.795,39.522 16.769,39.567 16.732,39.598C16.696,39.627 16.652,39.643 16.605,39.644L10.631,39.644Z" fill="#253B80"/>
<path d="M31.551,11.163C31.514,11.4 31.471,11.642 31.424,11.892C29.784,20.31 24.174,23.218 17.01,23.218L13.362,23.218C12.486,23.218 11.748,23.854 11.611,24.719L9.743,36.563L9.215,39.921C9.194,40.054 9.202,40.19 9.238,40.32C9.275,40.45 9.339,40.57 9.427,40.673C9.514,40.775 9.623,40.858 9.745,40.914C9.868,40.971 10.001,41 10.136,41L16.606,41C17.372,41 18.023,40.443 18.143,39.688L18.207,39.359L19.425,31.629L19.503,31.204C19.623,30.446 20.275,29.889 21.041,29.889L22.008,29.889C28.277,29.889 33.184,27.344 34.618,19.98C35.217,16.903 34.907,14.335 33.322,12.528C32.819,11.969 32.219,11.506 31.551,11.163Z" fill="#5B9EE1"/>
<path d="M29.836,10.479C29.312,10.327 28.78,10.209 28.241,10.125C27.177,9.961 26.102,9.883 25.026,9.89L15.28,9.89C14.909,9.89 14.551,10.022 14.269,10.263C13.987,10.505 13.801,10.839 13.744,11.205L11.671,24.336L11.611,24.719C11.676,24.301 11.888,23.92 12.209,23.644C12.53,23.369 12.939,23.218 13.362,23.218L17.01,23.218C24.175,23.218 29.784,20.309 31.424,11.892C31.473,11.642 31.514,11.4 31.551,11.163C31.118,10.936 30.667,10.746 30.203,10.594C30.081,10.554 29.959,10.515 29.836,10.479Z" fill="#222D65"/>
<path d="M13.743,11.205C13.8,10.839 13.986,10.504 14.268,10.263C14.55,10.022 14.909,9.89 15.28,9.892L25.025,9.892C26.179,9.892 27.257,9.967 28.24,10.126C28.906,10.231 29.562,10.387 30.204,10.594C30.687,10.754 31.137,10.944 31.552,11.163C32.039,8.052 31.548,5.934 29.866,4.016C28.011,1.904 24.664,1 20.382,1L7.948,1C7.073,1 6.327,1.636 6.192,2.502L1.013,35.328C0.989,35.481 0.998,35.636 1.04,35.785C1.082,35.933 1.155,36.071 1.256,36.188C1.356,36.306 1.48,36.4 1.62,36.465C1.76,36.53 1.913,36.563 2.067,36.564L9.743,36.564L11.67,24.336L13.743,11.205Z" fill="#253B80"/>
</svg>
