<svg width="28" height="24" viewBox="0 0 28 24" fill="none" xmlns="http://www.w3.org/2000/svg" xmlns:xlink="http://www.w3.org/1999/xlink">
<path d="M5.5,18C5.5,18.828 4.828,19.5 4,19.5L4,22.5C6.485,22.5 8.5,20.485 8.5,18L5.5,18ZM4,19.5C3.172,19.5 2.5,18.828 2.5,18L-0.5,18C-0.5,20.485 1.515,22.5 4,22.5L4,19.5ZM2.5,18C2.5,17.172 3.172,16.5 4,16.5L4,13.5C1.515,13.5 -0.5,15.515 -0.5,18L2.5,18ZM4,16.5C4.828,16.5 5.5,17.172 5.5,18L8.5,18C8.5,15.515 6.485,13.5 4,13.5L4,16.5Z" fill="#707B81"/>
<path d="M23.5,18C23.5,18.828 22.828,19.5 22,19.5L22,22.5C24.485,22.5 26.5,20.485 26.5,18L23.5,18ZM22,19.5C21.172,19.5 20.5,18.828 20.5,18L17.5,18C17.5,20.485 19.515,22.5 22,22.5L22,19.5ZM20.5,18C20.5,17.172 21.172,16.5 22,16.5L22,13.5C19.515,13.5 17.5,15.515 17.5,18L20.5,18ZM22,16.5C22.828,16.5 23.5,17.172 23.5,18L26.5,18C26.5,15.515 24.485,13.5 22,13.5L22,16.5Z" fill="#707B81"/>
<path d="M7.742,-0.304C7.022,-0.713 6.106,-0.462 5.696,0.258C5.287,0.978 5.538,1.894 6.258,2.304L7.742,-0.304ZM19.737,2.307C20.458,1.9 20.713,0.985 20.307,0.263C19.9,-0.458 18.985,-0.713 18.263,-0.307L19.737,2.307ZM6.258,2.304C8.698,3.692 10.796,4.504 13.006,4.5C15.213,4.496 17.306,3.677 19.737,2.307L18.263,-0.307C15.989,0.976 14.438,1.497 13,1.5C11.564,1.503 10.014,0.989 7.742,-0.304L6.258,2.304Z" fill="#707B81"/>
</svg>
