<svg width="622" height="130" viewBox="0 0 622 130" fill="none" xmlns="http://www.w3.org/2000/svg" xmlns:xlink="http://www.w3.org/1999/xlink">
<path d="M342.201,98.198C342.201,115.762 327.781,130 309.994,130C292.206,130 277.786,115.762 277.786,98.198C277.786,80.634 292.206,66.396 309.994,66.396C327.781,66.396 342.201,80.634 342.201,98.198Z" fill="#5B9EE1"/>
<path d="M298.713,92.279C299.25,91.337 300.608,91.337 301.145,92.279L305.621,100.13C306.153,101.064 305.479,102.224 304.405,102.224L295.453,102.224C294.379,102.224 293.705,101.064 294.237,100.13L298.713,92.279Z" transform="rotate(-180 299.929 98.198)" fill="#FFFFFF"/>
<path d="M318.842,92.279C319.379,91.337 320.737,91.337 321.274,92.279L325.75,100.13C326.282,101.064 325.608,102.224 324.534,102.224L315.583,102.224C314.508,102.224 313.834,101.064 314.366,100.13L318.842,92.279Z" transform="rotate(-180 320.058 98.198)" fill="#FFFFFF"/>
<path d="M622,49.844C622,77.717 482.76,100.313 311,100.313C139.239,100.313 0,77.717 0,49.844C0,21.971 139.239,-0.624 311,-0.624C482.76,-0.624 622,21.971 622,49.844Z" stroke="url(#ps_0_1_1139)" stroke-width="1.5" stroke-miterlimit="3.999327"/>
<path d="M82.531,82.5C82.531,84.686 80.728,86.458 78.505,86.458C76.281,86.458 74.479,84.686 74.479,82.5C74.479,80.314 76.281,78.542 78.505,78.542C80.728,78.542 82.531,80.314 82.531,82.5Z" fill="#5B9EE1"/>
<path d="M527.392,86.459C527.392,88.645 525.589,90.417 523.366,90.417C521.142,90.417 519.34,88.645 519.34,86.459C519.34,84.272 521.142,82.5 523.366,82.5C525.589,82.5 527.392,84.272 527.392,86.459Z" fill="#5B9EE1"/>
<g filter="url(#filter1_1145)">
<path d="M342.201,98.333C342.201,115.822 327.781,130 309.994,130C292.206,130 277.786,115.822 277.786,98.333C277.786,80.844 292.206,66.667 309.994,66.667C327.781,66.667 342.201,80.844 342.201,98.333Z" fill="#5B9EE1"/>
</g>
<path d="M298.711,92.426C299.248,91.481 300.61,91.481 301.146,92.426L305.598,100.268C306.128,101.201 305.453,102.359 304.38,102.359L295.477,102.359C294.404,102.359 293.73,101.201 294.26,100.268L298.711,92.426Z" transform="rotate(-180 299.929 98.333)" fill="#FFFFFF"/>
<path d="M318.841,92.426C319.377,91.481 320.739,91.481 321.276,92.426L325.727,100.268C326.257,101.201 325.583,102.359 324.51,102.359L315.607,102.359C314.534,102.359 313.859,101.201 314.389,100.268L318.841,92.426Z" transform="rotate(-180 320.058 98.333)" fill="#FFFFFF"/>
<defs>
<linearGradient id="ps_0_1_1139" x1="310" y1="0" x2="310" y2="151" gradientUnits="userSpaceOnUse">
<stop offset="0.153" stop-color="#87C3FF" stop-opacity="0.07"/>
<stop offset="0.47" stop-color="#5B9EE1"/>
<stop offset="1" stop-color="#5B9EE1"/>
</linearGradient>
<filter id="filter1_1145" x="261.786377" y="50.66684" width="64.207123" height="63.666485" filterUnits="userSpaceOnUse" color-interpolation-filters="sRGB">
<feFlood flood-opacity="0" result="BackgroundImageFix"/>
<feColorMatrix in="SourceAlpha" type="matrix" values="0 0 0 0 0 0 0 0 0 0 0 0 0 0 0 0 0 0 127 0" result="hardAlpha"/>
<feMorphology radius="0" operator="dilate" in="SourceAlpha" result="0dropshadow"/>
<feOffset dx="0" dy="6"/>
<feGaussianBlur stdDeviation="8"/>
<feComposite in2="hardAlpha" operator="out"/>
<feColorMatrix type="matrix" values="0 0 0 0 0.356863 0 0 0 0 0.619608 0 0 0 0 0.882353 0 0 0 0.4 0"/>
<feBlend mode="normal" in2="BackgroundImageFix" result="0dropshadow"/>
<feBlend mode="normal" in="SourceGraphic" in2="0dropshadow" result="shape"/>
</filter>
</defs>
</svg>
