<svg width="48" height="48" viewBox="0 0 48 48" fill="none" xmlns="http://www.w3.org/2000/svg" xmlns:xlink="http://www.w3.org/1999/xlink">
<path d="M30.5,12C30.5,12.828 31.172,13.5 32,13.5C32.828,13.5 33.5,12.828 33.5,12L30.5,12ZM14.5,12C14.5,12.828 15.172,13.5 16,13.5C16.828,13.5 17.5,12.828 17.5,12L14.5,12ZM24,5.5C27.59,5.5 30.5,8.41 30.5,12L33.5,12C33.5,6.753 29.247,2.5 24,2.5L24,5.5ZM24,2.5C18.753,2.5 14.5,6.753 14.5,12L17.5,12C17.5,8.41 20.41,5.5 24,5.5L24,2.5Z" fill="#FFFFFF"/>
<path d="M7.124,35.008L8.613,35.194L7.124,35.008ZM40.876,35.008L39.388,35.194L39.388,35.194L40.876,35.008ZM38.876,19.008L40.365,18.822L40.365,18.822L38.876,19.008ZM9.124,19.008L7.636,18.822L9.124,19.008ZM17.063,13.5L30.938,13.5L30.938,10.5L17.063,10.5L17.063,13.5ZM37.388,19.194L39.388,35.194L42.365,34.822L40.365,18.822L37.388,19.194ZM32.938,42.5L15.063,42.5L15.063,45.5L32.938,45.5L32.938,42.5ZM8.613,35.194L10.613,19.194L7.636,18.822L5.636,34.822L8.613,35.194ZM15.063,42.5C11.153,42.5 8.128,39.073 8.613,35.194L5.636,34.822C4.927,40.492 9.348,45.5 15.063,45.5L15.063,42.5ZM39.388,35.194C39.873,39.073 36.848,42.5 32.938,42.5L32.938,45.5C38.652,45.5 43.074,40.492 42.365,34.822L39.388,35.194ZM30.938,13.5C34.216,13.5 36.981,15.941 37.388,19.194L40.365,18.822C39.771,14.068 35.729,10.5 30.938,10.5L30.938,13.5ZM17.063,10.5C12.272,10.5 8.23,14.068 7.636,18.822L10.613,19.194C11.02,15.941 13.785,13.5 17.063,13.5L17.063,10.5Z" fill="#FFFFFF"/>
<path d="M18.742,30.696C18.022,30.287 17.106,30.538 16.696,31.258C16.287,31.978 16.538,32.894 17.258,33.304L18.742,30.696ZM30.737,33.307C31.458,32.9 31.713,31.985 31.307,31.263C30.9,30.542 29.985,30.287 29.263,30.693L30.737,33.307ZM17.258,33.304C19.698,34.692 21.796,35.504 24.006,35.5C26.213,35.496 28.306,34.677 30.737,33.307L29.263,30.693C26.989,31.976 25.438,32.497 24,32.5C22.564,32.503 21.014,31.989 18.742,30.696L17.258,33.304Z" fill="#FFFFFF"/>
</svg>
