<svg width="750" height="212" viewBox="0 0 750 212" fill="none" xmlns="http://www.w3.org/2000/svg" xmlns:xlink="http://www.w3.org/1999/xlink">
<g filter="url(#filter1_1779)">
<path d="M243.324,41C133.578,43.4 35.381,14.667 0,0L0,212L750,212L750,0C695.928,39 553.738,40 510.68,40C467.624,40 459.612,46 459.612,63C459.612,80 468.77,126.357 415.554,133C311.416,146 291.08,111 289.386,89C287.384,63 292.39,41 243.324,41Z" fill="#FFFFFF"/>
</g>
<path d="M88.116,113.306C85.722,111.347 82.278,111.347 79.884,113.306L67.535,123.41C66.596,124.178 66.934,125.687 68.111,125.981C70.103,126.479 71.5,128.269 71.5,130.322L71.5,140C71.5,143.59 74.41,146.5 78,146.5L90,146.5C93.59,146.5 96.5,143.59 96.5,140L96.5,130.322C96.5,128.269 97.897,126.479 99.889,125.981C101.066,125.687 101.404,124.178 100.465,123.41L88.116,113.306ZM77.984,110.984C81.484,108.121 86.516,108.121 90.016,110.984L102.365,121.088C105.213,123.418 104.187,127.999 100.617,128.892C99.96,129.056 99.5,129.646 99.5,130.322L99.5,140C99.5,145.247 95.247,149.5 90,149.5L78,149.5C72.753,149.5 68.5,145.247 68.5,140L68.5,130.322C68.5,129.646 68.04,129.056 67.383,128.892C63.813,127.999 62.787,123.418 65.635,121.088L77.984,110.984Z" clip-rule="evenodd" fill-rule="evenodd" fill="#5B9EE1"/>
<path d="M84,133.5C82.619,133.5 81.5,134.619 81.5,136C81.5,137.381 82.619,138.5 84,138.5C85.381,138.5 86.5,137.381 86.5,136C86.5,134.619 85.381,133.5 84,133.5ZM78.5,136C78.5,132.962 80.962,130.5 84,130.5C87.038,130.5 89.5,132.962 89.5,136C89.5,139.038 87.038,141.5 84,141.5C80.962,141.5 78.5,139.038 78.5,136Z" clip-rule="evenodd" fill-rule="evenodd" fill="#5B9EE1"/>
<path d="M214,115.422L212.86,116.397C213.145,116.73 213.561,116.922 214,116.922C214.439,116.922 214.855,116.73 215.14,116.397L214,115.422ZM221.392,113.5C226.696,113.5 230.5,118.552 230.5,123.51L233.5,123.51C233.5,117.368 228.788,110.5 221.392,110.5L221.392,113.5ZM230.5,123.51C230.5,125.929 229.55,128.326 227.992,130.622C226.435,132.915 224.327,135.023 222.161,136.827C220,138.626 217.823,140.09 216.166,141.103C215.338,141.609 214.647,141.998 214.16,142.258C213.915,142.389 213.73,142.482 213.609,142.54C213.546,142.57 213.514,142.584 213.505,142.588C213.499,142.59 213.518,142.582 213.551,142.571C213.568,142.565 213.606,142.553 213.656,142.541C213.684,142.534 213.82,142.5 214,142.5L214,145.5C214.185,145.5 214.328,145.465 214.365,145.456C214.425,145.441 214.474,145.426 214.504,145.416C214.564,145.395 214.618,145.374 214.655,145.359C214.732,145.327 214.817,145.288 214.902,145.247C215.075,145.164 215.302,145.049 215.572,144.905C216.113,144.616 216.856,144.197 217.731,143.663C219.479,142.594 221.781,141.047 224.081,139.132C226.374,137.222 228.706,134.911 230.474,132.307C232.24,129.704 233.5,126.724 233.5,123.51L230.5,123.51ZM214,142.5C214.18,142.5 214.316,142.534 214.344,142.541C214.394,142.553 214.432,142.565 214.449,142.571C214.482,142.582 214.501,142.59 214.495,142.588C214.486,142.584 214.454,142.57 214.391,142.54C214.27,142.482 214.085,142.389 213.84,142.258C213.353,141.998 212.662,141.609 211.834,141.103C210.177,140.09 208,138.626 205.839,136.827C203.673,135.023 201.565,132.915 200.008,130.622C198.45,128.326 197.5,125.929 197.5,123.51L194.5,123.51C194.5,126.724 195.76,129.704 197.526,132.307C199.294,134.911 201.626,137.222 203.919,139.132C206.219,141.047 208.521,142.594 210.269,143.663C211.144,144.197 211.887,144.616 212.428,144.905C212.698,145.049 212.925,145.164 213.098,145.247C213.183,145.288 213.268,145.327 213.345,145.359C213.382,145.374 213.436,145.395 213.496,145.416C213.526,145.426 213.575,145.441 213.635,145.456C213.672,145.465 213.815,145.5 214,145.5L214,142.5ZM197.5,123.51C197.5,118.552 201.304,113.5 206.608,113.5L206.608,110.5C199.212,110.5 194.5,117.368 194.5,123.51L197.5,123.51ZM206.608,113.5C209.677,113.5 211.676,115.012 212.86,116.397L215.14,114.447C213.568,112.608 210.799,110.5 206.608,110.5L206.608,113.5ZM215.14,116.397C216.324,115.012 218.323,113.5 221.392,113.5L221.392,110.5C217.201,110.5 214.432,112.608 212.86,114.447L215.14,116.397Z" fill="#707B81"/>
<path d="M550.479,121.95L548.989,122.12L548.989,122.12L550.479,121.95ZM551.373,129.831L552.864,129.661L552.864,129.661L551.373,129.831ZM524.627,129.831L523.136,129.661L523.136,129.661L524.627,129.831ZM525.521,121.95L527.011,122.12L525.521,121.95ZM522.896,133.744L521.753,132.772L521.753,132.772L522.896,133.744ZM553.104,133.744L551.962,134.717L551.962,134.717L553.104,133.744ZM542.54,112.747L541.04,112.747C541.04,113.388 541.447,113.959 542.054,114.166L542.54,112.747ZM533.46,112.747L533.946,114.166C534.553,113.959 534.96,113.388 534.96,112.747L533.46,112.747ZM545.405,144.526C545.695,143.751 545.302,142.886 544.526,142.595C543.751,142.305 542.886,142.698 542.595,143.474L545.405,144.526ZM533.405,143.474C533.114,142.698 532.249,142.305 531.474,142.595C530.698,142.886 530.305,143.751 530.595,144.526L533.405,143.474ZM549.554,138.5L526.446,138.5L526.446,141.5L549.554,141.5L549.554,138.5ZM548.989,122.12L549.883,130L552.864,129.661L551.97,121.781L548.989,122.12ZM526.117,130L527.011,122.12L524.031,121.781L523.136,129.661L526.117,130ZM524.038,134.717C525.192,133.36 525.921,131.73 526.117,130L523.136,129.661C523.01,130.769 522.541,131.846 521.753,132.772L524.038,134.717ZM549.883,130C550.079,131.73 550.808,133.36 551.962,134.717L554.247,132.772C553.459,131.846 552.99,130.769 552.864,129.661L549.883,130ZM526.446,138.5C525.136,138.5 524.209,137.852 523.781,137.098C523.368,136.371 523.374,135.496 524.038,134.717L521.753,132.772C520.223,134.57 520.176,136.823 521.172,138.579C522.154,140.309 524.099,141.5 526.446,141.5L526.446,138.5ZM549.554,141.5C551.901,141.5 553.846,140.309 554.828,138.579C555.824,136.823 555.777,134.57 554.247,132.772L551.962,134.717C552.626,135.496 552.632,136.371 552.219,137.098C551.791,137.852 550.864,138.5 549.554,138.5L549.554,141.5ZM544.04,112.747L544.04,112.54L541.04,112.54L541.04,112.747L544.04,112.747ZM551.97,121.781C551.411,116.861 547.761,112.95 543.026,111.328L542.054,114.166C545.888,115.479 548.583,118.542 548.989,122.12L551.97,121.781ZM534.96,112.747L534.96,112.54L531.96,112.54L531.96,112.747L534.96,112.747ZM527.011,122.12C527.417,118.542 530.112,115.479 533.946,114.166L532.974,111.328C528.239,112.95 524.589,116.861 524.031,121.781L527.011,122.12ZM538,109.5C539.679,109.5 541.04,110.861 541.04,112.54L544.04,112.54C544.04,109.204 541.336,106.5 538,106.5L538,109.5ZM538,106.5C534.664,106.5 531.96,109.204 531.96,112.54L534.96,112.54C534.96,110.861 536.321,109.5 538,109.5L538,106.5ZM542.595,143.474C541.95,145.196 540.169,146.5 538,146.5L538,149.5C541.371,149.5 544.303,147.465 545.405,144.526L542.595,143.474ZM538,146.5C535.831,146.5 534.05,145.196 533.405,143.474L530.595,144.526C531.697,147.465 534.629,149.5 538,149.5L538,146.5Z" fill="#707B81"/>
<path d="M656.771,135.392C654.397,136.579 653.5,137.941 653.5,139C653.5,140.059 654.397,141.421 656.771,142.608C659.056,143.75 662.316,144.5 666,144.5C669.684,144.5 672.944,143.75 675.229,142.608C677.603,141.421 678.5,140.059 678.5,139C678.5,137.941 677.603,136.579 675.229,135.392C672.944,134.25 669.684,133.5 666,133.5C662.316,133.5 659.056,134.25 656.771,135.392ZM655.43,132.709C658.212,131.317 661.952,130.5 666,130.5C670.048,130.5 673.788,131.317 676.57,132.709C679.263,134.055 681.5,136.193 681.5,139C681.5,141.807 679.263,143.945 676.57,145.291C673.788,146.683 670.048,147.5 666,147.5C661.952,147.5 658.212,146.683 655.43,145.291C652.737,143.945 650.5,141.807 650.5,139C650.5,136.193 652.737,134.055 655.43,132.709Z" clip-rule="evenodd" fill-rule="evenodd" fill="#707B81"/>
<path d="M666,111.5C662.41,111.5 659.5,114.41 659.5,118C659.5,121.59 662.41,124.5 666,124.5C669.59,124.5 672.5,121.59 672.5,118C672.5,114.41 669.59,111.5 666,111.5ZM656.5,118C656.5,112.753 660.753,108.5 666,108.5C671.247,108.5 675.5,112.753 675.5,118C675.5,123.247 671.247,127.5 666,127.5C660.753,127.5 656.5,123.247 656.5,118Z" clip-rule="evenodd" fill-rule="evenodd" fill="#707B81"/>
<defs>
<filter id="filter1_1779" x="-4" y="-4" width="383" height="114" filterUnits="userSpaceOnUse" color-interpolation-filters="sRGB">
<feFlood flood-opacity="0" result="BackgroundImageFix"/>
<feColorMatrix in="SourceAlpha" type="matrix" values="0 0 0 0 0 0 0 0 0 0 0 0 0 0 0 0 0 0 127 0" result="hardAlpha"/>
<feMorphology radius="0" operator="dilate" in="SourceAlpha" result="0dropshadow"/>
<feOffset dx="-1.5" dy="0"/>
<feGaussianBlur stdDeviation="2"/>
<feComposite in2="hardAlpha" operator="out"/>
<feColorMatrix type="matrix" values="0 0 0 0 0.513725 0 0 0 0 0.666667 0 0 0 0 0.819608 0 0 0 0.12 0"/>
<feBlend mode="normal" in2="BackgroundImageFix" result="0dropshadow"/>
<feBlend mode="normal" in="SourceGraphic" in2="0dropshadow" result="shape"/>
</filter>
</defs>
</svg>
