<svg width="54" height="36" viewBox="0 0 54 36" fill="none" xmlns="http://www.w3.org/2000/svg" xmlns:xlink="http://www.w3.org/1999/xlink">
<path d="M49.372,25C46.704,25 45.121,26.365 45,28.332L47.551,28.332C47.551,27.676 47.914,26.804 49.493,26.749C50.587,26.749 51.192,27.405 51.192,27.898C51.071,28.662 50.098,28.716 49.129,28.883C48.254,28.987 47.396,29.206 46.578,29.535C46.162,29.767 45.818,30.109 45.583,30.524C45.347,30.938 45.229,31.409 45.242,31.885C45.242,33.635 46.704,35 49.251,35C51.681,35 53.259,33.743 53.376,31.831L50.95,31.831C50.95,32.319 50.829,33.142 49.372,33.142C48.399,33.142 47.793,32.979 47.672,32.269C47.672,31.284 49.735,31.338 51.313,30.958C52.77,30.574 53.743,29.647 53.743,28.332C53.743,25.927 51.802,25 49.372,25Z" fill="#1A2530"/>
<path d="M37.217,27.564C37.217,26.177 38.32,25.037 39.752,25.037C41.074,25.037 42.282,26.177 42.282,27.564C42.259,28.227 41.985,28.857 41.516,29.326C41.046,29.796 40.415,30.069 39.752,30.09C39.082,30.087 38.44,29.82 37.965,29.347C37.491,28.874 37.222,28.233 37.217,27.564ZM39.638,23.002C39.041,23.002 38.45,23.12 37.899,23.349C37.348,23.579 36.849,23.916 36.429,24.34C36.009,24.765 35.678,25.268 35.454,25.821C35.231,26.375 35.119,26.967 35.126,27.564C35.126,30.09 37.107,32.075 39.638,32.075C40.63,32.075 41.513,31.825 42.282,31.284L42.282,31.977L44.377,31.977L44.377,23.203L42.282,23.203L42.282,23.749C41.493,23.246 40.573,22.987 39.638,23.002ZM27.091,27.564C27.091,26.177 28.303,25.037 29.626,25.037C31.057,25.037 32.16,26.177 32.16,27.564C32.155,28.233 31.886,28.874 31.412,29.347C30.937,29.82 30.295,30.087 29.626,30.09C28.962,30.069 28.331,29.796 27.86,29.327C27.39,28.858 27.115,28.227 27.091,27.564ZM32.16,35L34.361,35L34.361,23.203L32.16,23.203L32.16,23.749C31.418,23.233 30.529,22.972 29.626,23.002C27.091,23.002 25,25.037 25,27.564C25,30.09 27.091,32.075 29.626,32.075C30.614,32.075 31.497,31.825 32.16,31.284L32.16,35Z" fill="#1A2530"/>
<line x1="22" y1="27" x2="22" y2="35" fill="#1A2530" stroke="#1A2530" stroke-width="1" stroke-miterlimit="3.999327"/>
<path d="M13.234,27.562C13.234,26.176 14.412,25.035 15.941,25.035C17.35,25.035 18.649,26.176 18.649,27.562C18.623,28.226 18.329,28.856 17.826,29.325C17.324,29.794 16.65,30.067 15.941,30.09C15.226,30.087 14.54,29.82 14.034,29.347C13.527,28.873 13.239,28.232 13.234,27.562L13.234,27.562ZM15.824,23.001C15.186,23 14.554,23.117 13.966,23.347C13.377,23.576 12.842,23.913 12.393,24.337C11.945,24.762 11.59,25.265 11.351,25.819C11.112,26.373 10.993,26.965 11,27.562C11,30.09 13.117,32.075 15.824,32.075C16.88,32.075 17.823,31.825 18.649,31.283L18.649,35L21,35L21,23.201L18.649,23.201L18.649,23.747C17.805,23.245 16.823,22.986 15.824,23.001Z" fill="#1A2530"/>
<path d="M3.234,30.027C3.234,28.499 4.529,27.242 5.937,27.242C7.471,27.242 8.645,28.499 8.645,30.027C8.645,31.501 7.471,32.812 5.937,32.812C5.229,32.787 4.556,32.486 4.054,31.969C3.552,31.452 3.259,30.758 3.234,30.027ZM5.82,25C3.234,25 1,27.242 1,30.027C1,32.812 3.234,35 5.82,35C6.88,35 7.823,34.724 8.645,34.127L8.645,34.891L11,34.891L11,25.221L8.645,25.221L8.645,25.823C7.94,25.276 6.88,25 5.82,25Z" fill="#1A2530"/>
<path d="M7,21L8,23L20,23L15,16L7,21Z" fill="#1A2530"/>
<path d="M23,23L23,25L25,25L25,23L33,23L24,8L16,13L23,23Z" fill="#1A2530"/>
<path d="M32,0L25,5L36,23L47,23L32,0Z" fill="#1A2530"/>
</svg>
