<svg width="44" height="38" viewBox="0 0 44 38" fill="none" xmlns="http://www.w3.org/2000/svg" xmlns:xlink="http://www.w3.org/1999/xlink">
<path d="M36.469,29.531C35.883,28.946 34.933,28.946 34.347,29.531C33.762,30.117 33.762,31.067 34.347,31.653L36.469,29.531ZM35.408,35.072L34.348,34.011L34.347,34.011L35.408,35.072ZM30.928,35.072L31.99,34.012L31.989,34.011L30.928,35.072ZM30.928,30.592L31.988,31.654L31.989,31.653L30.928,30.592ZM34.346,31.652C34.932,32.238 35.882,32.239 36.468,31.654C37.054,31.068 37.055,30.119 36.47,29.532L34.346,31.652ZM34.347,31.653C35,32.305 34.999,33.361 34.348,34.011L36.468,36.134C38.293,34.311 38.292,31.355 36.469,29.531L34.347,31.653ZM34.347,34.011C33.695,34.664 32.639,34.663 31.99,34.012L29.866,36.132C31.689,37.957 34.645,37.956 36.469,36.133L34.347,34.011ZM31.989,34.011C31.336,33.359 31.337,32.303 31.988,31.654L29.868,29.531C28.043,31.353 28.044,34.309 29.867,36.133L31.989,34.011ZM31.989,31.653C32.641,31 33.697,31.001 34.346,31.652L36.47,29.532C34.647,27.707 31.691,27.708 29.867,29.531L31.989,31.653Z" fill="#707B81"/>
<path d="M14.469,29.531C13.883,28.946 12.933,28.946 12.347,29.531C11.762,30.117 11.762,31.067 12.347,31.653L14.469,29.531ZM13.408,35.072L12.348,34.011L12.347,34.011L13.408,35.072ZM12.347,31.653C12.933,32.239 13.883,32.239 14.469,31.653C15.054,31.067 15.054,30.117 14.469,29.531L12.347,31.653ZM12.347,31.653C13,32.305 12.999,33.361 12.348,34.011L14.468,36.134C16.293,34.311 16.292,31.355 14.469,29.531L12.347,31.653ZM12.347,34.011C11.695,34.664 10.639,34.663 9.99,34.012L7.866,36.132C9.689,37.957 12.645,37.956 14.469,36.133L12.347,34.011ZM9.99,34.012C9.337,33.358 9.338,32.302 9.988,31.654L7.868,29.531C6.042,31.354 6.047,34.31 7.866,36.132L9.99,34.012ZM9.988,31.654C10.641,31.001 11.696,31.002 12.347,31.653L14.469,29.531C12.644,27.707 9.691,27.711 7.868,29.531L9.988,31.654Z" fill="#707B81"/>
<path d="M18,0.5C17.172,0.5 16.5,1.172 16.5,2C16.5,2.828 17.172,3.5 18,3.5L18,0.5ZM28,24L28,25.5C28.828,25.5 29.5,24.828 29.5,24L28,24ZM2,22.5C1.172,22.5 0.5,23.172 0.5,24C0.5,24.828 1.172,25.5 2,25.5L2,22.5ZM18,3.5L26,3.5L26,0.5L18,0.5L18,3.5ZM26,3.5C26.276,3.5 26.5,3.724 26.5,4L29.5,4C29.5,2.068 27.932,0.5 26,0.5L26,3.5ZM26.5,4L26.5,24L29.5,24L29.5,4L26.5,4ZM28,22.5L2,22.5L2,25.5L28,25.5L28,22.5Z" fill="#707B81"/>
<path d="M8,34.332C8.828,34.332 9.5,33.66 9.5,32.832C9.5,32.004 8.828,31.332 8,31.332L8,34.332ZM3.5,20C3.5,19.172 2.828,18.5 2,18.5C1.172,18.5 0.5,19.172 0.5,20L3.5,20ZM8,31.332L4,31.332L4,34.332L8,34.332L8,31.332ZM4,31.332C3.724,31.332 3.5,31.108 3.5,30.832L0.5,30.832C0.5,32.764 2.068,34.332 4,34.332L4,31.332ZM3.5,30.832L3.5,20L0.5,20L0.5,30.832L3.5,30.832Z" fill="#707B81"/>
<path d="M28,6.5C27.172,6.5 26.5,7.172 26.5,8C26.5,8.828 27.172,9.5 28,9.5L28,6.5ZM38.502,9.258L37.108,9.812L37.109,9.815L38.502,9.258ZM41.714,17.286L43.108,16.731L43.107,16.729L41.714,17.286ZM36.338,31.166C35.51,31.166 34.838,31.838 34.838,32.666C34.838,33.494 35.51,34.166 36.338,34.166L36.338,31.166ZM28,9.5L36.646,9.5L36.646,6.5L28,6.5L28,9.5ZM36.646,9.5C36.851,9.5 37.034,9.625 37.108,9.812L39.896,8.704C39.366,7.371 38.077,6.5 36.646,6.5L36.646,9.5ZM37.109,9.815L40.321,17.843L43.107,16.729L39.895,8.701L37.109,9.815ZM40.32,17.841C40.439,18.139 40.5,18.455 40.5,18.77L43.5,18.77C43.5,18.069 43.365,17.377 43.108,16.731L40.32,17.841ZM40.5,18.77L40.5,30.666L43.5,30.666L43.5,18.77L40.5,18.77ZM40.5,30.666C40.5,30.942 40.276,31.166 40,31.166L40,34.166C41.932,34.166 43.5,32.598 43.5,30.666L40.5,30.666ZM40,31.166L36.338,31.166L36.338,34.166L40,34.166L40,31.166Z" fill="#707B81"/>
<path d="M30,34.34C30.828,34.34 31.5,33.669 31.5,32.84C31.5,32.012 30.828,31.34 30,31.34L30,34.34ZM14.34,31.34C13.512,31.34 12.84,32.012 12.84,32.84C12.84,33.669 13.512,34.34 14.34,34.34L14.34,31.34ZM30,31.34L14.34,31.34L14.34,34.34L30,34.34L30,31.34Z" fill="#707B81"/>
<path d="M42,23.5C42.828,23.5 43.5,22.828 43.5,22C43.5,21.172 42.828,20.5 42,20.5L42,23.5ZM34,22L32.5,22C32.5,22.828 33.172,23.5 34,23.5L34,22ZM34,14L34,12.5C33.172,12.5 32.5,13.172 32.5,14L34,14ZM40.4,15.5C41.228,15.5 41.9,14.828 41.9,14C41.9,13.172 41.228,12.5 40.4,12.5L40.4,15.5ZM42,20.5L34,20.5L34,23.5L42,23.5L42,20.5ZM35.5,22L35.5,14L32.5,14L32.5,22L35.5,22ZM34,15.5L40.4,15.5L40.4,12.5L34,12.5L34,15.5Z" fill="#707B81"/>
<path d="M2,0.5C1.172,0.5 0.5,1.172 0.5,2C0.5,2.828 1.172,3.5 2,3.5L2,0.5ZM12,3.5C12.828,3.5 13.5,2.828 13.5,2C13.5,1.172 12.828,0.5 12,0.5L12,3.5ZM2,3.5L12,3.5L12,0.5L2,0.5L2,3.5Z" fill="#707B81"/>
<path d="M2,6.5C1.172,6.5 0.5,7.172 0.5,8C0.5,8.828 1.172,9.5 2,9.5L2,6.5ZM8,9.5C8.828,9.5 9.5,8.828 9.5,8C9.5,7.172 8.828,6.5 8,6.5L8,9.5ZM2,9.5L8,9.5L8,6.5L2,6.5L2,9.5Z" fill="#707B81"/>
<path d="M4,15.5C4.828,15.5 5.5,14.828 5.5,14C5.5,13.172 4.828,12.5 4,12.5L4,15.5ZM2,12.5C1.172,12.5 0.5,13.172 0.5,14C0.5,14.828 1.172,15.5 2,15.5L2,12.5ZM4,12.5L2,12.5L2,15.5L4,15.5L4,12.5Z" fill="#707B81"/>
</svg>
