<svg width="66" height="32" viewBox="0 0 66 32" fill="none" xmlns="http://www.w3.org/2000/svg" xmlns:xlink="http://www.w3.org/1999/xlink">
<path d="M35.508,0.109C35.297,0.141 35.095,0.916 34.688,1.32C34.39,1.612 34.018,1.594 33.821,1.954C33.746,2.089 33.77,2.319 33.686,2.539C33.519,2.981 32.935,3.02 32.935,3.501C32.933,4.02 33.422,4.119 33.846,4.488C34.178,4.784 34.209,4.989 34.61,5.133C34.953,5.249 35.462,4.869 35.921,5.006C36.297,5.117 36.657,5.198 36.743,5.585C36.818,5.942 36.737,6.494 36.281,6.43C36.127,6.413 35.459,6.189 34.64,6.276C33.651,6.388 32.522,6.711 32.412,7.814C32.351,8.43 33.114,9.157 33.85,9.009C34.358,8.909 34.118,8.309 34.394,8.017C34.758,7.643 36.818,9.321 38.731,9.321C39.537,9.321 40.137,9.117 40.732,8.494C40.788,8.446 40.856,8.344 40.942,8.338C41.023,8.344 41.164,8.424 41.211,8.458C42.752,9.697 43.918,12.183 49.584,12.211C50.381,12.216 51.288,12.597 52.03,13.273C52.691,13.884 53.077,14.835 53.453,15.8C54.02,17.247 55.036,18.656 56.577,20.222C56.661,20.306 57.929,21.293 58.031,21.366C58.047,21.377 58.14,21.599 58.107,21.723C58.07,22.664 57.933,25.395 59.97,25.519C60.468,25.544 60.338,25.194 60.338,24.954C60.337,24.477 60.25,24.005 60.5,23.517C60.843,22.847 59.773,22.539 59.804,21.09C59.827,20.01 58.919,20.194 58.459,19.371C58.194,18.894 57.958,18.641 57.975,18.058C58.078,14.777 57.276,12.62 56.877,12.09C56.565,11.691 56.307,11.532 56.591,11.347C58.292,10.224 58.677,9.18 58.677,9.18C59.582,7.055 60.394,5.114 61.515,4.259C61.741,4.083 62.32,3.651 62.675,3.481C63.721,2.988 64.271,2.689 64.576,2.393C65.056,1.925 65.436,0.948 64.975,0.356C64.402,-0.375 63.411,0.205 62.974,0.464C59.849,2.319 59.388,5.59 58.306,7.469C57.442,8.97 56.038,10.073 54.783,10.163C53.842,10.233 52.827,10.043 51.817,9.599C49.36,8.522 48.016,7.132 47.698,6.885C47.038,6.376 41.915,1.346 37.763,1.14C37.763,1.14 37.247,0.108 37.118,0.092C36.815,0.052 36.504,0.707 36.281,0.784C36.071,0.853 35.719,0.075 35.508,0.109L35.508,0.109ZM17.231,30.131C16.84,30.122 16.508,29.801 16.508,29.405L16.51,16.454L12.241,16.454L12.241,30.729C12.241,31.43 12.808,32 13.504,32L20.963,32C21.664,32 22.224,31.43 22.224,30.729L22.224,16.454L17.959,16.454L17.956,29.405C17.956,29.801 17.624,30.122 17.231,30.131L17.231,30.131ZM31.521,16.454L25.062,16.454C24.296,16.454 23.674,17.076 23.674,17.848L23.674,32L27.947,32L27.947,19.019C27.947,18.925 27.966,18.831 28.003,18.745C28.04,18.658 28.093,18.579 28.16,18.513C28.227,18.447 28.307,18.394 28.394,18.359C28.481,18.323 28.575,18.305 28.669,18.306C29.067,18.306 29.387,18.614 29.396,19.008L29.396,32L33.651,32L33.651,19.008C33.656,18.614 33.976,18.306 34.374,18.306C34.768,18.306 35.095,18.621 35.098,19.019L35.098,32L39.37,32L39.37,17.848C39.37,17.076 38.746,16.454 37.982,16.454L31.521,16.454L31.521,16.454ZM9.394,28.094L5.082,28.094L5.082,32L0.816,32L0.816,16.454L9.421,16.454C10.192,16.454 10.793,17.08 10.793,17.855L10.793,26.692C10.794,26.876 10.758,27.059 10.688,27.229C10.618,27.399 10.515,27.554 10.385,27.684C10.255,27.814 10.1,27.917 9.93,27.988C9.76,28.058 9.578,28.094 9.394,28.094L9.394,28.094ZM6.53,19.046C6.531,18.95 6.513,18.854 6.478,18.765C6.442,18.676 6.389,18.595 6.322,18.526C6.255,18.457 6.175,18.402 6.086,18.365C5.998,18.327 5.903,18.307 5.807,18.306L5.082,18.306L5.082,26.169L5.807,26.169C6.184,26.169 6.533,25.869 6.53,25.439L6.53,19.046Z" fill="#1A2530"/>
<path d="M46.531,32L46.531,28.097L45.081,28.097L45.081,32L40.817,32L40.817,17.848C40.817,17.076 41.44,16.454 42.205,16.454L49.408,16.454C50.175,16.454 50.797,17.076 50.797,17.848L50.797,32L46.531,32ZM46.531,26.172L46.531,19.013C46.521,18.618 46.203,18.314 45.805,18.314C45.41,18.314 45.085,18.63 45.081,19.025L45.081,26.172L46.531,26.172Z" fill="#1A2530"/>
</svg>
