<svg width="60" height="40" viewBox="0 0 60 40" fill="none" xmlns="http://www.w3.org/2000/svg" xmlns:xlink="http://www.w3.org/1999/xlink">
<path d="M35.553,14.137L22.811,28.273L33.737,28.273L46.479,14.137L33.737,0L22.811,0L35.553,14.137Z" fill="#1A2530"/>
<path d="M18.951,11.113L13.198,9.214L16.805,14.217L13.257,19.191L18.951,17.292L22.41,22.295L22.41,16.116L28.223,14.217L22.41,12.288L22.41,6.139L18.951,11.113ZM4.616,34.199C5.12,34.199 5.616,34.444 5.946,34.854L6.068,35.002L7.624,33.929L7.485,33.754C6.798,32.89 5.746,32.393 4.616,32.393C2.626,32.393 1,33.955 1,35.866C1,37.778 2.626,39.34 4.616,39.34C5.738,39.34 6.781,38.851 7.467,38.005L7.607,37.83L6.051,36.757L5.929,36.905C5.59,37.315 5.112,37.551 4.608,37.551C3.686,37.551 2.904,36.783 2.904,35.875C2.912,34.968 3.695,34.199 4.616,34.199L4.616,34.199ZM21.327,36.254L18.53,32.554L16.752,32.554L16.752,39.098L18.478,39.098L18.478,35.433L21.085,39.098L23.053,39.098L23.053,32.554L21.327,32.554L21.327,36.254ZM28,37.213C28,37.266 27.93,37.274 27.895,37.274C27.869,37.274 27.817,37.266 27.791,37.204L26.347,32.554L24.345,32.554L26.477,39.098L29.322,39.098L31.454,32.554L29.453,32.554L28,37.213ZM44.158,36.419C44.856,36.018 45.257,35.285 45.196,34.482C45.117,33.392 44.167,32.554 43.033,32.554L39.694,32.554L39.694,39.098L41.438,39.098L41.438,36.742L42.222,36.742C42.301,36.742 42.371,36.751 42.423,36.821L43.548,39.098L45.51,39.098L44.158,36.419ZM42.941,35.059L41.39,35.059L41.39,34.332L42.941,34.332C43.152,34.332 43.329,34.477 43.329,34.695C43.329,34.913 43.152,35.059 42.941,35.059ZM53.83,39.098L59,39.098L59,37.353L55.553,37.353L55.553,36.568L58.655,36.568L58.655,34.997L55.553,34.997L55.553,34.299L59,34.299L59,32.554L53.83,32.554L53.83,39.098ZM49.846,35.041C48.919,34.833 48.651,34.694 48.651,34.39L48.651,34.373C48.651,34.13 48.833,33.939 49.283,33.939C49.881,33.939 50.366,34.13 51.016,34.52L52.056,33.287C51.328,32.706 50.453,32.393 49.318,32.393C47.706,32.393 46.745,33.296 46.745,34.546L46.745,34.564C46.745,35.945 47.88,36.353 49.309,36.674C50.219,36.882 50.47,37.039 50.47,37.317L50.47,37.334C50.47,37.621 50.15,37.794 49.647,37.794C48.867,37.794 48.105,37.516 47.447,36.987L46.398,38.228C47.221,38.967 48.417,39.34 49.604,39.34C51.232,39.34 52.376,38.524 52.376,37.152L52.376,37.134C52.376,35.875 51.388,35.38 49.846,35.041L49.846,35.041ZM11.865,32.393C9.926,32.393 8.351,33.955 8.351,35.866C8.351,37.786 9.926,39.34 11.865,39.34C13.804,39.34 15.379,37.778 15.379,35.866C15.379,33.946 13.804,32.393 11.865,32.393ZM11.865,37.563C10.95,37.563 10.209,36.822 10.209,35.907C10.209,34.992 10.95,34.251 11.865,34.251C12.78,34.251 13.521,34.992 13.521,35.907C13.521,36.822 12.78,37.563 11.865,37.563ZM32.747,39.098L37.916,39.098L37.916,37.353L34.47,37.353L34.47,36.568L37.572,36.568L37.572,34.997L34.47,34.997L34.47,34.299L37.916,34.299L37.916,32.554L32.747,32.554L32.747,39.098Z" fill="#1A2530"/>
</svg>
