<svg width="50" height="48" viewBox="0 0 50 48" fill="none" xmlns="http://www.w3.org/2000/svg" xmlns:xlink="http://www.w3.org/1999/xlink">
<path d="M49,24.547C49.002,22.912 48.861,21.279 48.578,19.667L25.486,19.667L25.486,28.911L38.712,28.911C38.441,30.387 37.868,31.794 37.028,33.047C36.187,34.301 35.097,35.374 33.821,36.204L33.821,42.203L41.715,42.203C46.337,38.027 49,31.85 49,24.547Z" fill="#4285F4"/>
<path d="M25.486,48C32.094,48 37.658,45.873 41.715,42.207L33.822,36.207C31.624,37.667 28.795,38.5 25.486,38.5C19.099,38.5 13.678,34.28 11.739,28.594L3.607,28.594L3.607,34.777C5.646,38.752 8.771,42.093 12.634,44.428C16.497,46.763 20.947,48 25.486,48L25.486,48Z" fill="#34A853"/>
<path d="M11.739,28.594C10.714,25.614 10.714,22.387 11.739,19.408L11.739,13.224L3.607,13.224C1.893,16.568 1,20.259 1,24.001C1,27.743 1.893,31.433 3.607,34.777L11.739,28.594Z" fill="#FBBC04"/>
<path d="M25.486,9.501C28.978,9.445 32.352,10.738 34.879,13.101L41.868,6.251C37.436,2.172 31.565,-0.068 25.486,0.002C20.947,0.002 16.497,1.238 12.634,3.573C8.771,5.908 5.646,9.25 3.607,13.224L11.739,19.408C13.678,13.721 19.099,9.501 25.486,9.501L25.486,9.501Z" fill="#EA4335"/>
</svg>
