<svg width="34" height="40" viewBox="0 0 34 40" fill="none" xmlns="http://www.w3.org/2000/svg" xmlns:xlink="http://www.w3.org/1999/xlink">
<path d="M9.631,38.644L10.324,34.241L8.78,34.205L1.406,34.205L6.531,1.713C6.546,1.613 6.596,1.523 6.673,1.458C6.749,1.392 6.846,1.357 6.947,1.357L19.38,1.357C23.508,1.357 26.356,2.216 27.844,3.912C28.541,4.707 28.985,5.538 29.2,6.453C29.425,7.412 29.429,8.559 29.209,9.957L29.193,10.059L29.193,10.955L29.89,11.35C30.422,11.62 30.901,11.985 31.302,12.427C31.898,13.107 32.284,13.971 32.447,14.996C32.615,16.049 32.56,17.303 32.284,18.723C31.966,20.356 31.452,21.778 30.757,22.942C30.144,23.985 29.32,24.888 28.338,25.593C27.415,26.248 26.319,26.745 25.08,27.063C23.879,27.376 22.51,27.534 21.008,27.534L20.04,27.534C19.348,27.534 18.676,27.783 18.149,28.23C17.622,28.681 17.273,29.305 17.163,29.99L17.09,30.386L15.865,38.147L15.809,38.432C15.795,38.522 15.77,38.567 15.732,38.598C15.696,38.627 15.652,38.643 15.605,38.644L9.631,38.644Z" fill="#253B80"/>
<path d="M30.551,10.163C30.514,10.4 30.471,10.642 30.424,10.892C28.784,19.31 23.174,22.218 16.01,22.218L12.362,22.218C11.486,22.218 10.748,22.854 10.611,23.719L8.743,35.563L8.215,38.921C8.194,39.054 8.202,39.19 8.238,39.32C8.275,39.45 8.339,39.57 8.427,39.673C8.514,39.775 8.623,39.858 8.745,39.914C8.868,39.971 9.001,40 9.136,40L15.606,40C16.372,40 17.023,39.443 17.143,38.688L17.207,38.359L18.425,30.629L18.503,30.204C18.623,29.446 19.275,28.889 20.041,28.889L21.008,28.889C27.277,28.889 32.184,26.344 33.618,18.98C34.217,15.903 33.907,13.335 32.322,11.528C31.819,10.969 31.219,10.506 30.551,10.163L30.551,10.163Z" fill="#5B9EE1"/>
<path d="M28.836,9.479C28.312,9.327 27.78,9.209 27.241,9.125C26.177,8.961 25.102,8.883 24.026,8.89L14.28,8.89C13.909,8.89 13.551,9.022 13.269,9.263C12.987,9.505 12.801,9.839 12.744,10.205L10.671,23.336L10.611,23.719C10.676,23.301 10.888,22.92 11.209,22.644C11.53,22.369 11.939,22.218 12.362,22.218L16.01,22.218C23.175,22.218 28.784,19.309 30.424,10.892C30.473,10.642 30.514,10.4 30.551,10.163C30.118,9.936 29.667,9.746 29.203,9.594C29.081,9.554 28.959,9.515 28.836,9.479L28.836,9.479Z" fill="#222D65"/>
<path d="M12.743,10.205C12.8,9.839 12.986,9.504 13.268,9.263C13.55,9.022 13.909,8.89 14.28,8.892L24.025,8.892C25.179,8.892 26.257,8.967 27.24,9.126C27.906,9.231 28.562,9.387 29.204,9.594C29.687,9.754 30.137,9.944 30.552,10.163C31.039,7.052 30.548,4.934 28.866,3.016C27.011,0.904 23.664,0 19.382,0L6.948,0C6.073,0 5.327,0.636 5.192,1.502L0.013,34.328C-0.011,34.481 -0.002,34.636 0.04,34.785C0.082,34.933 0.155,35.071 0.256,35.188C0.356,35.306 0.48,35.4 0.62,35.465C0.76,35.53 0.913,35.563 1.067,35.564L8.743,35.564L10.67,23.336L12.743,10.205Z" fill="#253B80"/>
</svg>
