<svg width="48" height="48" viewBox="0 0 48 48" fill="none" xmlns="http://www.w3.org/2000/svg" xmlns:xlink="http://www.w3.org/1999/xlink">
<path d="M28.116,9.306C25.722,7.347 22.278,7.347 19.884,9.306L7.535,19.41C6.596,20.178 6.934,21.687 8.111,21.981C10.103,22.479 11.5,24.269 11.5,26.322L11.5,36C11.5,39.59 14.41,42.5 18,42.5L30,42.5C33.59,42.5 36.5,39.59 36.5,36L36.5,26.322C36.5,24.269 37.897,22.479 39.889,21.981C41.066,21.687 41.404,20.178 40.465,19.41L28.116,9.306ZM17.984,6.984C21.484,4.121 26.516,4.121 30.016,6.984L42.365,17.088C45.213,19.418 44.187,23.999 40.617,24.892C39.96,25.056 39.5,25.646 39.5,26.322L39.5,36C39.5,41.247 35.247,45.5 30,45.5L18,45.5C12.753,45.5 8.5,41.247 8.5,36L8.5,26.322C8.5,25.646 8.04,25.056 7.383,24.892C3.813,23.999 2.787,19.418 5.635,17.088L17.984,6.984Z" clip-rule="evenodd" fill-rule="evenodd" fill="#707B81"/>
<path d="M24,29.5C22.619,29.5 21.5,30.619 21.5,32C21.5,33.381 22.619,34.5 24,34.5C25.381,34.5 26.5,33.381 26.5,32C26.5,30.619 25.381,29.5 24,29.5ZM18.5,32C18.5,28.962 20.962,26.5 24,26.5C27.038,26.5 29.5,28.962 29.5,32C29.5,35.038 27.038,37.5 24,37.5C20.962,37.5 18.5,35.038 18.5,32Z" clip-rule="evenodd" fill-rule="evenodd" fill="#707B81"/>
</svg>
