<svg width="78" height="8" viewBox="0 0 78 8" fill="none" xmlns="http://www.w3.org/2000/svg" xmlns:xlink="http://www.w3.org/1999/xlink">
<path d="M3.968,4.032L5.232,5.376L6.352,6.944L5.52,7.552L4.368,6L3.488,4.384L3.728,4.208L3.968,4.032ZM3.488,4.032L3.728,4.208L3.968,4.384L3.088,6L1.936,7.552L1.104,6.944L2.224,5.376L3.488,4.032ZM0.304,2.56L2.16,3.136L3.824,3.92L3.728,4.208L3.632,4.496L1.824,4.144L0,3.536L0.304,2.56ZM4.256,0.448L4.256,2.384L4.032,4.208L3.728,4.208L3.424,4.208L3.2,2.384L3.2,0.448L4.256,0.448ZM7.152,2.56L7.456,3.536L5.632,4.144L3.824,4.496L3.728,4.208L3.632,3.92L5.296,3.136L7.152,2.56Z" fill="#707B81"/>
<path d="M13.124,4.032L14.388,5.376L15.508,6.944L14.676,7.552L13.524,6L12.644,4.384L12.884,4.208L13.124,4.032ZM12.644,4.032L12.884,4.208L13.124,4.384L12.244,6L11.092,7.552L10.26,6.944L11.38,5.376L12.644,4.032ZM9.46,2.56L11.316,3.136L12.98,3.92L12.884,4.208L12.788,4.496L10.98,4.144L9.156,3.536L9.46,2.56ZM13.412,0.448L13.412,2.384L13.188,4.208L12.884,4.208L12.58,4.208L12.356,2.384L12.356,0.448L13.412,0.448ZM16.308,2.56L16.612,3.536L14.788,4.144L12.98,4.496L12.884,4.208L12.788,3.92L14.452,3.136L16.308,2.56Z" fill="#707B81"/>
<path d="M22.281,4.032L23.545,5.376L24.665,6.944L23.833,7.552L22.681,6L21.801,4.384L22.041,4.208L22.281,4.032ZM21.801,4.032L22.041,4.208L22.281,4.384L21.4,6L20.249,7.552L19.417,6.944L20.536,5.376L21.801,4.032ZM18.617,2.56L20.472,3.136L22.137,3.92L22.041,4.208L21.944,4.496L20.136,4.144L18.313,3.536L18.617,2.56ZM22.569,0.448L22.569,2.384L22.344,4.208L22.041,4.208L21.736,4.208L21.513,2.384L21.513,0.448L22.569,0.448ZM25.465,2.56L25.769,3.536L23.944,4.144L22.137,4.496L22.041,4.208L21.944,3.92L23.608,3.136L25.465,2.56Z" fill="#707B81"/>
<path d="M31.437,4.032L32.701,5.376L33.821,6.944L32.989,7.552L31.837,6L30.957,4.384L31.197,4.208L31.437,4.032ZM30.957,4.032L31.197,4.208L31.437,4.384L30.557,6L29.405,7.552L28.573,6.944L29.693,5.376L30.957,4.032ZM27.773,2.56L29.629,3.136L31.293,3.92L31.197,4.208L31.101,4.496L29.293,4.144L27.469,3.536L27.773,2.56ZM31.725,0.448L31.725,2.384L31.501,4.208L31.197,4.208L30.893,4.208L30.669,2.384L30.669,0.448L31.725,0.448ZM34.621,2.56L34.925,3.536L33.101,4.144L31.293,4.496L31.197,4.208L31.101,3.92L32.765,3.136L34.621,2.56Z" fill="#707B81"/>
<path d="M46.046,4.032L47.31,5.376L48.43,6.944L47.598,7.552L46.446,6L45.566,4.384L45.806,4.208L46.046,4.032ZM45.566,4.032L45.806,4.208L46.046,4.384L45.166,6L44.014,7.552L43.182,6.944L44.302,5.376L45.566,4.032ZM42.382,2.56L44.238,3.136L45.902,3.92L45.806,4.208L45.71,4.496L43.902,4.144L42.078,3.536L42.382,2.56ZM46.334,0.448L46.334,2.384L46.11,4.208L45.806,4.208L45.502,4.208L45.278,2.384L45.278,0.448L46.334,0.448ZM49.23,2.56L49.534,3.536L47.71,4.144L45.902,4.496L45.806,4.208L45.71,3.92L47.374,3.136L49.23,2.56Z" fill="#707B81"/>
<path d="M55.202,4.032L56.466,5.376L57.586,6.944L56.754,7.552L55.602,6L54.722,4.384L54.962,4.208L55.202,4.032ZM54.722,4.032L54.962,4.208L55.202,4.384L54.322,6L53.17,7.552L52.338,6.944L53.458,5.376L54.722,4.032ZM51.538,2.56L53.394,3.136L55.058,3.92L54.962,4.208L54.866,4.496L53.058,4.144L51.234,3.536L51.538,2.56ZM55.49,0.448L55.49,2.384L55.266,4.208L54.962,4.208L54.658,4.208L54.434,2.384L54.434,0.448L55.49,0.448ZM58.386,2.56L58.69,3.536L56.866,4.144L55.058,4.496L54.962,4.208L54.866,3.92L56.53,3.136L58.386,2.56Z" fill="#707B81"/>
<path d="M64.359,4.032L65.623,5.376L66.743,6.944L65.911,7.552L64.759,6L63.879,4.384L64.119,4.208L64.359,4.032ZM63.879,4.032L64.119,4.208L64.359,4.384L63.479,6L62.327,7.552L61.495,6.944L62.615,5.376L63.879,4.032ZM60.695,2.56L62.551,3.136L64.215,3.92L64.119,4.208L64.023,4.496L62.215,4.144L60.391,3.536L60.695,2.56ZM64.647,0.448L64.647,2.384L64.423,4.208L64.119,4.208L63.815,4.208L63.591,2.384L63.591,0.448L64.647,0.448ZM67.543,2.56L67.847,3.536L66.023,4.144L64.215,4.496L64.119,4.208L64.023,3.92L65.687,3.136L67.543,2.56Z" fill="#707B81"/>
<path d="M73.515,4.032L74.779,5.376L75.899,6.944L75.067,7.552L73.915,6L73.035,4.384L73.275,4.208L73.515,4.032ZM73.035,4.032L73.275,4.208L73.515,4.384L72.635,6L71.483,7.552L70.651,6.944L71.771,5.376L73.035,4.032ZM69.851,2.56L71.707,3.136L73.371,3.92L73.275,4.208L73.179,4.496L71.371,4.144L69.547,3.536L69.851,2.56ZM73.803,0.448L73.803,2.384L73.579,4.208L73.275,4.208L72.971,4.208L72.747,2.384L72.747,0.448L73.803,0.448ZM76.699,2.56L77.003,3.536L75.179,4.144L73.371,4.496L73.275,4.208L73.179,3.92L74.843,3.136L76.699,2.56Z" fill="#707B81"/>
</svg>
