<svg width="670" height="232" viewBox="0 0 670 232" fill="none" xmlns="http://www.w3.org/2000/svg" xmlns:xlink="http://www.w3.org/1999/xlink">
<path d="M4,232C1.791,232 0,230.21 0,228L0,4C0,1.791 1.791,0 4,0L32.371,0C33.695,0 34.932,0.655 35.677,1.749L140.22,155.266C142.436,158.52 147.526,156.951 147.526,153.014L147.526,4C147.526,1.791 149.317,0 151.526,0L181.525,0C183.735,0 185.525,1.791 185.525,4L185.525,228C185.525,230.21 183.735,232 181.525,232L153.159,232C151.833,232 150.593,231.342 149.849,230.246L45.309,76.129C43.097,72.868 37.999,74.434 37.999,78.375L37.999,228C37.999,230.21 36.208,232 33.999,232L4,232Z" fill="#F2F2F2" stroke="#F2F2F2" stroke-width="2" stroke-miterlimit="3.999327" stroke-linejoin="round"/>
<path d="M234.136,232C231.926,232 230.136,230.21 230.136,228L230.136,4C230.136,1.791 231.926,0 234.136,0L265.092,0C267.302,0 269.092,1.791 269.092,4L269.092,228C269.092,230.21 267.302,232 265.092,232L234.136,232Z" fill="#F2F2F2" stroke="#F2F2F2" stroke-width="2" stroke-miterlimit="3.999327" stroke-linejoin="round"/>
<path d="M317.708,232C315.498,232 313.708,230.21 313.708,228L313.708,4C313.708,1.791 315.498,0 317.708,0L348.664,0C350.874,0 352.664,1.791 352.664,4L352.664,93.134C352.664,96.803 357.192,98.536 359.642,95.805L444.396,1.329C445.154,0.483 446.236,0 447.372,0L483.162,0C486.634,0 488.458,4.123 486.12,6.692L395.65,106.139C394.27,107.657 394.26,109.973 395.632,111.501L497.72,225.33C500.03,227.904 498.202,232 494.744,232L453.788,232C452.634,232 451.538,231.502 450.778,230.636L359.674,126.617C357.242,123.839 352.664,125.56 352.664,129.252L352.664,228C352.664,230.21 350.874,232 348.664,232L317.708,232Z" fill="#F2F2F2" stroke="#F2F2F2" stroke-width="2" stroke-miterlimit="3.999327" stroke-linejoin="round"/>
<path d="M533.498,232C531.29,232 529.498,230.21 529.498,228L529.498,4C529.498,1.791 531.29,0 533.498,0L662.806,0C665.016,0 666.806,1.791 666.806,4L666.806,30.31C666.806,32.519 665.016,34.31 662.806,34.31L571.818,34.31C569.608,34.31 567.818,36.101 567.818,38.31L567.818,91.087C567.818,93.296 569.608,95.087 571.818,95.087L653.228,95.087C655.436,95.087 657.228,96.878 657.228,99.087L657.228,125.397C657.228,127.606 655.436,129.397 653.228,129.397L571.818,129.397C569.608,129.397 567.818,131.188 567.818,133.397L567.818,193.69C567.818,195.899 569.608,197.69 571.818,197.69L666,197.69C668.21,197.69 670,199.481 670,201.69L670,228C670,230.21 668.21,232 666,232L533.498,232Z" fill="#F2F2F2" stroke="#F2F2F2" stroke-width="2" stroke-miterlimit="3.999327" stroke-linejoin="round"/>
</svg>
