<svg width="40" height="36" viewBox="0 0 40 36" fill="none" xmlns="http://www.w3.org/2000/svg" xmlns:xlink="http://www.w3.org/1999/xlink">
<path d="M20,5.422L18.86,6.397C19.145,6.73 19.561,6.922 20,6.922C20.439,6.922 20.855,6.73 21.14,6.397L20,5.422ZM27.392,3.5C32.696,3.5 36.5,8.552 36.5,13.51L39.5,13.51C39.5,7.368 34.788,0.5 27.392,0.5L27.392,3.5ZM36.5,13.51C36.5,15.929 35.55,18.326 33.992,20.622C32.435,22.915 30.327,25.023 28.161,26.827C26,28.626 23.823,30.09 22.166,31.103C21.338,31.609 20.647,31.998 20.16,32.258C19.915,32.389 19.73,32.482 19.609,32.54C19.546,32.57 19.514,32.584 19.505,32.588C19.499,32.59 19.518,32.582 19.551,32.571C19.568,32.565 19.606,32.553 19.656,32.541C19.684,32.534 19.82,32.5 20,32.5L20,35.5C20.185,35.5 20.328,35.465 20.365,35.456C20.425,35.441 20.474,35.426 20.504,35.416C20.564,35.395 20.618,35.374 20.655,35.359C20.732,35.327 20.817,35.288 20.902,35.247C21.075,35.164 21.302,35.049 21.572,34.905C22.113,34.616 22.856,34.197 23.731,33.663C25.479,32.594 27.781,31.047 30.081,29.132C32.374,27.222 34.706,24.911 36.474,22.307C38.24,19.704 39.5,16.724 39.5,13.51L36.5,13.51ZM20,32.5C20.18,32.5 20.316,32.534 20.344,32.541C20.394,32.553 20.432,32.565 20.449,32.571C20.482,32.582 20.501,32.59 20.495,32.588C20.486,32.584 20.454,32.57 20.391,32.54C20.27,32.482 20.085,32.389 19.84,32.258C19.353,31.998 18.662,31.609 17.834,31.103C16.177,30.09 14,28.626 11.839,26.827C9.673,25.023 7.565,22.915 6.008,20.622C4.45,18.326 3.5,15.929 3.5,13.51L0.5,13.51C0.5,16.724 1.76,19.704 3.526,22.307C5.294,24.911 7.626,27.222 9.919,29.132C12.219,31.047 14.521,32.594 16.269,33.663C17.144,34.197 17.887,34.616 18.428,34.905C18.698,35.049 18.925,35.164 19.098,35.247C19.183,35.288 19.268,35.327 19.345,35.359C19.382,35.374 19.436,35.395 19.496,35.416C19.526,35.426 19.575,35.441 19.635,35.456C19.672,35.465 19.815,35.5 20,35.5L20,32.5ZM3.5,13.51C3.5,8.552 7.304,3.5 12.608,3.5L12.608,0.5C5.212,0.5 0.5,7.368 0.5,13.51L3.5,13.51ZM12.608,3.5C15.677,3.5 17.676,5.012 18.86,6.397L21.14,4.447C19.568,2.608 16.799,0.5 12.608,0.5L12.608,3.5ZM21.14,6.397C22.324,5.012 24.323,3.5 27.392,3.5L27.392,0.5C23.201,0.5 20.432,2.608 18.86,4.447L21.14,6.397Z" fill="#1A2530"/>
</svg>
