<svg width="28" height="24" viewBox="0 0 28 24" fill="none" xmlns="http://www.w3.org/2000/svg" xmlns:xlink="http://www.w3.org/1999/xlink">
<path d="M14,3.615L13.088,4.394C13.316,4.661 13.649,4.815 14,4.815C14.351,4.815 14.684,4.661 14.912,4.394L14,3.615ZM18.928,2.533C22.324,2.533 24.8,5.78 24.8,9.007L27.2,9.007C27.2,4.833 23.998,0.133 18.928,0.133L18.928,2.533ZM24.8,9.007C24.8,10.566 24.187,12.126 23.162,13.636C22.139,15.144 20.748,16.535 19.313,17.731C17.882,18.923 16.438,19.893 15.34,20.565C14.791,20.9 14.334,21.158 14.013,21.329C13.851,21.415 13.73,21.476 13.653,21.513C13.634,21.522 13.619,21.529 13.608,21.534C13.597,21.539 13.593,21.541 13.593,21.54C13.594,21.54 13.598,21.539 13.604,21.536C13.61,21.534 13.621,21.53 13.638,21.524C13.652,21.52 13.682,21.51 13.724,21.5C13.747,21.494 13.856,21.467 14,21.467L14,23.867C14.147,23.867 14.261,23.839 14.291,23.832C14.338,23.82 14.376,23.808 14.399,23.8C14.446,23.785 14.487,23.768 14.513,23.757C14.569,23.734 14.63,23.706 14.687,23.679C14.806,23.622 14.961,23.543 15.142,23.447C15.507,23.252 16.005,22.971 16.591,22.612C17.763,21.896 19.306,20.86 20.848,19.575C22.386,18.295 23.955,16.741 25.148,14.984C26.34,13.228 27.2,11.203 27.2,9.007L24.8,9.007ZM14,21.467C14.144,21.467 14.253,21.494 14.276,21.5C14.318,21.51 14.348,21.52 14.362,21.524C14.379,21.53 14.39,21.534 14.396,21.536C14.402,21.539 14.406,21.54 14.407,21.54C14.407,21.541 14.403,21.539 14.392,21.534C14.381,21.529 14.366,21.522 14.347,21.513C14.27,21.476 14.149,21.415 13.987,21.329C13.666,21.158 13.209,20.9 12.66,20.565C11.562,19.893 10.118,18.923 8.687,17.731C7.252,16.535 5.861,15.144 4.838,13.636C3.813,12.126 3.2,10.566 3.2,9.007L0.8,9.007C0.8,11.203 1.66,13.228 2.852,14.984C4.045,16.741 5.614,18.295 7.152,19.575C8.694,20.86 10.237,21.896 11.409,22.612C11.995,22.971 12.493,23.252 12.858,23.447C13.039,23.543 13.194,23.622 13.313,23.679C13.37,23.706 13.431,23.734 13.487,23.757C13.513,23.768 13.554,23.785 13.601,23.8C13.624,23.808 13.662,23.82 13.709,23.832C13.739,23.839 13.853,23.867 14,23.867L14,21.467ZM3.2,9.007C3.2,5.78 5.676,2.533 9.072,2.533L9.072,0.133C4.002,0.133 0.8,4.833 0.8,9.007L3.2,9.007ZM9.072,2.533C11.043,2.533 12.325,3.501 13.088,4.394L14.912,2.835C13.838,1.579 11.941,0.133 9.072,0.133L9.072,2.533ZM14.912,4.394C15.675,3.501 16.957,2.533 18.928,2.533L18.928,0.133C16.059,0.133 14.162,1.579 13.088,2.835L14.912,4.394Z" fill="#F87265"/>
</svg>
