<svg width="48" height="48" viewBox="0 0 48 48" fill="none" xmlns="http://www.w3.org/2000/svg" xmlns:xlink="http://www.w3.org/1999/xlink">
<path d="M12,7.5L36,7.5L36,4.5L12,4.5L12,7.5ZM42.5,14L42.5,34L45.5,34L45.5,14L42.5,14ZM36,40.5L12,40.5L12,43.5L36,43.5L36,40.5ZM5.5,34L5.5,14L2.5,14L2.5,34L5.5,34ZM12,40.5C8.41,40.5 5.5,37.59 5.5,34L2.5,34C2.5,39.247 6.753,43.5 12,43.5L12,40.5ZM42.5,34C42.5,37.59 39.59,40.5 36,40.5L36,43.5C41.247,43.5 45.5,39.247 45.5,34L42.5,34ZM36,7.5C39.59,7.5 42.5,10.41 42.5,14L45.5,14C45.5,8.753 41.247,4.5 36,4.5L36,7.5ZM12,4.5C6.753,4.5 2.5,8.753 2.5,14L5.5,14C5.5,10.41 8.41,7.5 12,7.5L12,4.5Z" transform="rotate(360 24 24)" fill="#707B81"/>
<path d="M16,18L17.5,18C17.5,17.172 16.828,16.5 16,16.5L16,18ZM16,30L16,31.5C16.828,31.5 17.5,30.828 17.5,30L16,30ZM10,19.5L16,19.5L16,16.5L10,16.5L10,19.5ZM14.5,18L14.5,30L17.5,30L17.5,18L14.5,18ZM16,28.5L10,28.5L10,31.5L16,31.5L16,28.5ZM10,28.5C7.515,28.5 5.5,26.485 5.5,24L2.5,24C2.5,28.142 5.858,31.5 10,31.5L10,28.5ZM10,16.5C5.858,16.5 2.5,19.858 2.5,24L5.5,24C5.5,21.515 7.515,19.5 10,19.5L10,16.5Z" transform="rotate(360 10 24)" fill="#707B81"/>
</svg>
