<svg width="174" height="170" viewBox="0 0 174 170" fill="none" xmlns="http://www.w3.org/2000/svg" xmlns:xlink="http://www.w3.org/1999/xlink">
<path d="M0,48C0,33.09 0,25.635 2.436,19.754C5.684,11.913 11.913,5.684 19.754,2.436C25.635,0 33.09,0 48,0L126,0C140.91,0 148.365,0 154.246,2.436C162.087,5.684 168.316,11.913 171.564,19.754C174,25.635 174,33.09 174,48L174,122C174,136.91 174,144.365 171.564,150.246C168.316,158.087 162.087,164.316 154.246,167.564C148.365,170 140.91,170 126,170L48,170C33.09,170 25.635,170 19.754,167.564C11.913,164.316 5.684,158.087 2.436,150.246C0,144.365 0,136.91 0,122L0,48Z" fill="#FFFFFF"/>
</svg>
