<svg width="112" height="112" viewBox="0 0 112 112" fill="none" xmlns="http://www.w3.org/2000/svg" xmlns:xlink="http://www.w3.org/1999/xlink">
<path d="M0,48C0,33.09 0,25.635 2.436,19.754C5.684,11.913 11.913,5.684 19.754,2.436C25.635,0 33.09,0 48,0L64,0C78.91,0 86.365,0 92.246,2.436C100.087,5.684 106.316,11.913 109.564,19.754C112,25.635 112,33.09 112,48L112,64C112,78.91 112,86.365 109.564,92.246C106.316,100.087 100.087,106.316 92.246,109.564C86.365,112 78.91,112 64,112L48,112C33.09,112 25.635,112 19.754,109.564C11.913,106.316 5.684,100.087 2.436,92.246C0,86.365 0,78.91 0,64L0,48Z" fill="#F8F9FA"/>
</svg>
