<svg width="316" height="442" viewBox="0 0 316 442" fill="none" xmlns="http://www.w3.org/2000/svg" xmlns:xlink="http://www.w3.org/1999/xlink">
<path d="M0,48C0,33.09 0,25.635 2.436,19.754C5.684,11.913 11.913,5.684 19.754,2.436C25.635,0 33.09,0 48,0L268,0C282.91,0 290.366,0 296.246,2.436C304.086,5.684 310.316,11.913 313.564,19.754C316,25.635 316,33.09 316,48L316,394C316,408.91 316,416.366 313.564,422.246C310.316,430.086 304.086,436.316 296.246,439.564C290.366,442 282.91,442 268,442L48,442C33.09,442 25.635,442 19.754,439.564C11.913,436.316 5.684,430.086 2.436,422.246C0,416.366 0,408.91 0,394L0,48Z" fill="#FFFFFF"/>
</svg>
