<svg width="50" height="24" viewBox="0 0 50 24" fill="none" xmlns="http://www.w3.org/2000/svg" xmlns:xlink="http://www.w3.org/1999/xlink">
<path d="M7.179,0L36.821,0C39.317,0 40.223,0.26 41.135,0.748C42.048,1.236 42.764,1.952 43.252,2.865C43.74,3.777 44,4.683 44,7.179L44,15.821C44,18.317 43.74,19.223 43.252,20.135C42.764,21.048 42.048,21.764 41.135,22.252C40.223,22.74 39.317,23 36.821,23L7.179,23C4.683,23 3.777,22.74 2.865,22.252C1.952,21.764 1.236,21.048 0.748,20.135C0.26,19.223 0,18.317 0,15.821L0,7.179C0,4.683 0.26,3.777 0.748,2.865C1.236,1.952 1.952,1.236 2.865,0.748C3.777,0.26 4.683,0 7.179,0ZM7.179,2C5.205,2 4.516,2.133 3.808,2.512C3.244,2.813 2.813,3.244 2.512,3.808C2.133,4.516 2,5.205 2,7.179L2,15.821C2,17.795 2.133,18.484 2.512,19.192C2.813,19.756 3.244,20.187 3.808,20.488C4.516,20.867 5.205,21 7.179,21L36.821,21C38.795,21 39.484,20.867 40.192,20.488C40.756,20.187 41.187,19.756 41.488,19.192C41.867,18.484 42,17.795 42,15.821L42,7.179C42,5.205 41.867,4.516 41.488,3.808C41.187,3.244 40.756,2.813 40.192,2.512C39.484,2.133 38.795,2 36.821,2L7.179,2ZM49,11.38C49,13.853 46,15.38 46,15.38L46,7.38C46,7.38 49,8.907 49,11.38Z" clip-rule="evenodd" fill-rule="evenodd" fill="#F8F9FA"/>
</svg>
