<svg width="34" height="34" viewBox="0 0 34 34" fill="none" xmlns="http://www.w3.org/2000/svg" xmlns:xlink="http://www.w3.org/1999/xlink">
<path d="M21,22.667L20.706,24.138C21.369,24.27 22.039,23.943 22.342,23.337L21,22.667ZM9.333,11L8.663,9.658C8.057,9.961 7.73,10.631 7.862,11.294L9.333,11ZM9.923,10.705L10.594,12.047L10.594,12.047L9.923,10.705ZM11.528,6.486L12.92,5.928L12.92,5.928L11.528,6.486ZM10.171,3.095L8.779,3.652L8.779,3.652L10.171,3.095ZM28.905,21.829L29.462,20.436L29.462,20.436L28.905,21.829ZM25.514,20.472L26.071,19.08L26.071,19.08L25.514,20.472ZM21.295,22.077L22.637,22.747L22.637,22.747L21.295,22.077ZM29.5,24.923L29.5,27.667L32.5,27.667L32.5,24.923L29.5,24.923ZM4.333,2.5L7.077,2.5L7.077,-0.5L4.333,-0.5L4.333,2.5ZM21,22.667C21.294,21.196 21.295,21.196 21.295,21.196C21.295,21.196 21.296,21.196 21.296,21.196C21.296,21.196 21.297,21.196 21.297,21.196C21.298,21.196 21.298,21.197 21.298,21.197C21.299,21.197 21.298,21.197 21.296,21.196C21.293,21.196 21.286,21.194 21.276,21.192C21.254,21.187 21.218,21.179 21.169,21.167C21.07,21.143 20.917,21.103 20.72,21.045C20.325,20.929 19.757,20.74 19.091,20.455C17.751,19.88 16.055,18.933 14.561,17.439L12.439,19.561C14.279,21.4 16.333,22.536 17.909,23.212C18.701,23.551 19.383,23.779 19.874,23.923C20.119,23.996 20.318,24.047 20.46,24.082C20.531,24.099 20.588,24.112 20.629,24.121C20.65,24.126 20.667,24.129 20.679,24.132C20.686,24.133 20.691,24.135 20.696,24.135C20.698,24.136 20.7,24.136 20.702,24.137C20.702,24.137 20.703,24.137 20.704,24.137C20.704,24.137 20.705,24.137 20.705,24.137C20.705,24.137 20.706,24.138 21,22.667ZM14.561,17.439C13.067,15.946 12.12,14.249 11.545,12.909C11.26,12.243 11.071,11.675 10.955,11.28C10.897,11.083 10.857,10.93 10.833,10.831C10.821,10.782 10.813,10.746 10.808,10.724C10.806,10.714 10.804,10.707 10.804,10.704C10.803,10.702 10.803,10.701 10.803,10.702C10.803,10.702 10.803,10.702 10.804,10.703C10.804,10.703 10.804,10.704 10.804,10.704C10.804,10.704 10.804,10.705 10.804,10.705C10.804,10.705 10.804,10.706 9.333,11C7.862,11.294 7.863,11.295 7.863,11.295C7.863,11.295 7.863,11.296 7.863,11.296C7.863,11.297 7.863,11.298 7.863,11.298C7.864,11.3 7.864,11.302 7.865,11.304C7.865,11.309 7.867,11.314 7.868,11.321C7.871,11.333 7.874,11.35 7.879,11.371C7.888,11.412 7.901,11.469 7.918,11.54C7.953,11.682 8.004,11.881 8.077,12.126C8.221,12.617 8.449,13.299 8.788,14.091C9.464,15.668 10.6,17.721 12.439,19.561L14.561,17.439ZM10.004,12.342L10.594,12.047L9.253,9.363L8.663,9.658L10.004,12.342ZM12.92,5.928L11.564,2.538L8.779,3.652L10.135,7.043L12.92,5.928ZM29.462,20.436L26.071,19.08L24.957,21.865L28.348,23.221L29.462,20.436ZM19.953,21.406L19.658,21.996L22.342,23.337L22.637,22.747L19.953,21.406ZM26.071,19.08C23.738,18.146 21.078,19.157 19.953,21.406L22.637,22.747C23.063,21.895 24.072,21.511 24.957,21.865L26.071,19.08ZM10.594,12.047C12.843,10.922 13.854,8.262 12.92,5.928L10.135,7.043C10.489,7.928 10.105,8.937 9.253,9.363L10.594,12.047ZM7.077,2.5C7.826,2.5 8.5,2.956 8.779,3.652L11.564,2.538C10.83,0.703 9.053,-0.5 7.077,-0.5L7.077,2.5ZM32.5,24.923C32.5,22.947 31.297,21.17 29.462,20.436L28.348,23.221C29.044,23.5 29.5,24.174 29.5,24.923L32.5,24.923ZM27.667,29.5C13.767,29.5 2.5,18.233 2.5,4.333L-0.5,4.333C-0.5,19.889 12.111,32.5 27.667,32.5L27.667,29.5ZM27.667,32.5C30.336,32.5 32.5,30.336 32.5,27.667L29.5,27.667C29.5,28.679 28.679,29.5 27.667,29.5L27.667,32.5ZM2.5,4.333C2.5,3.321 3.321,2.5 4.333,2.5L4.333,-0.5C1.664,-0.5 -0.5,1.664 -0.5,4.333L2.5,4.333Z" fill="#1A2530"/>
</svg>
