<svg width="318" height="442" viewBox="0 0 318 442" fill="none" xmlns="http://www.w3.org/2000/svg" xmlns:xlink="http://www.w3.org/1999/xlink">
<path d="M0,48C0,33.09 0,25.635 2.436,19.754C5.684,11.913 11.913,5.684 19.754,2.436C25.635,0 33.09,0 48,0L270,0C284.91,0 292.366,0 298.246,2.436C306.086,5.684 312.316,11.913 315.564,19.754C318,25.635 318,33.09 318,48L318,394C318,408.91 318,416.366 315.564,422.246C312.316,430.086 306.086,436.316 298.246,439.564C292.366,442 284.91,442 270,442L48,442C33.09,442 25.635,442 19.754,439.564C11.913,436.316 5.684,430.086 2.436,422.246C0,416.366 0,408.91 0,394L0,48Z" fill="#FFFFFF"/>
</svg>
