<svg width="48" height="48" viewBox="0 0 48 48" fill="none" xmlns="http://www.w3.org/2000/svg" xmlns:xlink="http://www.w3.org/1999/xlink">
<path d="M4,2.5C3.172,2.5 2.5,3.172 2.5,4C2.5,4.828 3.172,5.5 4,5.5L4,2.5ZM12,9.5L36,9.5L36,6.5L12,6.5L12,9.5ZM42.5,16L42.5,26L45.5,26L45.5,16L42.5,16ZM36,32.5L20,32.5L20,35.5L36,35.5L36,32.5ZM13.5,26L13.5,8L10.5,8L10.5,26L13.5,26ZM8,2.5L4,2.5L4,5.5L8,5.5L8,2.5ZM13.5,8C13.5,4.962 11.038,2.5 8,2.5L8,5.5C9.381,5.5 10.5,6.619 10.5,8L13.5,8ZM20,32.5C16.41,32.5 13.5,29.59 13.5,26L10.5,26C10.5,31.247 14.753,35.5 20,35.5L20,32.5ZM42.5,26C42.5,29.59 39.59,32.5 36,32.5L36,35.5C41.247,35.5 45.5,31.247 45.5,26L42.5,26ZM36,9.5C39.59,9.5 42.5,12.41 42.5,16L45.5,16C45.5,10.753 41.247,6.5 36,6.5L36,9.5Z" fill="#707B81"/>
<path d="M20.5,41C20.5,41.828 19.828,42.5 19,42.5L19,45.5C21.485,45.5 23.5,43.485 23.5,41L20.5,41ZM19,42.5C18.172,42.5 17.5,41.828 17.5,41L14.5,41C14.5,43.485 16.515,45.5 19,45.5L19,42.5ZM17.5,41C17.5,40.172 18.172,39.5 19,39.5L19,36.5C16.515,36.5 14.5,38.515 14.5,41L17.5,41ZM19,39.5C19.828,39.5 20.5,40.172 20.5,41L23.5,41C23.5,38.515 21.485,36.5 19,36.5L19,39.5Z" fill="#707B81"/>
<path d="M38.5,41C38.5,41.828 37.828,42.5 37,42.5L37,45.5C39.485,45.5 41.5,43.485 41.5,41L38.5,41ZM37,42.5C36.172,42.5 35.5,41.828 35.5,41L32.5,41C32.5,43.485 34.515,45.5 37,45.5L37,42.5ZM35.5,41C35.5,40.172 36.172,39.5 37,39.5L37,36.5C34.515,36.5 32.5,38.515 32.5,41L35.5,41ZM37,39.5C37.828,39.5 38.5,40.172 38.5,41L41.5,41C41.5,38.515 39.485,36.5 37,36.5L37,39.5Z" fill="#707B81"/>
<path d="M22.742,22.696C22.022,22.287 21.106,22.538 20.696,23.258C20.287,23.978 20.538,24.894 21.258,25.304L22.742,22.696ZM34.737,25.307C35.458,24.9 35.713,23.985 35.307,23.263C34.9,22.542 33.985,22.287 33.263,22.693L34.737,25.307ZM21.258,25.304C23.698,26.692 25.796,27.504 28.006,27.5C30.213,27.496 32.306,26.677 34.737,25.307L33.263,22.693C30.989,23.976 29.438,24.497 28,24.5C26.564,24.503 25.014,23.989 22.742,22.696L21.258,25.304Z" fill="#707B81"/>
</svg>
