<svg width="48" height="34" viewBox="0 0 48 34" fill="none" xmlns="http://www.w3.org/2000/svg" xmlns:xlink="http://www.w3.org/1999/xlink">
<path d="M22.429,11.05C21.843,10.464 21.843,9.515 22.429,8.929C23.015,8.343 23.964,8.343 24.55,8.929L29.5,13.879L34.45,8.929C35.035,8.343 35.985,8.343 36.571,8.929C37.157,9.515 37.157,10.464 36.571,11.05L31.621,16L36.571,20.95C37.157,21.536 37.157,22.485 36.571,23.071C35.985,23.657 35.035,23.657 34.45,23.071L29.5,18.121L24.55,23.071C23.964,23.657 23.015,23.657 22.429,23.071C21.843,22.485 21.843,21.536 22.429,20.95L27.379,16L22.429,11.05Z" fill="#000000"/>
<path d="M16.243,0.757L1,16L16.243,31.243C17.368,32.368 18.894,33 20.485,33L41,33C44.314,33 47,30.314 47,27L47,5C47,1.686 44.314,-1 41,-1L20.485,-1C18.894,-1 17.368,-0.368 16.243,0.757ZM41,30.4L20.485,30.4C19.584,30.4 18.719,30.042 18.081,29.404L4.677,16L18.081,2.596C18.719,1.958 19.584,1.6 20.485,1.6L41,1.6C42.878,1.6 44.4,3.122 44.4,5L44.4,27C44.4,28.878 42.878,30.4 41,30.4Z" clip-rule="evenodd" fill-rule="evenodd" fill="#000000"/>
</svg>
