<svg width="48" height="48" viewBox="0 0 48 48" fill="none" xmlns="http://www.w3.org/2000/svg" xmlns:xlink="http://www.w3.org/1999/xlink">
<path d="M14.771,31.392C12.397,32.579 11.5,33.941 11.5,35C11.5,36.059 12.397,37.421 14.771,38.608C17.056,39.75 20.316,40.5 24,40.5C27.684,40.5 30.944,39.75 33.229,38.608C35.603,37.421 36.5,36.059 36.5,35C36.5,33.941 35.603,32.579 33.229,31.392C30.944,30.25 27.684,29.5 24,29.5C20.316,29.5 17.056,30.25 14.771,31.392ZM13.43,28.709C16.212,27.317 19.952,26.5 24,26.5C28.048,26.5 31.788,27.317 34.57,28.709C37.263,30.055 39.5,32.193 39.5,35C39.5,37.807 37.263,39.945 34.57,41.291C31.788,42.683 28.048,43.5 24,43.5C19.952,43.5 16.212,42.683 13.43,41.291C10.737,39.945 8.5,37.807 8.5,35C8.5,32.193 10.737,30.055 13.43,28.709Z" clip-rule="evenodd" fill-rule="evenodd" fill="#707B81"/>
<path d="M24,7.5C20.41,7.5 17.5,10.41 17.5,14C17.5,17.59 20.41,20.5 24,20.5C27.59,20.5 30.5,17.59 30.5,14C30.5,10.41 27.59,7.5 24,7.5ZM14.5,14C14.5,8.753 18.753,4.5 24,4.5C29.247,4.5 33.5,8.753 33.5,14C33.5,19.247 29.247,23.5 24,23.5C18.753,23.5 14.5,19.247 14.5,14Z" clip-rule="evenodd" fill-rule="evenodd" fill="#707B81"/>
</svg>
