<svg width="40" height="44" viewBox="0 0 40 44" fill="none" xmlns="http://www.w3.org/2000/svg" xmlns:xlink="http://www.w3.org/1999/xlink">
<path d="M6.5,14C6.5,13.172 5.828,12.5 5,12.5C4.172,12.5 3.5,13.172 3.5,14L6.5,14ZM34.5,14C34.5,13.172 33.828,12.5 33,12.5C32.172,12.5 31.5,13.172 31.5,14L34.5,14ZM24.5,20C24.5,19.172 23.828,18.5 23,18.5C22.172,18.5 21.5,19.172 21.5,20L24.5,20ZM21.5,32C21.5,32.828 22.172,33.5 23,33.5C23.828,33.5 24.5,32.828 24.5,32L21.5,32ZM16.5,20C16.5,19.172 15.828,18.5 15,18.5C14.172,18.5 13.5,19.172 13.5,20L16.5,20ZM13.5,32C13.5,32.828 14.172,33.5 15,33.5C15.828,33.5 16.5,32.828 16.5,32L13.5,32ZM24.187,3.781L22.939,4.613L22.939,4.613L24.187,3.781ZM13.813,3.781L15.061,4.613L15.061,4.613L13.813,3.781ZM37,9.5C37.828,9.5 38.5,8.828 38.5,8C38.5,7.172 37.828,6.5 37,6.5L37,9.5ZM1,6.5C0.172,6.5 -0.5,7.172 -0.5,8C-0.5,8.828 0.172,9.5 1,9.5L1,6.5ZM3.5,14L3.5,34L6.5,34L6.5,14L3.5,14ZM3.5,34C3.5,39.247 7.753,43.5 13,43.5L13,40.5C9.41,40.5 6.5,37.59 6.5,34L3.5,34ZM13,43.5L25,43.5L25,40.5L13,40.5L13,43.5ZM25,43.5C30.247,43.5 34.5,39.247 34.5,34L31.5,34C31.5,37.59 28.59,40.5 25,40.5L25,43.5ZM34.5,34L34.5,14L31.5,14L31.5,34L34.5,34ZM21.5,20L21.5,32L24.5,32L24.5,20L21.5,20ZM13.5,20L13.5,32L16.5,32L16.5,20L13.5,20ZM28.248,7.168L25.435,2.949L22.939,4.613L25.752,8.832L28.248,7.168ZM25.436,2.949C24.415,1.419 22.698,0.5 20.859,0.5L20.859,3.5C21.695,3.5 22.476,3.918 22.939,4.613L25.436,2.949ZM20.859,0.5L17.141,0.5L17.141,3.5L20.859,3.5L20.859,0.5ZM17.141,0.5C15.302,0.5 13.585,1.419 12.564,2.949L15.061,4.613C15.524,3.918 16.305,3.5 17.141,3.5L17.141,0.5ZM12.564,2.949L9.752,7.168L12.248,8.832L15.061,4.613L12.564,2.949ZM27,6.5L11,6.5L11,9.5L27,9.5L27,6.5ZM27,9.5L37,9.5L37,6.5L27,6.5L27,9.5ZM11,6.5L1,6.5L1,9.5L11,9.5L11,6.5Z" fill="#F87265"/>
</svg>
