<svg width="10" height="16" viewBox="0 0 10 16" fill="none" xmlns="http://www.w3.org/2000/svg" xmlns:xlink="http://www.w3.org/1999/xlink">
<path d="M2,10L0.5,10C0.5,10.502 0.751,10.97 1.168,11.248L2,10ZM3.5,0.833C3.5,0.005 2.828,-0.667 2,-0.667C1.172,-0.667 0.5,0.005 0.5,0.833L3.5,0.833ZM6.668,14.915C7.357,15.374 8.289,15.188 8.748,14.499C9.208,13.809 9.021,12.878 8.332,12.419L6.668,14.915ZM3.5,10L3.5,0.833L0.5,0.833L0.5,10L3.5,10ZM1.168,11.248L6.668,14.915L8.332,12.419L2.832,8.752L1.168,11.248Z" fill="#707B81"/>
</svg>
