<svg width="16" height="6" viewBox="0 0 16 6" fill="none" xmlns="http://www.w3.org/2000/svg" xmlns:xlink="http://www.w3.org/1999/xlink">
<path d="M1.742,-0.304C1.022,-0.713 0.106,-0.462 -0.304,0.258C-0.713,0.978 -0.462,1.894 0.258,2.304L1.742,-0.304ZM13.737,2.307C14.458,1.9 14.713,0.985 14.307,0.263C13.9,-0.458 12.985,-0.713 12.263,-0.307L13.737,2.307ZM0.258,2.304C2.698,3.692 4.796,4.504 7.006,4.5C9.213,4.496 11.306,3.677 13.737,2.307L12.263,-0.307C9.989,0.976 8.438,1.497 7,1.5C5.564,1.503 4.014,0.989 1.742,-0.304L0.258,2.304Z" fill="#707B81"/>
</svg>
