<svg width="30" height="30" viewBox="0 0 30 30" fill="none" xmlns="http://www.w3.org/2000/svg" xmlns:xlink="http://www.w3.org/1999/xlink">
<path d="M5,11C7.761,11 10,8.761 10,6C10,3.239 7.761,1 5,1C2.239,1 0,3.239 0,6C0,8.761 2.239,11 5,11ZM25,29C27.761,29 30,26.761 30,24C30,21.239 27.761,19 25,19C22.239,19 20,21.239 20,24C20,26.761 22.239,29 25,29ZM10,24C10,26.761 7.761,29 5,29C2.239,29 0,26.761 0,24C0,21.239 2.239,19 5,19C7.761,19 10,21.239 10,24ZM25,11C27.761,11 30,8.761 30,6C30,3.239 27.761,1 25,1C22.239,1 20,3.239 20,6C20,8.761 22.239,11 25,11Z" clip-rule="evenodd" fill-rule="evenodd" fill="#1A2530"/>
</svg>
