<svg width="34" height="34" viewBox="0 0 34 34" fill="none" xmlns="http://www.w3.org/2000/svg" xmlns:xlink="http://www.w3.org/1999/xlink">
<path d="M2,30.6C1.227,30.6 0.6,31.227 0.6,32C0.6,32.773 1.227,33.4 2,33.4L2,30.6ZM32,33.4C32.773,33.4 33.4,32.773 33.4,32C33.4,31.227 32.773,30.6 32,30.6L32,33.4ZM21.374,5.853C21.374,5.08 20.747,4.453 19.974,4.453C19.201,4.453 18.574,5.08 18.574,5.853L21.374,5.853ZM28.147,15.426C28.92,15.426 29.547,14.799 29.547,14.026C29.547,13.253 28.92,12.626 28.147,12.626L28.147,15.426ZM9.199,26.98L9.397,28.366L9.397,28.366L9.199,26.98ZM14.921,26.163L14.723,24.777L14.723,24.777L14.921,26.163ZM17.1,25.073L16.11,24.083L16.11,24.083L17.1,25.073ZM30.872,11.302L31.862,12.292L31.862,12.292L30.872,11.302ZM30.872,5.853L31.862,4.863L31.862,4.863L30.872,5.853ZM28.147,3.128L27.157,4.118L27.157,4.118L28.147,3.128ZM22.698,3.128L23.688,4.118L23.688,4.118L22.698,3.128ZM8.927,16.9L9.917,17.89L9.917,17.89L8.927,16.9ZM7.837,19.079L6.451,18.881L6.451,18.881L7.837,19.079ZM7.02,24.801L5.634,24.603L5.634,24.603L7.02,24.801ZM2,33.4L32,33.4L32,30.6L2,30.6L2,33.4ZM19.974,5.853C18.574,5.853 18.574,5.854 18.574,5.854C18.574,5.854 18.574,5.855 18.574,5.856C18.574,5.857 18.574,5.858 18.574,5.859C18.574,5.861 18.574,5.863 18.574,5.866C18.574,5.871 18.574,5.877 18.574,5.883C18.574,5.896 18.575,5.911 18.575,5.929C18.577,5.965 18.579,6.012 18.582,6.068C18.59,6.181 18.604,6.333 18.631,6.519C18.684,6.891 18.787,7.399 18.986,7.998C19.387,9.202 20.175,10.758 21.708,12.292L23.688,10.312C22.497,9.12 21.923,7.953 21.643,7.113C21.502,6.69 21.435,6.348 21.403,6.123C21.386,6.011 21.379,5.929 21.376,5.882C21.375,5.859 21.374,5.844 21.374,5.839C21.374,5.836 21.374,5.836 21.374,5.839C21.374,5.84 21.374,5.841 21.374,5.844C21.374,5.845 21.374,5.846 21.374,5.848C21.374,5.849 21.374,5.849 21.374,5.85C21.374,5.851 21.374,5.851 21.374,5.852C21.374,5.852 21.374,5.853 19.974,5.853ZM21.708,12.292C23.242,13.825 24.798,14.613 26.002,15.014C26.601,15.213 27.109,15.316 27.481,15.369C27.667,15.396 27.819,15.41 27.932,15.418C27.988,15.421 28.035,15.423 28.071,15.425C28.089,15.425 28.104,15.426 28.117,15.426C28.123,15.426 28.129,15.426 28.134,15.426C28.137,15.426 28.139,15.426 28.141,15.426C28.142,15.426 28.143,15.426 28.144,15.426C28.145,15.426 28.146,15.426 28.146,15.426C28.147,15.426 28.147,15.426 28.147,14.026C28.147,12.626 28.148,12.626 28.149,12.626C28.149,12.626 28.149,12.626 28.15,12.626C28.151,12.626 28.151,12.626 28.152,12.626C28.154,12.626 28.155,12.626 28.156,12.626C28.159,12.626 28.16,12.626 28.162,12.626C28.164,12.626 28.164,12.626 28.161,12.626C28.156,12.626 28.141,12.625 28.118,12.624C28.071,12.621 27.989,12.613 27.877,12.597C27.653,12.565 27.31,12.498 26.887,12.357C26.047,12.077 24.88,11.503 23.688,10.312L21.708,12.292ZM9.397,28.366L15.119,27.549L14.723,24.777L9.001,25.594L9.397,28.366ZM15.118,27.549C16.244,27.388 17.286,26.867 18.09,26.063L16.11,24.083C15.735,24.458 15.248,24.702 14.723,24.777L15.118,27.549ZM18.09,26.063L31.862,12.292L29.882,10.312L16.11,24.083L18.09,26.063ZM31.862,12.292C33.913,10.24 33.913,6.914 31.862,4.863L29.882,6.843C30.84,7.801 30.84,9.354 29.882,10.312L31.862,12.292ZM31.862,4.863L29.137,2.139L27.157,4.118L29.882,6.843L31.862,4.863ZM29.137,2.139C27.086,0.087 23.76,0.087 21.708,2.139L23.688,4.118C24.646,3.161 26.199,3.161 27.157,4.118L29.137,2.139ZM21.708,2.139L7.937,15.91L9.917,17.89L23.688,4.118L21.708,2.139ZM7.937,15.91C7.133,16.714 6.612,17.756 6.451,18.881L9.223,19.277C9.298,18.752 9.542,18.265 9.917,17.89L7.937,15.91ZM6.451,18.881L5.634,24.603L8.406,24.999L9.223,19.277L6.451,18.881ZM5.634,24.603C5.32,26.798 7.202,28.68 9.397,28.366L9.001,25.594C8.654,25.644 8.356,25.346 8.406,24.999L5.634,24.603Z" fill="#707B81"/>
</svg>
