<svg width="44" height="36" viewBox="0 0 44 36" fill="none" xmlns="http://www.w3.org/2000/svg" xmlns:xlink="http://www.w3.org/1999/xlink">
<path d="M7.061,0.939C6.475,0.354 5.525,0.354 4.939,0.939C4.354,1.525 4.354,2.475 4.939,3.061L7.061,0.939ZM36.94,35.061C37.525,35.646 38.475,35.646 39.061,35.061C39.647,34.475 39.647,33.525 39.061,32.939L36.94,35.061ZM27.001,23.59C27.618,23.037 27.67,22.089 27.118,21.472C26.565,20.855 25.617,20.802 25,21.355L27.001,23.59ZM18.646,15C19.198,14.383 19.146,13.435 18.528,12.882C17.911,12.33 16.963,12.382 16.41,13L18.646,15ZM3.74,22.294L2.652,23.327L2.652,23.327L3.74,22.294ZM40.261,13.706L41.348,12.673L41.348,12.673L40.261,13.706ZM40.261,22.294L41.348,23.327L41.348,23.327L40.261,22.294ZM3.74,13.706L2.652,12.673L2.652,12.673L3.74,13.706ZM36.231,24.084C35.606,24.628 35.54,25.576 36.084,26.2C36.628,26.825 37.576,26.891 38.201,26.347L36.231,24.084ZM16.377,3.394C15.586,3.642 15.146,4.484 15.394,5.274C15.642,6.065 16.484,6.504 17.274,6.257L16.377,3.394ZM11.807,8.871C12.506,8.425 12.71,7.498 12.264,6.8C11.819,6.101 10.891,5.897 10.193,6.342L11.807,8.871ZM33.103,30.094C33.813,29.667 34.042,28.745 33.615,28.035C33.188,27.326 32.266,27.096 31.557,27.524L33.103,30.094ZM4.939,3.061L36.94,35.061L39.061,32.939L7.061,0.939L4.939,3.061ZM14.5,18C14.5,22.142 17.858,25.5 22,25.5L22,22.5C19.515,22.5 17.5,20.485 17.5,18L14.5,18ZM22,25.5C23.92,25.5 25.675,24.777 27.001,23.59L25,21.355C24.203,22.068 23.154,22.5 22,22.5L22,25.5ZM16.41,13C15.224,14.326 14.5,16.08 14.5,18L17.5,18C17.5,16.847 17.932,15.797 18.646,15L16.41,13ZM2.652,23.327C6.596,27.476 13.698,33.5 22,33.5L22,30.5C15.04,30.5 8.707,25.343 4.827,21.26L2.652,23.327ZM41.348,12.673C37.405,8.524 30.302,2.5 22,2.5L22,5.5C28.96,5.5 35.294,10.657 39.174,14.74L41.348,12.673ZM41.348,23.327C44.218,20.308 44.218,15.692 41.348,12.673L39.174,14.74C40.942,16.601 40.942,19.399 39.174,21.26L41.348,23.327ZM4.827,21.26C3.058,19.399 3.058,16.601 4.827,14.74L2.652,12.673C-0.217,15.692 -0.217,20.308 2.652,23.327L4.827,21.26ZM38.201,26.347C39.384,25.316 40.441,24.282 41.348,23.327L39.174,21.26C38.321,22.158 37.333,23.125 36.231,24.084L38.201,26.347ZM22,2.5C20.045,2.5 18.16,2.835 16.377,3.394L17.274,6.257C18.809,5.776 20.39,5.5 22,5.5L22,2.5ZM10.193,6.342C7.141,8.291 4.56,10.665 2.652,12.673L4.827,14.74C6.63,12.842 9.025,10.647 11.807,8.871L10.193,6.342ZM22,33.5C26.095,33.5 29.881,32.033 33.103,30.094L31.557,27.524C28.626,29.287 25.377,30.5 22,30.5L22,33.5Z" fill="#1A2530"/>
</svg>
