<svg width="56" height="34" viewBox="0 0 56 34" fill="none" xmlns="http://www.w3.org/2000/svg" xmlns:xlink="http://www.w3.org/1999/xlink">
<path d="M40.229,12.966C44.679,11.008 47.585,8.068 47.743,4.807C47.743,4.807 46.568,3.902 42.775,2.506C39.445,1.28 36.904,1 36.904,1L36.915,8.267C36.915,9.352 36.479,10.461 35.656,11.442C33.139,10.834 30.357,10.493 27.438,10.492C24.518,10.493 21.73,10.835 19.21,11.444C18.387,10.462 17.95,9.353 17.95,8.267L17.961,1C17.961,1 15.422,1.28 12.089,2.506C8.296,3.902 7.123,4.807 7.123,4.807C7.281,8.069 10.187,11.01 14.642,12.967C10.191,14.925 7.286,17.865 7.128,21.125C7.128,21.125 8.302,22.031 12.095,23.426C15.427,24.651 17.967,24.932 17.967,24.932L17.955,17.665C17.955,16.58 18.391,15.47 19.215,14.49C21.732,15.099 24.514,15.439 27.432,15.439C30.354,15.439 33.141,15.098 35.66,14.487C36.483,15.468 36.919,16.58 36.919,17.665L36.909,24.932C36.909,24.932 39.449,24.651 42.781,23.426C46.574,22.031 47.748,21.125 47.748,21.125C47.59,17.863 44.683,14.922 40.229,12.966ZM27.434,14.601L27.431,14.601L27.348,14.599C24.713,14.599 22.565,13.954 20.99,12.967C22.565,11.979 24.714,11.333 27.354,11.333L27.435,11.332L27.439,11.332L27.522,11.333C30.158,11.333 32.305,11.978 33.881,12.964C32.305,13.952 30.156,14.598 27.517,14.598L27.434,14.601ZM1.299,32.982C0.023,32.982 0,32.009 0,31.634L0,29.863C0,29.755 -0.009,29.613 0.219,29.613L0.879,29.613C1.093,29.613 1.079,29.765 1.079,29.863L1.079,31.634C1.079,31.76 1.102,32.098 1.567,32.098L2.673,32.098C3.128,32.098 3.155,31.76 3.155,31.634L3.155,29.863C3.155,29.765 3.142,29.613 3.355,29.613L4.02,29.613C4.261,29.613 4.24,29.765 4.24,29.863L4.24,31.634C4.24,32.009 4.217,32.982 2.936,32.982L1.299,32.982ZM7.412,32.769C6.961,32.162 6.318,31.398 5.663,30.59L5.663,32.746C5.663,32.84 5.686,32.983 5.462,32.983L4.846,32.983C4.624,32.983 4.65,32.84 4.65,32.746L4.65,29.863C4.65,29.765 4.64,29.613 4.847,29.613L6.047,29.613C6.386,29.613 6.869,30.296 7.185,30.747C7.43,31.091 7.881,31.608 8.184,31.996L8.184,29.863C8.184,29.765 8.17,29.613 8.394,29.613L9.063,29.613C9.278,29.613 9.264,29.765 9.264,29.863L9.264,32.983L8.033,32.983C7.769,32.983 7.652,33 7.412,32.769ZM12.485,32.096C13.025,32.096 12.986,31.578 12.986,31.342C12.986,30.547 12.762,30.516 12.405,30.516L10.709,30.516L10.709,32.096L12.485,32.096ZM9.669,32.984L9.669,29.619L12.643,29.619C12.824,29.619 14.042,29.597 14.042,30.877C14.042,32.185 14.185,32.984 12.669,32.984L11.066,32.984L10.718,32.279L10.718,32.984L9.669,32.984ZM15.207,29.64L17.947,29.64C18.179,29.64 18.148,29.792 18.148,30.073C18.148,30.335 18.183,30.483 17.947,30.483L15.782,30.483C15.724,30.483 15.529,30.452 15.529,30.657C15.529,30.862 15.489,30.943 15.707,30.943L17.621,30.943C17.621,30.943 17.898,31.47 17.929,31.559C17.974,31.639 17.969,31.715 17.8,31.715L15.818,31.715L15.51,31.117L15.51,32C15.51,32.206 15.694,32.166 15.747,32.166L17.996,32.166C18.219,32.166 18.201,32.321 18.201,32.575C18.201,32.849 18.219,32.999 17.996,32.999L15.148,32.999C14.912,32.999 14.449,32.928 14.449,32.188L14.449,30.331C14.449,30.14 14.551,29.64 15.207,29.64ZM21.274,30.506L19.94,30.506C19.718,30.506 19.726,30.583 19.726,30.65L19.726,31.252L21.1,31.252C21.766,31.252 21.766,31.086 21.766,30.912C21.766,30.564 21.739,30.506 21.274,30.506ZM18.888,29.618L21.886,29.618C22.288,29.618 22.871,29.614 22.871,30.698C22.871,31.407 22.721,31.443 22.399,31.662C22.94,31.755 22.868,32.446 22.868,32.804C22.868,32.987 22.802,32.983 22.747,32.983L21.868,32.983C21.685,32.983 21.73,32.693 21.73,32.541C21.73,32.126 21.498,32.144 21.408,32.144L20.114,32.144C19.99,31.929 19.749,31.448 19.749,31.448L19.749,32.844C19.749,32.965 19.627,32.983 19.583,32.983L18.701,32.983C18.749,32.983 18.61,32.992 18.61,32.871L18.61,29.908C18.61,29.698 18.758,29.618 18.888,29.618ZM27.677,30.572L27.124,31.581L27.173,31.63L28.204,31.63L28.258,31.581C28.222,31.505 27.776,30.657 27.731,30.567L27.677,30.572ZM28.034,29.641C28.253,29.641 28.466,29.739 28.699,30.189C28.856,30.51 29.945,32.477 30.171,32.889L30.171,33L29.038,33L28.711,32.41L27.333,32.41C27.333,32.41 27.102,31.88 27.035,31.733C26.95,31.871 26.495,32.737 26.337,33L25.201,33L25.201,32.929C25.432,32.492 27.017,29.641 27.017,29.641L28.034,29.641ZM33.145,30.506L31.811,30.506C31.588,30.506 31.597,30.583 31.597,30.65L31.597,31.252L32.971,31.252C33.636,31.252 33.636,31.086 33.636,30.912C33.636,30.564 33.61,30.506 33.145,30.506ZM30.758,29.618L33.757,29.618C34.158,29.618 34.743,29.614 34.743,30.698C34.743,31.407 34.592,31.443 34.269,31.662C34.809,31.755 34.738,32.446 34.738,32.804C34.738,32.987 34.671,32.983 34.618,32.983L33.739,32.983C33.555,32.983 33.6,32.693 33.6,32.541C33.6,32.126 33.369,32.144 33.278,32.144L31.985,32.144C31.86,31.929 31.618,31.448 31.618,31.448L31.618,32.844C31.618,32.965 31.499,32.983 31.454,32.983L30.571,32.983C30.619,32.983 30.482,32.992 30.482,32.871L30.482,29.908C30.482,29.698 30.629,29.618 30.758,29.618ZM37.362,32.982C37.138,32.563 36.518,31.407 36.099,30.65L36.099,32.746C36.099,32.84 36.111,32.982 35.899,32.982L35.291,32.982C35.064,32.982 35.081,32.84 35.081,32.746L35.081,29.863C35.081,29.765 35.068,29.618 35.291,29.618L36.34,29.618C36.496,29.618 36.718,29.581 36.969,30.082C37.157,30.482 37.555,31.314 37.826,31.755C38.107,31.314 38.513,30.482 38.701,30.082C38.947,29.581 39.164,29.618 39.338,29.618L40.382,29.618C40.597,29.618 40.575,29.765 40.575,29.863L40.575,32.746C40.575,32.84 40.605,32.982 40.382,32.982L39.771,32.982C39.549,32.982 39.566,32.84 39.566,32.746L39.566,30.65C39.143,31.407 38.526,32.563 38.294,32.982L37.362,32.982ZM43.921,32.125C44.426,32.125 44.407,31.605 44.407,31.256C44.407,30.943 44.479,30.452 43.823,30.452L42.711,30.452C42.06,30.452 42.136,30.943 42.136,31.256C42.136,31.605 42.105,32.125 42.609,32.125L43.921,32.125ZM41.922,32.991C40.927,32.991 40.971,31.924 40.971,31.234C40.971,30.6 40.9,29.61 42.145,29.6L44.355,29.6C45.604,29.6 45.522,30.604 45.522,31.234C45.522,31.924 45.572,32.991 44.563,32.991L41.922,32.991ZM47.186,32.982C45.909,32.982 45.887,32.009 45.887,31.634L45.887,29.863C45.887,29.755 45.878,29.613 46.106,29.613L46.767,29.613C46.98,29.613 46.967,29.765 46.967,29.863L46.967,31.634C46.967,31.76 46.99,32.098 47.454,32.098L48.56,32.098C49.016,32.098 49.042,31.76 49.042,31.634L49.042,29.863C49.042,29.765 49.028,29.613 49.242,29.613L49.907,29.613C50.148,29.613 50.127,29.765 50.127,29.863L50.127,31.634C50.127,32.009 50.104,32.982 48.823,32.982L47.186,32.982ZM53.222,30.506L51.888,30.506C51.665,30.506 51.674,30.583 51.674,30.65L51.674,31.252L53.048,31.252C53.713,31.252 53.713,31.086 53.713,30.912C53.713,30.564 53.687,30.506 53.222,30.506ZM50.834,29.618L53.834,29.618C54.235,29.618 54.821,29.614 54.821,30.698C54.821,31.407 54.668,31.443 54.347,31.662C54.887,31.755 54.816,32.446 54.816,32.804C54.816,32.987 54.749,32.983 54.695,32.983L53.816,32.983C53.633,32.983 53.677,32.693 53.677,32.541C53.677,32.126 53.446,32.144 53.357,32.144L52.062,32.144C51.938,31.929 51.696,31.448 51.696,31.448L51.696,32.844C51.696,32.965 51.575,32.983 51.531,32.983L50.649,32.983C50.696,32.983 50.559,32.992 50.559,32.871L50.559,29.908C50.559,29.698 50.706,29.618 50.834,29.618Z" fill="#1A2530"/>
</svg>
