<svg width="28" height="16" viewBox="0 0 28 16" fill="none" xmlns="http://www.w3.org/2000/svg" xmlns:xlink="http://www.w3.org/1999/xlink">
<path d="M20.061,-0.061C19.475,-0.646 18.525,-0.646 17.939,-0.061C17.354,0.525 17.354,1.475 17.939,2.061L20.061,-0.061ZM25,7L26.061,8.061C26.646,7.475 26.646,6.525 26.061,5.939L25,7ZM17.939,11.939C17.354,12.525 17.354,13.475 17.939,14.061C18.525,14.646 19.475,14.646 20.061,14.061L17.939,11.939ZM1,5.5C0.172,5.5 -0.5,6.172 -0.5,7C-0.5,7.828 0.172,8.5 1,8.5L1,5.5ZM17.939,2.061L23.939,8.061L26.061,5.939L20.061,-0.061L17.939,2.061ZM23.939,5.939L17.939,11.939L20.061,14.061L26.061,8.061L23.939,5.939ZM25,5.5L1,5.5L1,8.5L25,8.5L25,5.5Z" fill="#707B81"/>
</svg>
