<svg width="44" height="32" viewBox="0 0 44 32" fill="none" xmlns="http://www.w3.org/2000/svg" xmlns:xlink="http://www.w3.org/1999/xlink">
<path d="M26,20.472L25.339,19.126L25.154,19.217L25,19.355L26,20.472ZM3.74,20.294L2.652,21.327L2.652,21.327L3.74,20.294ZM40.261,11.706L41.348,10.673L41.348,10.673L40.261,11.706ZM40.261,20.294L41.348,21.327L41.348,21.327L40.261,20.294ZM3.74,11.706L2.652,10.673L2.652,10.673L3.74,11.706ZM37.216,23.215L38.104,24.424L38.154,24.387L38.201,24.347L37.216,23.215ZM16.826,2.825L16.377,1.394L16.275,1.426L16.179,1.472L16.826,2.825ZM11,5.607L10.354,4.253L10.271,4.293L10.193,4.342L11,5.607ZM32.33,26.809L33.103,28.094L33.163,28.058L33.219,28.017L32.33,26.809ZM14.5,16C14.5,20.142 17.858,23.5 22,23.5L22,20.5C19.515,20.5 17.5,18.485 17.5,16L14.5,16ZM22,23.5C23.92,23.5 25.675,22.777 27.001,21.59L25,19.355C24.203,20.068 23.154,20.5 22,20.5L22,23.5ZM16.32,11.111C15.581,12.114 15.077,12.886 14.798,13.672C14.504,14.502 14.5,15.242 14.5,16L17.5,16C17.5,15.221 17.524,14.961 17.626,14.675C17.743,14.346 18.002,13.886 18.736,12.889L16.32,11.111ZM2.652,21.327C6.596,25.476 13.698,31.5 22,31.5L22,28.5C15.04,28.5 8.707,23.343 4.827,19.26L2.652,21.327ZM41.348,10.673C37.405,6.524 30.302,0.5 22,0.5L22,3.5C28.96,3.5 35.294,8.657 39.174,12.74L41.348,10.673ZM41.348,21.327C44.218,18.308 44.218,13.692 41.348,10.673L39.174,12.74C40.942,14.601 40.942,17.399 39.174,19.26L41.348,21.327ZM4.827,19.26C3.058,17.399 3.058,14.601 4.827,12.74L2.652,10.673C-0.217,13.692 -0.217,18.308 2.652,21.327L4.827,19.26ZM38.201,24.347C39.384,23.316 40.441,22.282 41.348,21.327L39.174,19.26C38.321,20.158 37.333,21.125 36.231,22.084L38.201,24.347ZM22,0.5C20.045,0.5 18.16,0.835 16.377,1.394L17.274,4.257C18.809,3.776 20.39,3.5 22,3.5L22,0.5ZM10.193,4.342C7.141,6.291 4.56,8.665 2.652,10.673L4.827,12.74C6.63,10.842 9.025,8.647 11.807,6.871L10.193,4.342ZM22,31.5C26.095,31.5 29.881,30.033 33.103,28.094L31.557,25.524C28.626,27.287 25.377,28.5 22,28.5L22,31.5ZM36.327,22.007L31.441,25.6L33.219,28.017L38.104,24.424L36.327,22.007ZM16.179,1.472L10.354,4.253L11.646,6.96L17.472,4.179L16.179,1.472ZM18.736,12.889C18.806,12.794 19.159,12.506 19.972,12.282C20.723,12.076 21.657,11.985 22.591,12.075C24.523,12.26 25.924,13.115 26.312,14.613L29.216,13.859C28.369,10.593 25.387,9.33 22.878,9.088C21.591,8.965 20.29,9.083 19.177,9.389C18.126,9.678 16.986,10.206 16.32,11.111L18.736,12.889ZM26.312,14.613C26.837,16.637 26.43,17.769 26.07,18.352C25.875,18.666 25.66,18.877 25.505,19.003C25.427,19.066 25.366,19.106 25.334,19.126C25.318,19.136 25.309,19.141 25.309,19.141C25.31,19.141 25.312,19.139 25.317,19.137C25.319,19.136 25.322,19.134 25.326,19.132C25.328,19.131 25.33,19.13 25.332,19.129C25.333,19.129 25.335,19.128 25.336,19.127C25.336,19.127 25.337,19.127 25.337,19.127C25.338,19.126 25.339,19.126 26,20.472C26.661,21.819 26.662,21.818 26.663,21.818C26.663,21.818 26.664,21.817 26.665,21.817C26.666,21.816 26.668,21.815 26.669,21.815C26.672,21.813 26.675,21.812 26.679,21.81C26.685,21.807 26.693,21.803 26.701,21.799C26.717,21.79 26.736,21.78 26.758,21.768C26.801,21.744 26.856,21.713 26.919,21.673C27.046,21.594 27.21,21.482 27.395,21.333C27.763,21.034 28.22,20.578 28.622,19.929C29.452,18.586 29.927,16.6 29.216,13.859L26.312,14.613Z" fill="#1A2530"/>
</svg>
