<svg width="34" height="34" viewBox="0 0 34 34" fill="none" xmlns="http://www.w3.org/2000/svg" xmlns:xlink="http://www.w3.org/1999/xlink">
<path d="M1,29.6C0.227,29.6 -0.4,30.227 -0.4,31C-0.4,31.773 0.227,32.4 1,32.4L1,29.6ZM31,32.4C31.773,32.4 32.4,31.773 32.4,31C32.4,30.227 31.773,29.6 31,29.6L31,32.4ZM8.199,25.98L8.001,24.594L8.001,24.594L8.199,25.98ZM6.02,23.801L4.634,23.603L4.634,23.603L6.02,23.801ZM7.927,15.9L6.937,14.91L6.937,14.91L7.927,15.9ZM6.837,18.079L8.223,18.277L8.223,18.277L6.837,18.079ZM16.1,24.073L17.09,25.063L17.09,25.063L16.1,24.073ZM13.921,25.163L14.119,26.549L14.119,26.549L13.921,25.163ZM29.872,4.853L28.882,5.843L28.882,5.843L29.872,4.853ZM29.872,10.302L28.882,9.312L28.882,9.312L29.872,10.302ZM27.147,2.128L28.137,1.139L28.137,1.139L27.147,2.128ZM21.698,2.128L22.688,3.118L22.688,3.118L21.698,2.128ZM20.374,4.853C20.374,4.08 19.747,3.453 18.974,3.453C18.201,3.453 17.574,4.08 17.574,4.853L20.374,4.853ZM27.147,14.426C27.92,14.426 28.547,13.799 28.547,13.026C28.547,12.253 27.92,11.626 27.147,11.626L27.147,14.426ZM1,32.4L31,32.4L31,29.6L1,29.6L1,32.4ZM26.157,3.118L28.882,5.843L30.861,3.863L28.137,1.139L26.157,3.118ZM28.882,9.312L15.11,23.083L17.09,25.063L30.861,11.292L28.882,9.312ZM8.917,16.89L22.688,3.118L20.708,1.139L6.937,14.91L8.917,16.89ZM13.723,23.777L8.001,24.594L8.397,27.366L14.119,26.549L13.723,23.777ZM7.406,23.999L8.223,18.277L5.451,17.881L4.634,23.603L7.406,23.999ZM8.001,24.594C7.654,24.644 7.356,24.346 7.406,23.999L4.634,23.603C4.32,25.798 6.202,27.68 8.397,27.366L8.001,24.594ZM6.937,14.91C6.133,15.714 5.612,16.756 5.451,17.881L8.223,18.277C8.298,17.752 8.542,17.265 8.917,16.89L6.937,14.91ZM15.11,23.083C14.735,23.458 14.248,23.702 13.723,23.777L14.119,26.549C15.244,26.388 16.286,25.867 17.09,25.063L15.11,23.083ZM28.882,5.843C29.839,6.801 29.839,8.354 28.882,9.312L30.861,11.292C32.913,9.24 32.913,5.914 30.861,3.863L28.882,5.843ZM28.137,1.139C26.086,-0.913 22.76,-0.913 20.708,1.139L22.688,3.118C23.646,2.161 25.199,2.161 26.157,3.118L28.137,1.139ZM18.974,4.853C17.574,4.853 17.574,4.854 17.574,4.854C17.574,4.854 17.574,4.855 17.574,4.856C17.574,4.857 17.574,4.858 17.574,4.859C17.574,4.861 17.574,4.863 17.574,4.866C17.574,4.871 17.574,4.877 17.574,4.883C17.574,4.896 17.575,4.911 17.575,4.929C17.577,4.965 17.579,5.012 17.582,5.068C17.59,5.181 17.604,5.333 17.631,5.519C17.684,5.891 17.787,6.399 17.986,6.998C18.387,8.202 19.175,9.758 20.708,11.292L22.688,9.312C21.497,8.12 20.923,6.953 20.643,6.113C20.502,5.69 20.435,5.348 20.403,5.123C20.386,5.011 20.379,4.929 20.376,4.882C20.375,4.859 20.374,4.844 20.374,4.839C20.374,4.836 20.374,4.836 20.374,4.839C20.374,4.84 20.374,4.841 20.374,4.844C20.374,4.845 20.374,4.846 20.374,4.848C20.374,4.849 20.374,4.849 20.374,4.85C20.374,4.851 20.374,4.851 20.374,4.852C20.374,4.852 20.374,4.853 18.974,4.853ZM20.708,11.292C22.242,12.825 23.798,13.613 25.002,14.014C25.601,14.213 26.109,14.316 26.481,14.369C26.667,14.396 26.819,14.41 26.932,14.418C26.988,14.421 27.035,14.423 27.071,14.425C27.089,14.425 27.104,14.426 27.117,14.426C27.123,14.426 27.129,14.426 27.134,14.426C27.137,14.426 27.139,14.426 27.141,14.426C27.142,14.426 27.143,14.426 27.144,14.426C27.145,14.426 27.145,14.426 27.146,14.426C27.146,14.426 27.147,14.426 27.147,13.026C27.147,11.626 27.148,11.626 27.148,11.626C27.149,11.626 27.149,11.626 27.15,11.626C27.151,11.626 27.151,11.626 27.152,11.626C27.154,11.626 27.155,11.626 27.156,11.626C27.159,11.626 27.16,11.626 27.161,11.626C27.164,11.626 27.164,11.626 27.161,11.626C27.156,11.626 27.141,11.625 27.118,11.624C27.071,11.621 26.989,11.613 26.877,11.597C26.652,11.565 26.31,11.498 25.887,11.357C25.047,11.077 23.88,10.503 22.688,9.312L20.708,11.292Z" fill="#707B81"/>
</svg>
