<svg width="52" height="28" viewBox="0 0 52 28" fill="none" xmlns="http://www.w3.org/2000/svg" xmlns:xlink="http://www.w3.org/1999/xlink">
<path d="M14.467,13.666L19.433,-0.294L16.151,-0.294L13.878,5.764L14.383,-0.294L10.933,-0.294L5.967,13.666L9.165,13.666L11.606,6.906L11.185,13.491L14.467,13.666ZM18.339,13.666L23.304,-0.294L20.19,-0.294L15.141,13.666L18.339,13.666ZM27.344,12.788L27.175,5.764L31.888,0.057L27.344,12.788ZM50.235,7.871L34.245,12.174L34.666,10.857L31.299,10.857L32.393,7.52L35.255,7.52L36.096,4.974L33.235,5.15L34.245,2.34L37.022,2.34L37.948,-0.206L28.943,-0.206L25.661,3.833L27.26,-0.294L24.062,-0.294L19.096,13.666L22.378,13.666L24.482,7.696L24.482,13.666L28.69,13.666L13.626,17.793C12.055,18.261 10.652,18.466 9.418,18.407C8.183,18.349 7.23,17.998 6.556,17.354C5.041,16.183 4.508,14.398 4.957,11.998C5.238,10.418 5.855,8.896 6.809,7.432C4.565,9.891 2.909,11.969 1.843,13.666C0.665,15.481 -0.092,17.266 -0.429,19.022C-0.766,20.778 -0.569,22.212 0.16,23.324C2.124,26.719 6.416,26.953 13.037,24.027L50.235,7.871Z" fill="#1A2530"/>
</svg>
