<svg width="66" height="32" viewBox="0 0 66 32" fill="none" xmlns="http://www.w3.org/2000/svg" xmlns:xlink="http://www.w3.org/1999/xlink">
<path d="M34.508,-0.891C34.297,-0.859 34.095,-0.084 33.688,0.32C33.39,0.612 33.018,0.594 32.821,0.954C32.746,1.089 32.77,1.319 32.686,1.539C32.519,1.981 31.935,2.02 31.935,2.501C31.933,3.02 32.422,3.119 32.846,3.488C33.178,3.784 33.209,3.989 33.61,4.133C33.953,4.249 34.462,3.869 34.921,4.006C35.297,4.117 35.657,4.198 35.743,4.585C35.818,4.942 35.737,5.494 35.281,5.43C35.127,5.413 34.459,5.189 33.64,5.276C32.651,5.388 31.522,5.711 31.412,6.814C31.351,7.43 32.114,8.157 32.85,8.009C33.358,7.909 33.118,7.309 33.394,7.017C33.758,6.643 35.818,8.321 37.731,8.321C38.537,8.321 39.137,8.117 39.732,7.494C39.788,7.446 39.856,7.344 39.942,7.338C40.023,7.344 40.164,7.424 40.211,7.458C41.752,8.697 42.918,11.183 48.584,11.211C49.381,11.216 50.288,11.597 51.03,12.273C51.691,12.884 52.077,13.835 52.453,14.8C53.02,16.247 54.036,17.656 55.577,19.222C55.661,19.306 56.929,20.293 57.031,20.366C57.047,20.377 57.14,20.599 57.108,20.723C57.07,21.664 56.933,24.395 58.97,24.519C59.468,24.544 59.338,24.194 59.338,23.954C59.337,23.477 59.25,23.005 59.5,22.517C59.843,21.847 58.773,21.539 58.804,20.09C58.827,19.01 57.919,19.194 57.459,18.371C57.194,17.894 56.958,17.641 56.975,17.058C57.078,13.777 56.276,11.62 55.877,11.09C55.565,10.691 55.307,10.532 55.591,10.347C57.292,9.224 57.677,8.18 57.677,8.18C58.582,6.055 59.394,4.114 60.515,3.259C60.741,3.083 61.32,2.651 61.675,2.481C62.721,1.988 63.271,1.689 63.576,1.393C64.056,0.925 64.436,-0.052 63.975,-0.644C63.402,-1.375 62.411,-0.795 61.974,-0.536C58.849,1.319 58.388,4.59 57.306,6.469C56.442,7.97 55.038,9.073 53.783,9.163C52.842,9.233 51.827,9.043 50.817,8.599C48.36,7.522 47.016,6.132 46.698,5.885C46.038,5.376 40.915,0.346 36.763,0.14C36.763,0.14 36.247,-0.892 36.118,-0.908C35.815,-0.948 35.504,-0.293 35.281,-0.216C35.071,-0.147 34.719,-0.925 34.508,-0.891ZM16.231,29.131C15.84,29.122 15.508,28.801 15.508,28.405L15.51,15.454L11.241,15.454L11.241,29.729C11.241,30.43 11.808,31 12.504,31L19.963,31C20.664,31 21.224,30.43 21.224,29.729L21.224,15.454L16.959,15.454L16.956,28.405C16.956,28.801 16.624,29.122 16.231,29.131ZM30.521,15.454L24.062,15.454C23.296,15.454 22.674,16.076 22.674,16.848L22.674,31L26.947,31L26.947,18.019C26.947,17.925 26.966,17.831 27.003,17.745C27.04,17.658 27.093,17.579 27.16,17.513C27.227,17.447 27.307,17.394 27.394,17.359C27.481,17.323 27.575,17.305 27.669,17.306C28.067,17.306 28.388,17.614 28.396,18.008L28.396,31L32.651,31L32.651,18.008C32.656,17.614 32.976,17.306 33.374,17.306C33.768,17.306 34.095,17.621 34.098,18.019L34.098,31L38.37,31L38.37,16.848C38.37,16.076 37.746,15.454 36.982,15.454L30.521,15.454ZM8.394,27.094L4.082,27.094L4.082,31L-0.184,31L-0.184,15.454L8.421,15.454C9.192,15.454 9.793,16.08 9.793,16.855L9.793,25.692C9.794,25.876 9.758,26.059 9.688,26.229C9.618,26.399 9.515,26.554 9.385,26.684C9.255,26.814 9.1,26.917 8.93,26.988C8.76,27.058 8.578,27.094 8.394,27.094ZM5.53,18.046C5.531,17.95 5.513,17.854 5.478,17.765C5.442,17.676 5.389,17.595 5.322,17.526C5.255,17.457 5.175,17.402 5.086,17.365C4.998,17.327 4.903,17.307 4.807,17.306L4.082,17.306L4.082,25.169L4.807,25.169C5.184,25.169 5.533,24.869 5.53,24.439L5.53,18.046Z" fill="#1A2530"/>
</svg>
