<svg width="40" height="44" viewBox="0 0 40 44" fill="none" xmlns="http://www.w3.org/2000/svg" xmlns:xlink="http://www.w3.org/1999/xlink">
<path d="M6.5,13C6.5,12.172 5.828,11.5 5,11.5C4.172,11.5 3.5,12.172 3.5,13L6.5,13ZM34.5,13C34.5,12.172 33.828,11.5 33,11.5C32.172,11.5 31.5,12.172 31.5,13L34.5,13ZM24.5,19C24.5,18.172 23.828,17.5 23,17.5C22.172,17.5 21.5,18.172 21.5,19L24.5,19ZM21.5,31C21.5,31.828 22.172,32.5 23,32.5C23.828,32.5 24.5,31.828 24.5,31L21.5,31ZM16.5,19C16.5,18.172 15.828,17.5 15,17.5C14.172,17.5 13.5,18.172 13.5,19L16.5,19ZM13.5,31C13.5,31.828 14.172,32.5 15,32.5C15.828,32.5 16.5,31.828 16.5,31L13.5,31ZM37,8.5C37.828,8.5 38.5,7.828 38.5,7C38.5,6.172 37.828,5.5 37,5.5L37,8.5ZM1,5.5C0.172,5.5 -0.5,6.172 -0.5,7C-0.5,7.828 0.172,8.5 1,8.5L1,5.5ZM24.187,2.781L22.939,3.613L22.939,3.613L24.187,2.781ZM13.813,2.781L12.564,1.949L12.564,1.949L13.813,2.781ZM13,42.5L25,42.5L25,39.5L13,39.5L13,42.5ZM3.5,13L3.5,33L6.5,33L6.5,13L3.5,13ZM34.5,33L34.5,13L31.5,13L31.5,33L34.5,33ZM25,42.5C30.247,42.5 34.5,38.247 34.5,33L31.5,33C31.5,36.59 28.59,39.5 25,39.5L25,42.5ZM13,39.5C9.41,39.5 6.5,36.59 6.5,33L3.5,33C3.5,38.247 7.753,42.5 13,42.5L13,39.5ZM21.5,19L21.5,31L24.5,31L24.5,19L21.5,19ZM13.5,19L13.5,31L16.5,31L16.5,19L13.5,19ZM17.141,2.5L20.859,2.5L20.859,-0.5L17.141,-0.5L17.141,2.5ZM22.939,3.613L25.752,7.832L28.248,6.168L25.436,1.949L22.939,3.613ZM27,5.5L11,5.5L11,8.5L27,8.5L27,5.5ZM12.248,7.832L15.061,3.613L12.564,1.949L9.752,6.168L12.248,7.832ZM27,8.5L37,8.5L37,5.5L27,5.5L27,8.5ZM11,5.5L1,5.5L1,8.5L11,8.5L11,5.5ZM20.859,2.5C21.695,2.5 22.476,2.918 22.939,3.613L25.436,1.949C24.415,0.419 22.698,-0.5 20.859,-0.5L20.859,2.5ZM17.141,-0.5C15.302,-0.5 13.585,0.419 12.564,1.949L15.061,3.613C15.524,2.918 16.305,2.5 17.141,2.5L17.141,-0.5Z" fill="#707B81"/>
</svg>
