<svg width="40" height="40" viewBox="0 0 40 40" fill="none" xmlns="http://www.w3.org/2000/svg" xmlns:xlink="http://www.w3.org/1999/xlink">
<path d="M1,35.5C0.172,35.5 -0.5,36.172 -0.5,37C-0.5,37.828 0.172,38.5 1,38.5L1,35.5ZM37,38.5C37.828,38.5 38.5,37.828 38.5,37C38.5,36.172 37.828,35.5 37,35.5L37,38.5ZM24.069,5.623C24.069,4.795 23.397,4.123 22.569,4.123C21.74,4.123 21.069,4.795 21.069,5.623L24.069,5.623ZM25.838,12.162L24.777,13.223L24.777,13.223L25.838,12.162ZM32.377,16.931C33.205,16.931 33.877,16.26 33.877,15.431C33.877,14.603 33.205,13.931 32.377,13.931L32.377,16.931ZM9.639,30.976L9.851,32.461L9.851,32.461L9.639,30.976ZM16.505,29.995L16.717,31.48L16.717,31.48L16.505,29.995ZM19.12,28.688L18.059,27.627L18.059,27.627L19.12,28.688ZM35.646,12.162L34.585,11.101L34.585,11.101L35.646,12.162ZM35.646,5.623L34.585,6.684L34.585,6.684L35.646,5.623ZM32.377,2.354L33.437,1.294L33.437,1.293L32.377,2.354ZM25.838,2.354L24.777,1.293L24.777,1.294L25.838,2.354ZM9.312,18.88L10.373,19.941L10.373,19.941L9.312,18.88ZM8.005,21.495L9.49,21.708L9.49,21.708L8.005,21.495ZM7.024,28.361L8.509,28.573L8.509,28.573L7.024,28.361ZM1,38.5L37,38.5L37,35.5L1,35.5L1,38.5ZM22.569,5.623C21.069,5.623 21.069,5.624 21.069,5.625C21.069,5.625 21.069,5.626 21.069,5.626C21.069,5.628 21.069,5.629 21.069,5.63C21.069,5.632 21.069,5.635 21.069,5.638C21.069,5.643 21.069,5.65 21.069,5.657C21.069,5.671 21.07,5.689 21.07,5.709C21.072,5.751 21.074,5.805 21.079,5.87C21.087,6.001 21.104,6.179 21.135,6.397C21.197,6.834 21.319,7.433 21.554,8.141C22.028,9.562 22.959,11.405 24.777,13.223L26.899,11.101C25.447,9.65 24.744,8.224 24.4,7.192C24.228,6.674 24.145,6.252 24.105,5.973C24.085,5.834 24.076,5.731 24.072,5.671C24.07,5.64 24.069,5.621 24.069,5.613C24.069,5.608 24.069,5.607 24.069,5.609C24.069,5.61 24.069,5.612 24.069,5.614C24.069,5.615 24.069,5.617 24.069,5.618C24.069,5.619 24.069,5.62 24.069,5.621C24.069,5.621 24.069,5.622 24.069,5.622C24.069,5.623 24.069,5.623 22.569,5.623ZM24.777,13.223C26.595,15.04 28.438,15.972 29.859,16.446C30.567,16.681 31.166,16.803 31.603,16.865C31.821,16.896 31.999,16.913 32.13,16.921C32.195,16.926 32.249,16.928 32.291,16.93C32.311,16.93 32.329,16.931 32.343,16.931C32.35,16.931 32.357,16.931 32.362,16.931C32.365,16.931 32.368,16.931 32.37,16.931C32.371,16.931 32.372,16.931 32.374,16.931C32.374,16.931 32.375,16.931 32.375,16.931C32.376,16.931 32.377,16.931 32.377,15.431C32.377,13.931 32.377,13.931 32.378,13.931C32.378,13.931 32.379,13.931 32.379,13.931C32.38,13.931 32.381,13.931 32.382,13.931C32.383,13.931 32.385,13.931 32.386,13.931C32.388,13.931 32.39,13.931 32.391,13.931C32.393,13.931 32.392,13.931 32.387,13.931C32.379,13.931 32.36,13.93 32.33,13.928C32.269,13.924 32.166,13.915 32.027,13.895C31.748,13.855 31.326,13.772 30.808,13.6C29.776,13.256 28.35,12.553 26.899,11.101L24.777,13.223ZM9.851,32.461L16.717,31.48L16.292,28.51L9.427,29.491L9.851,32.461ZM16.717,31.48C18.028,31.293 19.244,30.685 20.181,29.748L18.059,27.627C17.582,28.105 16.962,28.415 16.292,28.51L16.717,31.48ZM20.181,29.748L36.706,13.223L34.585,11.101L18.059,27.627L20.181,29.748ZM36.706,13.223C39.098,10.831 39.098,6.954 36.706,4.563L34.585,6.684C35.805,7.904 35.805,9.881 34.585,11.101L36.706,13.223ZM36.706,4.563L33.437,1.294L31.316,3.415L34.585,6.684L36.706,4.563ZM33.437,1.293C31.046,-1.098 27.169,-1.098 24.777,1.293L26.899,3.415C28.118,2.195 30.096,2.195 31.316,3.415L33.437,1.293ZM24.777,1.294L8.252,17.819L10.373,19.941L26.899,3.415L24.777,1.294ZM8.252,17.819C7.315,18.756 6.707,19.972 6.52,21.283L9.49,21.708C9.585,21.038 9.895,20.418 10.373,19.941L8.252,17.819ZM6.52,21.283L5.539,28.149L8.509,28.573L9.49,21.708L6.52,21.283ZM5.539,28.149C5.18,30.664 7.336,32.82 9.851,32.461L9.427,29.491C8.891,29.568 8.432,29.108 8.509,28.573L5.539,28.149Z" fill="#5B9EE1"/>
</svg>
