<svg width="12" height="24" viewBox="0 0 12 24" fill="none" xmlns="http://www.w3.org/2000/svg" xmlns:xlink="http://www.w3.org/1999/xlink">
<path d="M2.171,0.063C1.654,-0.584 0.71,-0.689 0.063,-0.171C-0.584,0.346 -0.689,1.29 -0.171,1.937L2.171,0.063ZM9,11L10.171,11.937C10.61,11.389 10.61,10.611 10.171,10.063L9,11ZM-0.171,20.063C-0.689,20.71 -0.584,21.654 0.063,22.171C0.71,22.689 1.654,22.584 2.171,21.937L-0.171,20.063ZM-0.171,1.937L7.829,11.937L10.171,10.063L2.171,0.063L-0.171,1.937ZM7.829,10.063L-0.171,20.063L2.171,21.937L10.171,11.937L7.829,10.063Z" fill="#707B81"/>
</svg>
