<svg width="40" height="40" viewBox="0 0 40 40" fill="none" xmlns="http://www.w3.org/2000/svg" xmlns:xlink="http://www.w3.org/1999/xlink">
<path d="M4.5,38C4.5,38.828 5.172,39.5 6,39.5C6.828,39.5 7.5,38.828 7.5,38L4.5,38ZM18.5,38C18.5,38.828 19.172,39.5 20,39.5C20.828,39.5 21.5,38.828 21.5,38L18.5,38ZM21.5,20C21.5,19.172 20.828,18.5 20,18.5C19.172,18.5 18.5,19.172 18.5,20L21.5,20ZM21.5,2C21.5,1.172 20.828,0.5 20,0.5C19.172,0.5 18.5,1.172 18.5,2L21.5,2ZM7.5,2C7.5,1.172 6.828,0.5 6,0.5C5.172,0.5 4.5,1.172 4.5,2L7.5,2ZM32.5,20C32.5,20.828 33.172,21.5 34,21.5C34.828,21.5 35.5,20.828 35.5,20L32.5,20ZM35.5,2C35.5,1.172 34.828,0.5 34,0.5C33.172,0.5 32.5,1.172 32.5,2L35.5,2ZM32.5,38C32.5,38.828 33.172,39.5 34,39.5C34.828,39.5 35.5,38.828 35.5,38L32.5,38ZM7.5,38L7.5,24L4.5,24L4.5,38L7.5,38ZM21.5,38L21.5,20L18.5,20L18.5,38L21.5,38ZM21.5,6L21.5,2L18.5,2L18.5,6L21.5,6ZM7.5,16L7.5,2L4.5,2L4.5,16L7.5,16ZM35.5,20L35.5,2L32.5,2L32.5,20L35.5,20ZM35.5,38L35.5,34L32.5,34L32.5,38L35.5,38ZM34,27.5C35.381,27.5 36.5,28.619 36.5,30L39.5,30C39.5,26.962 37.038,24.5 34,24.5L34,27.5ZM36.5,30C36.5,31.381 35.381,32.5 34,32.5L34,35.5C37.038,35.5 39.5,33.038 39.5,30L36.5,30ZM34,32.5C32.619,32.5 31.5,31.381 31.5,30L28.5,30C28.5,33.038 30.962,35.5 34,35.5L34,32.5ZM31.5,30C31.5,28.619 32.619,27.5 34,27.5L34,24.5C30.962,24.5 28.5,26.962 28.5,30L31.5,30ZM20,7.5C21.381,7.5 22.5,8.619 22.5,10L25.5,10C25.5,6.962 23.038,4.5 20,4.5L20,7.5ZM22.5,10C22.5,11.381 21.381,12.5 20,12.5L20,15.5C23.038,15.5 25.5,13.038 25.5,10L22.5,10ZM20,12.5C18.619,12.5 17.5,11.381 17.5,10L14.5,10C14.5,13.038 16.962,15.5 20,15.5L20,12.5ZM17.5,10C17.5,8.619 18.619,7.5 20,7.5L20,4.5C16.962,4.5 14.5,6.962 14.5,10L17.5,10ZM6,17.5C7.381,17.5 8.5,18.619 8.5,20L11.5,20C11.5,16.962 9.038,14.5 6,14.5L6,17.5ZM8.5,20C8.5,21.381 7.381,22.5 6,22.5L6,25.5C9.038,25.5 11.5,23.038 11.5,20L8.5,20ZM6,22.5C4.619,22.5 3.5,21.381 3.5,20L0.5,20C0.5,23.038 2.962,25.5 6,25.5L6,22.5ZM3.5,20C3.5,18.619 4.619,17.5 6,17.5L6,14.5C2.962,14.5 0.5,16.962 0.5,20L3.5,20Z" fill="#1A2530"/>
</svg>
