<svg width="40" height="36" viewBox="0 0 40 36" fill="none" xmlns="http://www.w3.org/2000/svg" xmlns:xlink="http://www.w3.org/1999/xlink">
<path d="M19,4.422L17.86,5.397C18.145,5.73 18.561,5.922 19,5.922C19.439,5.922 19.855,5.73 20.14,5.397L19,4.422ZM26.392,2.5C31.696,2.5 35.5,7.552 35.5,12.51L38.5,12.51C38.5,6.368 33.788,-0.5 26.392,-0.5L26.392,2.5ZM35.5,12.51C35.5,14.929 34.55,17.326 32.992,19.622C31.435,21.915 29.327,24.023 27.161,25.827C25,27.626 22.823,29.09 21.166,30.103C20.338,30.609 19.647,30.998 19.16,31.258C18.915,31.389 18.73,31.482 18.609,31.54C18.546,31.57 18.514,31.584 18.505,31.588C18.499,31.59 18.518,31.582 18.552,31.571C18.568,31.565 18.606,31.553 18.656,31.541C18.684,31.534 18.82,31.5 19,31.5L19,34.5C19.185,34.5 19.328,34.465 19.365,34.456C19.425,34.441 19.474,34.426 19.504,34.416C19.564,34.395 19.618,34.374 19.655,34.359C19.732,34.327 19.817,34.288 19.902,34.247C20.075,34.164 20.302,34.049 20.572,33.905C21.113,33.616 21.856,33.197 22.731,32.663C24.479,31.594 26.781,30.047 29.081,28.132C31.374,26.222 33.706,23.911 35.474,21.307C37.24,18.704 38.5,15.724 38.5,12.51L35.5,12.51ZM19,31.5C19.18,31.5 19.316,31.534 19.344,31.541C19.394,31.553 19.432,31.565 19.448,31.571C19.482,31.582 19.501,31.59 19.495,31.588C19.486,31.584 19.454,31.57 19.391,31.54C19.27,31.482 19.085,31.389 18.84,31.258C18.353,30.998 17.662,30.609 16.834,30.103C15.177,29.09 13,27.626 10.839,25.827C8.673,24.023 6.565,21.915 5.008,19.622C3.45,17.326 2.5,14.929 2.5,12.51L-0.5,12.51C-0.5,15.724 0.76,18.704 2.526,21.307C4.294,23.911 6.626,26.222 8.919,28.132C11.219,30.047 13.521,31.594 15.269,32.663C16.144,33.197 16.887,33.616 17.428,33.905C17.698,34.049 17.925,34.164 18.098,34.247C18.183,34.288 18.268,34.327 18.345,34.359C18.382,34.374 18.436,34.395 18.496,34.416C18.526,34.426 18.575,34.441 18.635,34.456C18.672,34.465 18.815,34.5 19,34.5L19,31.5ZM2.5,12.51C2.5,7.552 6.304,2.5 11.608,2.5L11.608,-0.5C4.212,-0.5 -0.5,6.368 -0.5,12.51L2.5,12.51ZM11.608,2.5C14.677,2.5 16.676,4.012 17.86,5.397L20.14,3.447C18.568,1.608 15.799,-0.5 11.608,-0.5L11.608,2.5ZM20.14,5.397C21.324,4.012 23.323,2.5 26.392,2.5L26.392,-0.5C22.201,-0.5 19.432,1.608 17.86,3.447L20.14,5.397Z" fill="#707B81"/>
</svg>
