<svg width="56" height="32" viewBox="0 0 56 32" fill="none" xmlns="http://www.w3.org/2000/svg" xmlns:xlink="http://www.w3.org/1999/xlink">
<path d="M41.229,11.966C45.679,10.008 48.585,7.068 48.743,3.807C48.743,3.807 47.568,2.902 43.775,1.506C40.445,0.281 37.904,0 37.904,0L37.915,7.267C37.915,8.352 37.479,9.461 36.656,10.442C34.139,9.834 31.357,9.493 28.438,9.492L28.436,9.492C25.516,9.493 22.73,9.835 20.21,10.444C19.387,9.462 18.95,8.353 18.95,7.267L18.961,0C18.961,0 16.422,0.281 13.089,1.506C9.296,2.902 8.123,3.807 8.123,3.807C8.281,7.069 11.187,10.01 15.642,11.967C11.191,13.925 8.286,16.865 8.128,20.125C8.128,20.125 9.302,21.031 13.095,22.426C16.427,23.651 18.967,23.932 18.967,23.932L18.955,16.665C18.955,15.58 19.391,14.47 20.215,13.49C22.732,14.099 25.514,14.439 28.432,14.439L28.433,14.439C31.355,14.439 34.141,14.098 36.66,13.487C37.483,14.468 37.919,15.58 37.919,16.665L37.909,23.932C37.909,23.932 40.449,23.651 43.781,22.426C47.574,21.031 48.748,20.125 48.748,20.125C48.59,16.863 45.683,13.922 41.229,11.965L41.229,11.966ZM28.434,13.601L28.431,13.601L28.348,13.599C25.713,13.599 23.565,12.954 21.99,11.967C23.565,10.979 25.714,10.333 28.354,10.333L28.435,10.332L28.439,10.332L28.522,10.333C31.158,10.333 33.305,10.978 34.881,11.964C33.305,12.952 31.156,13.598 28.517,13.598L28.434,13.601ZM2.299,31.982C1.023,31.982 1,31.009 1,30.634L1,28.863C1,28.755 0.991,28.613 1.219,28.613L1.879,28.613C2.093,28.613 2.079,28.765 2.079,28.863L2.079,30.634C2.079,30.76 2.102,31.098 2.567,31.098L3.673,31.098C4.128,31.098 4.155,30.76 4.155,30.634L4.155,28.863C4.155,28.765 4.142,28.613 4.355,28.613L5.02,28.613C5.261,28.613 5.24,28.765 5.24,28.863L5.24,30.634C5.24,31.009 5.217,31.982 3.936,31.982L2.299,31.982ZM8.412,31.769C7.961,31.162 7.318,30.398 6.663,29.59L6.663,31.746C6.663,31.84 6.686,31.983 6.462,31.983L5.846,31.983C5.624,31.983 5.65,31.84 5.65,31.746L5.65,28.863C5.65,28.765 5.64,28.613 5.847,28.613L7.047,28.613C7.386,28.613 7.869,29.296 8.185,29.747C8.43,30.091 8.881,30.608 9.184,30.996L9.184,28.863C9.184,28.765 9.17,28.613 9.394,28.613L10.063,28.613C10.278,28.613 10.264,28.765 10.264,28.863L10.264,31.983L9.033,31.983C8.769,31.983 8.652,32 8.412,31.769L8.412,31.769ZM13.485,31.096C14.025,31.096 13.986,30.578 13.986,30.342C13.986,29.547 13.762,29.516 13.405,29.516L11.709,29.516L11.709,31.096L13.485,31.096ZM10.669,31.984L10.669,28.619L13.643,28.619C13.824,28.619 15.042,28.597 15.042,29.877C15.042,31.185 15.185,31.984 13.669,31.984L12.066,31.984L11.718,31.279L11.718,31.984L10.669,31.984ZM16.207,28.64L18.947,28.64C19.179,28.64 19.148,28.792 19.148,29.073C19.148,29.335 19.183,29.483 18.947,29.483L16.782,29.483C16.724,29.483 16.529,29.452 16.529,29.657C16.529,29.862 16.489,29.943 16.707,29.943L18.621,29.943C18.621,29.943 18.898,30.47 18.929,30.559C18.974,30.639 18.969,30.715 18.8,30.715L16.818,30.715L16.51,30.117L16.51,31C16.51,31.206 16.694,31.166 16.747,31.166L18.996,31.166C19.219,31.166 19.201,31.321 19.201,31.575C19.201,31.849 19.219,31.999 18.996,31.999L16.149,31.999C15.912,31.999 15.449,31.928 15.449,31.188L15.449,29.331C15.449,29.14 15.551,28.64 16.207,28.64L16.207,28.64ZM22.274,29.506L20.94,29.506C20.718,29.506 20.726,29.583 20.726,29.65L20.726,30.252L22.1,30.252C22.766,30.252 22.766,30.086 22.766,29.912C22.766,29.564 22.739,29.506 22.274,29.506ZM19.888,28.618L22.886,28.618C23.288,28.618 23.871,28.614 23.871,29.698C23.871,30.407 23.721,30.443 23.399,30.662C23.94,30.755 23.868,31.446 23.868,31.804C23.868,31.987 23.802,31.983 23.747,31.983L22.868,31.983C22.685,31.983 22.73,31.693 22.73,31.541C22.73,31.126 22.498,31.144 22.408,31.144L21.114,31.144C20.99,30.929 20.749,30.448 20.749,30.448L20.749,31.844C20.749,31.965 20.627,31.983 20.583,31.983L19.701,31.983C19.749,31.983 19.61,31.992 19.61,31.871L19.61,28.908C19.61,28.698 19.758,28.618 19.887,28.618L19.888,28.618ZM28.677,29.572L28.124,30.581L28.173,30.63L29.204,30.63L29.258,30.581C29.222,30.505 28.776,29.657 28.731,29.567L28.677,29.572ZM29.034,28.641C29.253,28.641 29.466,28.739 29.699,29.189C29.856,29.51 30.945,31.477 31.171,31.889L31.171,32L30.038,32L29.711,31.41L28.333,31.41C28.333,31.41 28.102,30.88 28.035,30.733C27.95,30.871 27.495,31.737 27.337,32L26.201,32L26.201,31.929C26.432,31.492 28.017,28.641 28.017,28.641L29.034,28.641ZM34.145,29.506L32.811,29.506C32.588,29.506 32.597,29.583 32.597,29.65L32.597,30.252L33.971,30.252C34.636,30.252 34.636,30.086 34.636,29.912C34.636,29.564 34.61,29.506 34.145,29.506ZM31.758,28.618L34.757,28.618C35.158,28.618 35.743,28.614 35.743,29.698C35.743,30.407 35.592,30.443 35.269,30.662C35.809,30.755 35.738,31.446 35.738,31.804C35.738,31.987 35.671,31.983 35.618,31.983L34.739,31.983C34.555,31.983 34.6,31.693 34.6,31.541C34.6,31.126 34.369,31.144 34.278,31.144L32.985,31.144C32.86,30.929 32.618,30.448 32.618,30.448L32.618,31.844C32.618,31.965 32.499,31.983 32.454,31.983L31.571,31.983C31.619,31.983 31.482,31.992 31.482,31.871L31.482,28.908C31.482,28.698 31.629,28.618 31.758,28.618L31.758,28.618ZM38.362,31.982C38.138,31.563 37.518,30.407 37.099,29.65L37.099,31.746C37.099,31.84 37.111,31.982 36.899,31.982L36.291,31.982C36.064,31.982 36.081,31.84 36.081,31.746L36.081,28.863C36.081,28.765 36.068,28.618 36.291,28.618L37.34,28.618C37.496,28.618 37.718,28.581 37.969,29.082C38.157,29.482 38.555,30.314 38.826,30.755C39.107,30.314 39.513,29.482 39.701,29.082C39.947,28.581 40.164,28.618 40.338,28.618L41.382,28.618C41.597,28.618 41.575,28.765 41.575,28.863L41.575,31.746C41.575,31.84 41.605,31.982 41.382,31.982L40.771,31.982C40.549,31.982 40.566,31.84 40.566,31.746L40.566,29.65C40.143,30.407 39.526,31.563 39.294,31.982L38.362,31.982ZM44.921,31.125C45.426,31.125 45.407,30.605 45.407,30.256C45.407,29.943 45.479,29.452 44.823,29.452L43.711,29.452C43.06,29.452 43.136,29.943 43.136,30.256C43.136,30.605 43.105,31.125 43.609,31.125L44.921,31.125ZM42.922,31.991C41.927,31.991 41.971,30.924 41.971,30.234C41.971,29.6 41.9,28.61 43.145,28.6L45.355,28.6C46.604,28.6 46.522,29.604 46.522,30.234C46.522,30.924 46.572,31.991 45.563,31.991L42.922,31.991ZM48.186,31.982C46.909,31.982 46.887,31.009 46.887,30.634L46.887,28.863C46.887,28.755 46.878,28.613 47.106,28.613L47.767,28.613C47.98,28.613 47.967,28.765 47.967,28.863L47.967,30.634C47.967,30.76 47.99,31.098 48.454,31.098L49.56,31.098C50.016,31.098 50.042,30.76 50.042,30.634L50.042,28.863C50.042,28.765 50.028,28.613 50.242,28.613L50.907,28.613C51.148,28.613 51.127,28.765 51.127,28.863L51.127,30.634C51.127,31.009 51.104,31.982 49.823,31.982L48.186,31.982ZM54.222,29.506L52.888,29.506C52.665,29.506 52.674,29.583 52.674,29.65L52.674,30.252L54.048,30.252C54.713,30.252 54.713,30.086 54.713,29.912C54.713,29.564 54.687,29.506 54.222,29.506L54.222,29.506ZM51.834,28.618L54.834,28.618C55.235,28.618 55.821,28.614 55.821,29.698C55.821,30.407 55.668,30.443 55.347,30.662C55.887,30.755 55.816,31.446 55.816,31.804C55.816,31.987 55.749,31.983 55.695,31.983L54.816,31.983C54.633,31.983 54.677,31.693 54.677,31.541C54.677,31.126 54.446,31.144 54.357,31.144L53.062,31.144C52.938,30.929 52.696,30.448 52.696,30.448L52.696,31.844C52.696,31.965 52.575,31.983 52.531,31.983L51.649,31.983C51.696,31.983 51.559,31.992 51.559,31.871L51.559,28.908C51.559,28.698 51.706,28.618 51.834,28.618Z" fill="#1A2530"/>
</svg>
