<svg width="36" height="36" viewBox="0 0 36 36" fill="none" xmlns="http://www.w3.org/2000/svg" xmlns:xlink="http://www.w3.org/1999/xlink">
<path d="M29.461,27.339C28.875,26.754 27.925,26.754 27.339,27.339C26.754,27.925 26.754,28.875 27.339,29.461L29.461,27.339ZM32.939,35.061C33.525,35.646 34.475,35.646 35.061,35.061C35.646,34.475 35.646,33.525 35.061,32.939L32.939,35.061ZM33.9,17.2C33.9,7.977 26.423,0.5 17.2,0.5L17.2,3.5C24.766,3.5 30.9,9.634 30.9,17.2L33.9,17.2ZM17.2,0.5C7.977,0.5 0.5,7.977 0.5,17.2L3.5,17.2C3.5,9.634 9.634,3.5 17.2,3.5L17.2,0.5ZM0.5,17.2C0.5,26.423 7.977,33.9 17.2,33.9L17.2,30.9C9.634,30.9 3.5,24.766 3.5,17.2L0.5,17.2ZM17.2,33.9C26.423,33.9 33.9,26.423 33.9,17.2L30.9,17.2C30.9,24.766 24.766,30.9 17.2,30.9L17.2,33.9ZM27.339,29.461L32.939,35.061L35.061,32.939L29.461,27.339L27.339,29.461Z" fill="#1A2530"/>
</svg>
