<svg width="40" height="40" viewBox="0 0 40 40" fill="none" xmlns="http://www.w3.org/2000/svg" xmlns:xlink="http://www.w3.org/1999/xlink">
<path d="M3.5,37C3.5,37.828 4.172,38.5 5,38.5C5.828,38.5 6.5,37.828 6.5,37L3.5,37ZM17.5,37C17.5,37.828 18.172,38.5 19,38.5C19.828,38.5 20.5,37.828 20.5,37L17.5,37ZM20.5,19C20.5,18.172 19.828,17.5 19,17.5C18.172,17.5 17.5,18.172 17.5,19L20.5,19ZM20.5,1C20.5,0.172 19.828,-0.5 19,-0.5C18.172,-0.5 17.5,0.172 17.5,1L20.5,1ZM6.5,1C6.5,0.172 5.828,-0.5 5,-0.5C4.172,-0.5 3.5,0.172 3.5,1L6.5,1ZM31.5,19C31.5,19.828 32.172,20.5 33,20.5C33.828,20.5 34.5,19.828 34.5,19L31.5,19ZM34.5,1C34.5,0.172 33.828,-0.5 33,-0.5C32.172,-0.5 31.5,0.172 31.5,1L34.5,1ZM31.5,37C31.5,37.828 32.172,38.5 33,38.5C33.828,38.5 34.5,37.828 34.5,37L31.5,37ZM6.5,37L6.5,23L3.5,23L3.5,37L6.5,37ZM5,24.5C8.038,24.5 10.5,22.038 10.5,19L7.5,19C7.5,20.381 6.381,21.5 5,21.5L5,24.5ZM10.5,19C10.5,15.962 8.038,13.5 5,13.5L5,16.5C6.381,16.5 7.5,17.619 7.5,19L10.5,19ZM5,21.5C3.619,21.5 2.5,20.381 2.5,19L-0.5,19C-0.5,22.038 1.962,24.5 5,24.5L5,21.5ZM2.5,19C2.5,17.619 3.619,16.5 5,16.5L5,13.5C1.962,13.5 -0.5,15.962 -0.5,19L2.5,19ZM20.5,37L20.5,19L17.5,19L17.5,37L20.5,37ZM20.5,5L20.5,1L17.5,1L17.5,5L20.5,5ZM19,6.5C20.381,6.5 21.5,7.619 21.5,9L24.5,9C24.5,5.962 22.038,3.5 19,3.5L19,6.5ZM21.5,9C21.5,10.381 20.381,11.5 19,11.5L19,14.5C22.038,14.5 24.5,12.038 24.5,9L21.5,9ZM19,11.5C17.619,11.5 16.5,10.381 16.5,9L13.5,9C13.5,12.038 15.962,14.5 19,14.5L19,11.5ZM16.5,9C16.5,7.619 17.619,6.5 19,6.5L19,3.5C15.962,3.5 13.5,5.962 13.5,9L16.5,9ZM6.5,15L6.5,1L3.5,1L3.5,15L6.5,15ZM34.5,19L34.5,1L31.5,1L31.5,19L34.5,19ZM34.5,37L34.5,33L31.5,33L31.5,37L34.5,37ZM33,34.5C36.038,34.5 38.5,32.038 38.5,29L35.5,29C35.5,30.381 34.381,31.5 33,31.5L33,34.5ZM38.5,29C38.5,25.962 36.038,23.5 33,23.5L33,26.5C34.381,26.5 35.5,27.619 35.5,29L38.5,29ZM33,23.5C29.962,23.5 27.5,25.962 27.5,29L30.5,29C30.5,27.619 31.619,26.5 33,26.5L33,23.5ZM27.5,29C27.5,32.038 29.962,34.5 33,34.5L33,31.5C31.619,31.5 30.5,30.381 30.5,29L27.5,29Z" fill="#1A2530"/>
</svg>
