<svg width="38" height="36" viewBox="0 0 38 36" fill="none" xmlns="http://www.w3.org/2000/svg" xmlns:xlink="http://www.w3.org/1999/xlink">
<path d="M4.124,8.008L5.612,8.194L5.612,8.194L4.124,8.008ZM33.876,8.008L35.364,7.822L35.364,7.822L33.876,8.008ZM35.876,24.008L37.364,23.822L37.364,23.822L35.876,24.008ZM2.124,24.008L3.612,24.194L3.612,24.194L2.124,24.008ZM5.612,8.194C6.019,4.941 8.784,2.5 12.062,2.5L12.062,-0.5C7.271,-0.5 3.23,3.068 2.636,7.822L5.612,8.194ZM12.062,2.5L25.938,2.5L25.938,-0.5L12.062,-0.5L12.062,2.5ZM25.938,2.5C29.216,2.5 31.981,4.941 32.388,8.194L35.364,7.822C34.77,3.068 30.729,-0.5 25.938,-0.5L25.938,2.5ZM32.388,8.194L34.388,24.194L37.364,23.822L35.364,7.822L32.388,8.194ZM34.388,24.194C34.872,28.073 31.847,31.5 27.938,31.5L27.938,34.5C33.652,34.5 38.073,29.492 37.364,23.822L34.388,24.194ZM27.938,31.5L10.062,31.5L10.062,34.5L27.938,34.5L27.938,31.5ZM10.062,31.5C6.152,31.5 3.127,28.073 3.612,24.194L0.636,23.822C-0.073,29.492 4.348,34.5 10.062,34.5L10.062,31.5ZM3.612,24.194L5.612,8.194L2.636,7.822L0.636,23.822L3.612,24.194Z" fill="#1A2530"/>
</svg>
