<svg width="42" height="42" viewBox="0 0 42 42" fill="none" xmlns="http://www.w3.org/2000/svg" xmlns:xlink="http://www.w3.org/1999/xlink">
<path d="M25.116,4.306C22.722,2.347 19.278,2.347 16.884,4.306L4.535,14.41C3.596,15.178 3.934,16.687 5.111,16.982C7.103,17.479 8.5,19.269 8.5,21.322L8.5,31C8.5,34.59 11.41,37.5 15,37.5L27,37.5C30.59,37.5 33.5,34.59 33.5,31L33.5,21.322C33.5,19.269 34.897,17.479 36.889,16.982C38.066,16.687 38.404,15.178 37.465,14.41L25.116,4.306ZM14.984,1.984C18.484,-0.879 23.516,-0.879 27.016,1.984L39.365,12.088C42.213,14.418 41.187,18.999 37.617,19.892C36.96,20.056 36.5,20.646 36.5,21.322L36.5,31C36.5,36.247 32.247,40.5 27,40.5L15,40.5C9.753,40.5 5.5,36.247 5.5,31L5.5,21.322C5.5,20.646 5.04,20.056 4.383,19.892C0.813,18.999 -0.213,14.418 2.635,12.088L14.984,1.984Z" clip-rule="evenodd" fill-rule="evenodd" fill="#5B9EE1"/>
</svg>
