<svg width="36" height="44" viewBox="0 0 36 44" fill="none" xmlns="http://www.w3.org/2000/svg" xmlns:xlink="http://www.w3.org/1999/xlink">
<path d="M31.714,9.58C32.034,10.344 32.914,10.704 33.678,10.383C34.441,10.063 34.801,9.184 34.481,8.42L31.714,9.58ZM26.557,0.607C25.788,0.3 24.915,0.674 24.607,1.443C24.3,2.212 24.674,3.085 25.443,3.393L26.557,0.607ZM-0.383,8.42C-0.704,9.184 -0.344,10.063 0.42,10.383C1.184,10.704 2.063,10.344 2.383,9.58L-0.383,8.42ZM8.654,3.393C9.423,3.085 9.798,2.212 9.49,1.443C9.182,0.674 8.309,0.3 7.54,0.607L8.654,3.393ZM21.54,5.747L20.04,5.747C20.04,6.388 20.447,6.959 21.054,7.166L21.54,5.747ZM12.46,5.747L12.946,7.166C13.552,6.959 13.96,6.388 13.96,5.747L12.46,5.747ZM24.405,37.526C24.695,36.751 24.302,35.886 23.526,35.595C22.751,35.305 21.886,35.698 21.595,36.474L24.405,37.526ZM12.405,36.474C12.114,35.698 11.249,35.305 10.474,35.595C9.698,35.886 9.305,36.751 9.595,37.526L12.405,36.474ZM31.56,9.214L31.714,9.58L34.481,8.42L34.327,8.054L31.56,9.214ZM25.443,3.393L25.777,3.526L26.892,0.741L26.557,0.607L25.443,3.393ZM34.327,8.054C32.928,4.719 30.249,2.084 26.892,0.741L25.777,3.526C28.389,4.571 30.472,6.62 31.56,9.214L34.327,8.054ZM-0.23,8.054L-0.383,8.42L2.383,9.58L2.537,9.214L-0.23,8.054ZM7.54,0.607L7.206,0.741L8.32,3.526L8.654,3.393L7.54,0.607ZM2.537,9.214C3.625,6.62 5.708,4.571 8.32,3.526L7.206,0.741C3.848,2.084 1.169,4.719 -0.23,8.054L2.537,9.214ZM28.554,31.5L5.446,31.5L5.446,34.5L28.554,34.5L28.554,31.5ZM27.989,15.12L28.883,23L31.864,22.661L30.97,14.781L27.989,15.12ZM5.117,23L6.011,15.12L3.03,14.781L2.136,22.661L5.117,23ZM3.038,27.717C4.192,26.36 4.92,24.73 5.117,23L2.136,22.661C2.01,23.769 1.541,24.846 0.753,25.772L3.038,27.717ZM28.883,23C29.079,24.73 29.808,26.36 30.962,27.717L33.247,25.772C32.459,24.846 31.99,23.769 31.864,22.661L28.883,23ZM5.446,31.5C4.135,31.5 3.209,30.852 2.781,30.098C2.368,29.371 2.374,28.496 3.038,27.717L0.753,25.772C-0.777,27.57 -0.825,29.823 0.172,31.579C1.153,33.309 3.099,34.5 5.446,34.5L5.446,31.5ZM28.554,34.5C30.901,34.5 32.846,33.309 33.828,31.579C34.824,29.823 34.777,27.57 33.247,25.772L30.962,27.717C31.626,28.496 31.632,29.371 31.219,30.098C30.791,30.852 29.864,31.5 28.554,31.5L28.554,34.5ZM23.04,5.747L23.04,5.54L20.04,5.54L20.04,5.747L23.04,5.747ZM30.97,14.781C30.411,9.861 26.761,5.95 22.026,4.328L21.054,7.166C24.888,8.479 27.583,11.542 27.989,15.12L30.97,14.781ZM13.96,5.747L13.96,5.54L10.96,5.54L10.96,5.747L13.96,5.747ZM6.011,15.12C6.417,11.542 9.112,8.479 12.946,7.166L11.974,4.328C7.239,5.95 3.589,9.861 3.03,14.781L6.011,15.12ZM17,2.5C18.679,2.5 20.04,3.861 20.04,5.54L23.04,5.54C23.04,2.204 20.336,-0.5 17,-0.5L17,2.5ZM17,-0.5C13.664,-0.5 10.96,2.204 10.96,5.54L13.96,5.54C13.96,3.861 15.321,2.5 17,2.5L17,-0.5ZM21.595,36.474C20.95,38.196 19.169,39.5 17,39.5L17,42.5C20.371,42.5 23.303,40.465 24.405,37.526L21.595,36.474ZM17,39.5C14.831,39.5 13.05,38.196 12.405,36.474L9.595,37.526C10.697,40.465 13.629,42.5 17,42.5L17,39.5Z" fill="#707B81"/>
</svg>
