<svg width="40" height="44" viewBox="0 0 40 44" fill="none" xmlns="http://www.w3.org/2000/svg" xmlns:xlink="http://www.w3.org/1999/xlink">
<path d="M7.5,13C7.5,12.172 6.828,11.5 6,11.5C5.172,11.5 4.5,12.172 4.5,13L7.5,13ZM35.5,13C35.5,12.172 34.828,11.5 34,11.5C33.172,11.5 32.5,12.172 32.5,13L35.5,13ZM25.5,19C25.5,18.172 24.828,17.5 24,17.5C23.172,17.5 22.5,18.172 22.5,19L25.5,19ZM22.5,31C22.5,31.828 23.172,32.5 24,32.5C24.828,32.5 25.5,31.828 25.5,31L22.5,31ZM17.5,19C17.5,18.172 16.828,17.5 16,17.5C15.172,17.5 14.5,18.172 14.5,19L17.5,19ZM14.5,31C14.5,31.828 15.172,32.5 16,32.5C16.828,32.5 17.5,31.828 17.5,31L14.5,31ZM38,8.5C38.828,8.5 39.5,7.828 39.5,7C39.5,6.172 38.828,5.5 38,5.5L38,8.5ZM2,5.5C1.172,5.5 0.5,6.172 0.5,7C0.5,7.828 1.172,8.5 2,8.5L2,5.5ZM25.187,2.781L23.939,3.613L23.939,3.613L25.187,2.781ZM14.813,2.781L13.564,1.949L13.564,1.949L14.813,2.781ZM14,42.5L26,42.5L26,39.5L14,39.5L14,42.5ZM4.5,13L4.5,33L7.5,33L7.5,13L4.5,13ZM35.5,33L35.5,13L32.5,13L32.5,33L35.5,33ZM26,42.5C31.247,42.5 35.5,38.247 35.5,33L32.5,33C32.5,36.59 29.59,39.5 26,39.5L26,42.5ZM14,39.5C10.41,39.5 7.5,36.59 7.5,33L4.5,33C4.5,38.247 8.753,42.5 14,42.5L14,39.5ZM22.5,19L22.5,31L25.5,31L25.5,19L22.5,19ZM14.5,19L14.5,31L17.5,31L17.5,19L14.5,19ZM18.141,2.5L21.859,2.5L21.859,-0.5L18.141,-0.5L18.141,2.5ZM23.939,3.613L26.752,7.832L29.248,6.168L26.436,1.949L23.939,3.613ZM28,5.5L12,5.5L12,8.5L28,8.5L28,5.5ZM13.248,7.832L16.061,3.613L13.564,1.949L10.752,6.168L13.248,7.832ZM28,8.5L38,8.5L38,5.5L28,5.5L28,8.5ZM12,5.5L2,5.5L2,8.5L12,8.5L12,5.5ZM21.859,2.5C22.695,2.5 23.476,2.918 23.939,3.613L26.436,1.949C25.415,0.419 23.698,-0.5 21.859,-0.5L21.859,2.5ZM18.141,-0.5C16.302,-0.5 14.585,0.419 13.564,1.949L16.061,3.613C16.524,2.918 17.305,2.5 18.141,2.5L18.141,-0.5Z" fill="#F87265"/>
</svg>
