<svg width="16" height="16" viewBox="0 0 16 16" fill="none" xmlns="http://www.w3.org/2000/svg" xmlns:xlink="http://www.w3.org/1999/xlink">
<path d="M1,1L1,-0.5C0.172,-0.5 -0.5,0.172 -0.5,1L1,1ZM1,13L-0.5,13C-0.5,13.828 0.172,14.5 1,14.5L1,13ZM14.5,7C14.5,2.858 11.142,-0.5 7,-0.5L7,2.5C9.485,2.5 11.5,4.515 11.5,7L14.5,7ZM7,-0.5L1,-0.5L1,2.5L7,2.5L7,-0.5ZM-0.5,1L-0.5,13L2.5,13L2.5,1L-0.5,1ZM1,14.5L7,14.5L7,11.5L1,11.5L1,14.5ZM7,14.5C11.142,14.5 14.5,11.142 14.5,7L11.5,7C11.5,9.485 9.485,11.5 7,11.5L7,14.5Z" fill="#707B81"/>
</svg>
