<svg width="40" height="40" viewBox="0 0 40 40" fill="none" xmlns="http://www.w3.org/2000/svg" xmlns:xlink="http://www.w3.org/1999/xlink">
<path d="M2,36.5C1.172,36.5 0.5,37.172 0.5,38C0.5,38.828 1.172,39.5 2,39.5L2,36.5ZM38,39.5C38.828,39.5 39.5,38.828 39.5,38C39.5,37.172 38.828,36.5 38,36.5L38,39.5ZM10.639,31.976L10.427,30.491L10.427,30.491L10.639,31.976ZM8.024,29.361L6.539,29.149L6.539,29.149L8.024,29.361ZM10.312,19.88L9.252,18.819L9.252,18.819L10.312,19.88ZM9.005,22.495L10.49,22.707L10.49,22.707L9.005,22.495ZM20.12,29.688L21.181,30.748L21.181,30.748L20.12,29.688ZM17.505,30.995L17.717,32.48L17.717,32.48L17.505,30.995ZM36.646,6.623L35.585,7.684L35.585,7.684L36.646,6.623ZM36.646,13.162L35.585,12.101L35.585,12.101L36.646,13.162ZM33.377,3.354L34.437,2.294L34.437,2.294L33.377,3.354ZM26.838,3.354L27.899,4.415L27.899,4.415L26.838,3.354ZM25.069,6.623C25.069,5.795 24.397,5.123 23.569,5.123C22.74,5.123 22.069,5.795 22.069,6.623L25.069,6.623ZM33.377,17.931C34.205,17.931 34.877,17.26 34.877,16.431C34.877,15.603 34.205,14.931 33.377,14.931L33.377,17.931ZM2,39.5L38,39.5L38,36.5L2,36.5L2,39.5ZM32.316,4.415L35.585,7.684L37.706,5.563L34.437,2.294L32.316,4.415ZM35.585,12.101L19.059,28.627L21.181,30.748L37.706,14.223L35.585,12.101ZM11.373,20.941L27.899,4.415L25.777,2.294L9.252,18.819L11.373,20.941ZM17.293,29.51L10.427,30.491L10.851,33.461L17.717,32.48L17.293,29.51ZM9.509,29.573L10.49,22.707L7.52,22.283L6.539,29.149L9.509,29.573ZM10.427,30.491C9.891,30.568 9.432,30.109 9.509,29.573L6.539,29.149C6.18,31.664 8.336,33.82 10.851,33.461L10.427,30.491ZM9.252,18.819C8.315,19.756 7.707,20.972 7.52,22.283L10.49,22.707C10.585,22.038 10.895,21.418 11.373,20.941L9.252,18.819ZM19.059,28.627C18.582,29.105 17.962,29.415 17.293,29.51L17.717,32.48C19.028,32.293 20.244,31.685 21.181,30.748L19.059,28.627ZM35.585,7.684C36.805,8.904 36.805,10.881 35.585,12.101L37.706,14.223C40.098,11.831 40.098,7.954 37.706,5.563L35.585,7.684ZM34.437,2.294C32.046,-0.098 28.169,-0.098 25.777,2.294L27.899,4.415C29.119,3.195 31.096,3.195 32.316,4.415L34.437,2.294ZM23.569,6.623C22.069,6.623 22.069,6.624 22.069,6.625C22.069,6.625 22.069,6.626 22.069,6.627C22.069,6.628 22.069,6.629 22.069,6.63C22.069,6.632 22.069,6.635 22.069,6.638C22.069,6.643 22.069,6.65 22.069,6.657C22.069,6.671 22.07,6.689 22.07,6.709C22.072,6.751 22.074,6.805 22.079,6.87C22.087,7.001 22.104,7.179 22.135,7.397C22.197,7.834 22.319,8.433 22.554,9.141C23.028,10.562 23.96,12.405 25.777,14.223L27.899,12.101C26.447,10.65 25.744,9.224 25.401,8.192C25.228,7.674 25.145,7.252 25.105,6.973C25.085,6.834 25.076,6.731 25.072,6.67C25.07,6.64 25.069,6.621 25.069,6.613C25.069,6.609 25.069,6.607 25.069,6.609C25.069,6.61 25.069,6.612 25.069,6.614C25.069,6.615 25.069,6.617 25.069,6.618C25.069,6.619 25.069,6.62 25.069,6.621C25.069,6.621 25.069,6.622 25.069,6.622C25.069,6.623 25.069,6.623 23.569,6.623ZM25.777,14.223C27.595,16.04 29.438,16.972 30.859,17.446C31.567,17.681 32.166,17.803 32.603,17.865C32.821,17.896 32.999,17.913 33.13,17.921C33.195,17.926 33.249,17.928 33.291,17.93C33.311,17.93 33.329,17.931 33.343,17.931C33.35,17.931 33.357,17.931 33.362,17.931C33.365,17.931 33.368,17.931 33.37,17.931C33.371,17.931 33.372,17.931 33.373,17.931C33.374,17.931 33.375,17.931 33.375,17.931C33.376,17.931 33.377,17.931 33.377,16.431C33.377,14.931 33.377,14.931 33.378,14.931C33.378,14.931 33.379,14.931 33.379,14.931C33.38,14.931 33.381,14.931 33.382,14.931C33.383,14.931 33.385,14.931 33.386,14.931C33.388,14.931 33.39,14.931 33.391,14.931C33.393,14.931 33.391,14.931 33.387,14.931C33.379,14.931 33.36,14.93 33.329,14.928C33.269,14.924 33.166,14.915 33.027,14.895C32.748,14.855 32.326,14.772 31.808,14.6C30.776,14.256 29.35,13.553 27.899,12.101L25.777,14.223Z" fill="#5B9EE1"/>
</svg>
