<svg width="34" height="34" viewBox="0 0 34 34" fill="none" xmlns="http://www.w3.org/2000/svg" xmlns:xlink="http://www.w3.org/1999/xlink">
<path d="M29.905,22.829L29.347,24.221L29.348,24.221L29.905,22.829ZM26.514,21.472L27.072,20.08L27.071,20.08L26.514,21.472ZM22.295,23.077L20.953,22.406L20.953,22.406L22.295,23.077ZM22,23.667L21.706,25.137C22.369,25.27 23.039,24.942 23.342,24.337L22,23.667ZM10.333,12L9.663,10.658C9.057,10.961 8.73,11.631 8.862,12.294L10.333,12ZM10.923,11.705L10.253,10.363L10.253,10.363L10.923,11.705ZM12.528,7.486L13.92,6.929L13.92,6.929L12.528,7.486ZM11.171,4.095L12.564,3.538L12.564,3.538L11.171,4.095ZM33.5,28.667L33.5,25.923L30.5,25.923L30.5,28.667L33.5,28.667ZM33.5,25.923C33.5,23.947 32.297,22.17 30.462,21.436L29.348,24.221C30.044,24.5 30.5,25.174 30.5,25.923L33.5,25.923ZM30.462,21.436L27.072,20.08L25.957,22.865L29.347,24.221L30.462,21.436ZM27.071,20.08C24.738,19.146 22.078,20.157 20.953,22.406L23.637,23.747C24.063,22.895 25.072,22.511 25.957,22.865L27.071,20.08ZM20.953,22.406L20.658,22.996L23.342,24.337L23.637,23.747L20.953,22.406ZM22,23.667C22.294,22.196 22.295,22.196 22.295,22.196C22.295,22.196 22.295,22.196 22.296,22.196C22.296,22.196 22.297,22.196 22.297,22.196C22.298,22.196 22.298,22.197 22.298,22.197C22.299,22.197 22.298,22.197 22.296,22.196C22.293,22.196 22.286,22.194 22.276,22.192C22.254,22.187 22.218,22.179 22.169,22.167C22.07,22.143 21.917,22.103 21.72,22.045C21.325,21.929 20.757,21.74 20.091,21.455C18.751,20.88 17.055,19.933 15.561,18.439L13.439,20.561C15.279,22.4 17.333,23.536 18.909,24.212C19.701,24.551 20.383,24.779 20.874,24.923C21.119,24.996 21.318,25.047 21.46,25.082C21.531,25.099 21.588,25.112 21.629,25.121C21.65,25.126 21.667,25.129 21.679,25.132C21.686,25.133 21.691,25.135 21.696,25.135C21.698,25.136 21.7,25.136 21.702,25.137C21.702,25.137 21.703,25.137 21.704,25.137C21.704,25.137 21.705,25.137 21.705,25.137C21.705,25.137 21.706,25.137 22,23.667ZM15.561,18.439C14.067,16.945 13.12,15.249 12.545,13.909C12.26,13.243 12.071,12.675 11.955,12.28C11.897,12.083 11.857,11.93 11.833,11.831C11.821,11.782 11.813,11.746 11.808,11.724C11.806,11.714 11.804,11.707 11.804,11.704C11.803,11.702 11.803,11.701 11.803,11.702C11.803,11.702 11.804,11.702 11.804,11.703C11.804,11.703 11.804,11.704 11.804,11.704C11.804,11.704 11.804,11.705 11.804,11.705C11.804,11.705 11.804,11.706 10.333,12C8.862,12.294 8.863,12.295 8.863,12.295C8.863,12.295 8.863,12.296 8.863,12.296C8.863,12.297 8.863,12.298 8.863,12.298C8.864,12.3 8.864,12.302 8.865,12.304C8.865,12.309 8.867,12.314 8.868,12.321C8.871,12.333 8.874,12.35 8.879,12.371C8.888,12.412 8.901,12.469 8.918,12.54C8.953,12.682 9.004,12.881 9.077,13.126C9.221,13.617 9.449,14.299 9.788,15.091C10.464,16.668 11.6,18.721 13.439,20.561L15.561,18.439ZM11.004,13.342L11.594,13.047L10.253,10.363L9.663,10.658L11.004,13.342ZM11.594,13.047C13.843,11.922 14.854,9.262 13.92,6.929L11.135,8.043C11.489,8.928 11.105,9.937 10.253,10.363L11.594,13.047ZM13.92,6.929L12.564,3.538L9.779,4.652L11.135,8.043L13.92,6.929ZM12.564,3.538C11.83,1.703 10.053,0.5 8.077,0.5L8.077,3.5C8.826,3.5 9.5,3.956 9.779,4.652L12.564,3.538ZM8.077,0.5L5.333,0.5L5.333,3.5L8.077,3.5L8.077,0.5ZM5.333,0.5C2.664,0.5 0.5,2.664 0.5,5.333L3.5,5.333C3.5,4.321 4.321,3.5 5.333,3.5L5.333,0.5ZM0.5,5.333C0.5,20.889 13.111,33.5 28.667,33.5L28.667,30.5C14.767,30.5 3.5,19.233 3.5,5.333L0.5,5.333ZM28.667,33.5C31.336,33.5 33.5,31.336 33.5,28.667L30.5,28.667C30.5,29.679 29.679,30.5 28.667,30.5L28.667,33.5Z" fill="#1A2530"/>
</svg>
