<svg width="36" height="44" viewBox="0 0 36 44" fill="none" xmlns="http://www.w3.org/2000/svg" xmlns:xlink="http://www.w3.org/1999/xlink">
<path d="M21.54,5.747L20.04,5.747C20.04,6.388 20.448,6.959 21.054,7.166L21.54,5.747ZM12.46,5.747L12.946,7.166C13.553,6.959 13.96,6.388 13.96,5.747L12.46,5.747ZM24.405,37.526C24.696,36.751 24.302,35.886 23.527,35.595C22.751,35.305 21.886,35.698 21.596,36.474L24.405,37.526ZM12.405,36.474C12.114,35.698 11.25,35.305 10.474,35.595C9.698,35.886 9.305,36.751 9.596,37.526L12.405,36.474ZM28.555,31.5L5.446,31.5L5.446,34.5L28.555,34.5L28.555,31.5ZM27.989,15.12L28.883,23L31.864,22.661L30.97,14.781L27.989,15.12ZM5.117,23L6.012,15.12L3.031,14.781L2.136,22.661L5.117,23ZM3.038,27.717C4.193,26.36 4.921,24.73 5.117,23L2.136,22.661C2.011,23.769 1.542,24.846 0.754,25.772L3.038,27.717ZM28.883,23C29.08,24.73 29.808,26.36 30.962,27.717L33.247,25.772C32.459,24.846 31.99,23.769 31.864,22.661L28.883,23ZM5.446,31.5C4.136,31.5 3.209,30.852 2.781,30.098C2.368,29.371 2.374,28.496 3.038,27.717L0.754,25.772C-0.777,27.57 -0.824,29.823 0.172,31.579C1.154,33.309 3.099,34.5 5.446,34.5L5.446,31.5ZM28.555,34.5C30.901,34.5 32.847,33.309 33.828,31.579C34.825,29.823 34.777,27.57 33.247,25.772L30.962,27.717C31.626,28.496 31.632,29.371 31.219,30.098C30.791,30.852 29.865,31.5 28.555,31.5L28.555,34.5ZM23.04,5.747L23.04,5.54L20.04,5.54L20.04,5.747L23.04,5.747ZM30.97,14.781C30.411,9.861 26.761,5.95 22.026,4.328L21.054,7.166C24.888,8.479 27.583,11.542 27.989,15.12L30.97,14.781ZM13.96,5.747L13.96,5.54L10.96,5.54L10.96,5.747L13.96,5.747ZM6.012,15.12C6.418,11.542 9.112,8.479 12.946,7.166L11.974,4.328C7.239,5.95 3.589,9.861 3.031,14.781L6.012,15.12ZM17,2.5C18.679,2.5 20.04,3.861 20.04,5.54L23.04,5.54C23.04,2.204 20.336,-0.5 17,-0.5L17,2.5ZM17,-0.5C13.664,-0.5 10.96,2.204 10.96,5.54L13.96,5.54C13.96,3.861 15.321,2.5 17,2.5L17,-0.5ZM21.596,36.474C20.95,38.196 19.169,39.5 17,39.5L17,42.5C20.371,42.5 23.303,40.465 24.405,37.526L21.596,36.474ZM17,39.5C14.831,39.5 13.05,38.196 12.405,36.474L9.596,37.526C10.697,40.465 13.629,42.5 17,42.5L17,39.5Z" fill="#707B81"/>
</svg>
