<svg width="32" height="32" viewBox="0 0 32 32" fill="none" xmlns="http://www.w3.org/2000/svg" xmlns:xlink="http://www.w3.org/1999/xlink">
<path d="M25.375,23.254C24.789,22.668 23.84,22.668 23.254,23.254C22.668,23.84 22.668,24.789 23.254,25.375L25.375,23.254ZM28.269,30.391C28.855,30.976 29.805,30.976 30.391,30.391C30.977,29.805 30.977,28.855 30.391,28.269L28.269,30.391ZM23.254,25.375L28.269,30.391L30.391,28.269L25.375,23.254L23.254,25.375ZM29.397,14.283C29.397,5.937 22.63,-0.83 14.283,-0.83L14.283,2.17C20.974,2.17 26.397,7.593 26.397,14.283L29.397,14.283ZM14.283,-0.83C5.936,-0.83 -0.83,5.937 -0.83,14.283L2.17,14.283C2.17,7.593 7.593,2.17 14.283,2.17L14.283,-0.83ZM-0.83,14.283C-0.83,22.63 5.936,29.397 14.283,29.397L14.283,26.397C7.593,26.397 2.17,20.974 2.17,14.283L-0.83,14.283ZM14.283,29.397C22.631,29.397 29.397,22.63 29.397,14.283L26.397,14.283C26.397,20.974 20.974,26.397 14.283,26.397L14.283,29.397Z" fill="#707B81"/>
</svg>
