<svg width="30" height="28" viewBox="0 0 30 28" fill="none" xmlns="http://www.w3.org/2000/svg" xmlns:xlink="http://www.w3.org/1999/xlink">
<path d="M8.333,5L8.333,6.2C8.735,6.2 9.109,6 9.332,5.666L8.333,5ZM21.667,5L20.668,5.666C20.891,6 21.266,6.2 21.667,6.2L21.667,5ZM17.8,15C17.8,16.546 16.547,17.8 15,17.8L15,20.2C17.872,20.2 20.2,17.872 20.2,15L17.8,15ZM15,17.8C13.454,17.8 12.2,16.546 12.2,15L9.8,15C9.8,17.872 12.128,20.2 15,20.2L15,17.8ZM12.2,15C12.2,13.454 13.454,12.2 15,12.2L15,9.8C12.128,9.8 9.8,12.128 9.8,15L12.2,15ZM15,12.2C16.547,12.2 17.8,13.454 17.8,15L20.2,15C20.2,12.128 17.872,9.8 15,9.8L15,12.2ZM9.332,5.666L11.207,2.853L9.21,1.522L7.335,4.334L9.332,5.666ZM12.427,2.2L17.573,2.2L17.573,-0.2L12.427,-0.2L12.427,2.2ZM18.793,2.853L20.668,5.666L22.665,4.334L20.79,1.522L18.793,2.853ZM17.573,2.2C18.063,2.2 18.521,2.445 18.793,2.853L20.79,1.522C20.073,0.446 18.866,-0.2 17.573,-0.2L17.573,2.2ZM11.207,2.853C11.479,2.445 11.937,2.2 12.427,2.2L12.427,-0.2C11.134,-0.2 9.927,0.446 9.21,1.522L11.207,2.853ZM27.134,10.333L27.134,19.667L29.534,19.667L29.534,10.333L27.134,10.333ZM23,23.8L7,23.8L7,26.2L23,26.2L23,23.8ZM2.867,19.667L2.867,10.333L0.467,10.333L0.467,19.667L2.867,19.667ZM7,23.8C4.717,23.8 2.867,21.949 2.867,19.667L0.467,19.667C0.467,23.275 3.392,26.2 7,26.2L7,23.8ZM27.134,19.667C27.134,21.949 25.283,23.8 23,23.8L23,26.2C26.608,26.2 29.534,23.275 29.534,19.667L27.134,19.667ZM23,6.2C25.283,6.2 27.134,8.051 27.134,10.333L29.534,10.333C29.534,6.725 26.608,3.8 23,3.8L23,6.2ZM7,3.8C3.392,3.8 0.467,6.725 0.467,10.333L2.867,10.333C2.867,8.051 4.717,6.2 7,6.2L7,3.8ZM7,6.2L8.333,6.2L8.333,3.8L7,3.8L7,6.2ZM23,3.8L21.667,3.8L21.667,6.2L23,6.2L23,3.8Z" fill="#F0F0F0"/>
</svg>
