<svg width="44" height="40" viewBox="0 0 44 40" fill="none" xmlns="http://www.w3.org/2000/svg" xmlns:xlink="http://www.w3.org/1999/xlink">
<path d="M42.5,9C42.5,3.753 38.247,-0.5 33,-0.5L33,2.5C36.59,2.5 39.5,5.41 39.5,9L42.5,9ZM33,-0.5L9,-0.5L9,2.5L33,2.5L33,-0.5ZM9,-0.5C3.753,-0.5 -0.5,3.753 -0.5,9L2.5,9C2.5,5.41 5.41,2.5 9,2.5L9,-0.5ZM-0.5,9L-0.5,29L2.5,29L2.5,9L-0.5,9ZM-0.5,29C-0.5,34.247 3.753,38.5 9,38.5L9,35.5C5.41,35.5 2.5,32.59 2.5,29L-0.5,29ZM9,38.5L33,38.5L33,35.5L9,35.5L9,38.5ZM33,38.5C38.247,38.5 42.5,34.247 42.5,29L39.5,29C39.5,32.59 36.59,35.5 33,35.5L33,38.5ZM42.5,29L42.5,9L39.5,9L39.5,29L42.5,29Z" fill="#707B81"/>
</svg>
