<svg width="32" height="18" viewBox="0 0 32 18" fill="none" xmlns="http://www.w3.org/2000/svg" xmlns:xlink="http://www.w3.org/1999/xlink">
<path d="M5.771,4.392C3.397,5.579 2.5,6.941 2.5,8C2.5,9.059 3.397,10.421 5.771,11.608C8.056,12.75 11.316,13.5 15,13.5C18.684,13.5 21.944,12.75 24.229,11.608C26.603,10.421 27.5,9.059 27.5,8C27.5,6.941 26.603,5.579 24.229,4.392C21.944,3.25 18.684,2.5 15,2.5C11.316,2.5 8.056,3.25 5.771,4.392ZM4.43,1.709C7.212,0.317 10.952,-0.5 15,-0.5C19.048,-0.5 22.788,0.317 25.57,1.709C28.263,3.055 30.5,5.193 30.5,8C30.5,10.807 28.263,12.945 25.57,14.291C22.788,15.683 19.048,16.5 15,16.5C10.952,16.5 7.212,15.683 4.43,14.291C1.737,12.945 -0.5,10.807 -0.5,8C-0.5,5.193 1.737,3.055 4.43,1.709Z" clip-rule="evenodd" fill-rule="evenodd" fill="#707B81"/>
</svg>
