<svg width="40" height="44" viewBox="0 0 40 44" fill="none" xmlns="http://www.w3.org/2000/svg" xmlns:xlink="http://www.w3.org/1999/xlink">
<path d="M7.5,14C7.5,13.172 6.828,12.5 6,12.5C5.172,12.5 4.5,13.172 4.5,14L7.5,14ZM35.5,14C35.5,13.172 34.828,12.5 34,12.5C33.172,12.5 32.5,13.172 32.5,14L35.5,14ZM25.5,20C25.5,19.172 24.828,18.5 24,18.5C23.172,18.5 22.5,19.172 22.5,20L25.5,20ZM22.5,32C22.5,32.828 23.172,33.5 24,33.5C24.828,33.5 25.5,32.828 25.5,32L22.5,32ZM17.5,20C17.5,19.172 16.828,18.5 16,18.5C15.172,18.5 14.5,19.172 14.5,20L17.5,20ZM14.5,32C14.5,32.828 15.172,33.5 16,33.5C16.828,33.5 17.5,32.828 17.5,32L14.5,32ZM38,9.5C38.828,9.5 39.5,8.828 39.5,8C39.5,7.172 38.828,6.5 38,6.5L38,9.5ZM2,6.5C1.172,6.5 0.5,7.172 0.5,8C0.5,8.828 1.172,9.5 2,9.5L2,6.5ZM25.187,3.781L23.939,4.613L23.939,4.613L25.187,3.781ZM14.813,3.781L13.564,2.949L13.564,2.949L14.813,3.781ZM14,43.5L26,43.5L26,40.5L14,40.5L14,43.5ZM4.5,14L4.5,34L7.5,34L7.5,14L4.5,14ZM35.5,34L35.5,14L32.5,14L32.5,34L35.5,34ZM26,43.5C31.247,43.5 35.5,39.247 35.5,34L32.5,34C32.5,37.59 29.59,40.5 26,40.5L26,43.5ZM14,40.5C10.41,40.5 7.5,37.59 7.5,34L4.5,34C4.5,39.247 8.753,43.5 14,43.5L14,40.5ZM22.5,20L22.5,32L25.5,32L25.5,20L22.5,20ZM14.5,20L14.5,32L17.5,32L17.5,20L14.5,20ZM18.141,3.5L21.859,3.5L21.859,0.5L18.141,0.5L18.141,3.5ZM23.939,4.613L26.752,8.832L29.248,7.168L26.436,2.949L23.939,4.613ZM28,6.5L12,6.5L12,9.5L28,9.5L28,6.5ZM13.248,8.832L16.061,4.613L13.564,2.949L10.752,7.168L13.248,8.832ZM28,9.5L38,9.5L38,6.5L28,6.5L28,9.5ZM12,6.5L2,6.5L2,9.5L12,9.5L12,6.5ZM21.859,3.5C22.695,3.5 23.476,3.918 23.939,4.613L26.436,2.949C25.415,1.419 23.698,0.5 21.859,0.5L21.859,3.5ZM18.141,0.5C16.302,0.5 14.585,1.419 13.564,2.949L16.061,4.613C16.524,3.918 17.305,3.5 18.141,3.5L18.141,0.5Z" fill="#707B81"/>
</svg>
