<svg width="10" height="10" viewBox="0 0 10 10" fill="none" xmlns="http://www.w3.org/2000/svg" xmlns:xlink="http://www.w3.org/1999/xlink">
<path d="M4.372,10C1.704,10 0.121,8.635 0,6.668L2.551,6.668C2.551,7.324 2.914,8.196 4.493,8.251C5.587,8.251 6.192,7.595 6.192,7.102C6.071,6.338 5.098,6.284 4.129,6.117C3.254,6.013 2.396,5.794 1.578,5.465C1.162,5.233 0.818,4.891 0.583,4.476C0.347,4.062 0.229,3.591 0.242,3.115C0.242,1.365 1.704,0 4.251,0C6.681,0 8.259,1.257 8.376,3.169L5.95,3.169C5.95,2.681 5.829,1.858 4.372,1.858C3.399,1.858 2.793,2.021 2.672,2.731C2.672,3.716 4.735,3.662 6.313,4.042C7.77,4.426 8.743,5.353 8.743,6.668C8.743,9.073 6.802,10 4.372,10Z" fill="#1A2530"/>
</svg>
