<svg width="10" height="12" viewBox="0 0 10 12" fill="none" xmlns="http://www.w3.org/2000/svg" xmlns:xlink="http://www.w3.org/1999/xlink">
<path d="M2.234,7.438C2.234,8.824 3.412,9.965 4.941,9.965C6.35,9.965 7.649,8.824 7.649,7.438C7.623,6.774 7.329,6.144 6.826,5.675C6.324,5.206 5.65,4.933 4.941,4.91C4.226,4.913 3.54,5.18 3.033,5.653C2.527,6.127 2.239,6.768 2.234,7.438ZM4.824,11.999C4.186,12 3.555,11.883 2.966,11.653C2.377,11.424 1.842,11.087 1.393,10.663C0.945,10.238 0.59,9.735 0.351,9.181C0.112,8.627 -0.007,8.035 0,7.438C0,4.91 2.117,2.925 4.824,2.925C5.88,2.925 6.823,3.175 7.649,3.717L7.649,0L10,0L10,11.799L7.649,11.799L7.649,11.253C6.805,11.755 5.823,12.014 4.824,11.999Z" fill="#1A2530"/>
</svg>
