<svg width="10" height="10" viewBox="0 0 10 10" fill="none" xmlns="http://www.w3.org/2000/svg" xmlns:xlink="http://www.w3.org/1999/xlink">
<path d="M2.234,4.973C2.234,6.501 3.529,7.758 4.937,7.758C6.471,7.758 7.645,6.501 7.645,4.973C7.645,3.499 6.471,2.188 4.937,2.188C4.229,2.213 3.556,2.514 3.054,3.031C2.552,3.548 2.259,4.242 2.234,4.973ZM4.82,10C2.234,10 0,7.758 0,4.973C0,2.188 2.234,0 4.82,0C5.88,0 6.823,0.276 7.645,0.873L7.645,0.109L10,0.109L10,9.779L7.645,9.779L7.645,9.177C6.94,9.724 5.88,10 4.82,10Z" fill="#1A2530"/>
</svg>
