<svg width="10" height="10" viewBox="0 0 10 10" fill="none" xmlns="http://www.w3.org/2000/svg" xmlns:xlink="http://www.w3.org/1999/xlink">
<path d="M6.408,1.592L5.346,2.652L5.347,2.653L6.408,1.592ZM6.408,6.072L5.348,5.011L5.347,5.011L6.408,6.072ZM1.928,6.072L2.99,5.012L2.989,5.011L1.928,6.072ZM1.928,1.592L2.988,2.654L2.989,2.653L1.928,1.592ZM5.347,2.653C6,3.305 5.999,4.361 5.348,5.011L7.468,7.134C9.293,5.311 9.292,2.355 7.469,0.531L5.347,2.653ZM5.347,5.011C4.695,5.664 3.639,5.663 2.99,5.012L0.866,7.132C2.689,8.957 5.645,8.956 7.469,7.133L5.347,5.011ZM2.989,5.011C2.336,4.359 2.337,3.303 2.988,2.654L0.868,0.531C-0.957,2.353 -0.956,5.309 0.867,7.133L2.989,5.011ZM2.989,2.653C3.641,2 4.697,2.001 5.346,2.652L7.47,0.532C5.647,-1.293 2.691,-1.292 0.867,0.531L2.989,2.653Z" fill="#707B81"/>
</svg>
