<svg width="38" height="34" viewBox="0 0 38 34" fill="none" xmlns="http://www.w3.org/2000/svg" xmlns:xlink="http://www.w3.org/1999/xlink">
<path d="M9.832,9.085C9.143,8.626 8.212,8.812 7.752,9.501C7.293,10.191 7.479,11.122 8.168,11.581L9.832,9.085ZM15.302,14.535L16.134,13.287L16.134,13.287L15.302,14.535ZM22.698,14.535L21.866,13.287L21.866,13.287L22.698,14.535ZM29.832,11.581C30.521,11.122 30.708,10.191 30.248,9.501C29.789,8.812 28.857,8.626 28.168,9.085L29.832,11.581ZM8.168,11.581L14.47,15.783L16.134,13.287L9.832,9.085L8.168,11.581ZM14.47,15.783C17.213,17.612 20.787,17.612 23.53,15.783L21.866,13.287C20.131,14.444 17.87,14.444 16.134,13.287L14.47,15.783ZM23.53,15.783L29.832,11.581L28.168,9.085L21.866,13.287L23.53,15.783ZM9,33.5L29,33.5L29,30.5L9,30.5L9,33.5ZM29,33.5C33.51,33.5 37.167,29.844 37.167,25.333L34.167,25.333C34.167,28.187 31.854,30.5 29,30.5L29,33.5ZM37.167,25.333L37.167,8.667L34.167,8.667L34.167,25.333L37.167,25.333ZM37.167,8.667C37.167,4.156 33.51,0.5 29,0.5L29,3.5C31.854,3.5 34.167,5.813 34.167,8.667L37.167,8.667ZM29,0.5L9,0.5L9,3.5L29,3.5L29,0.5ZM9,0.5C4.49,0.5 0.833,4.156 0.833,8.667L3.833,8.667C3.833,5.813 6.147,3.5 9,3.5L9,0.5ZM0.833,8.667L0.833,25.333L3.833,25.333L3.833,8.667L0.833,8.667ZM0.833,25.333C0.833,29.844 4.49,33.5 9,33.5L9,30.5C6.147,30.5 3.833,28.187 3.833,25.333L0.833,25.333Z" fill="#1A2530"/>
</svg>
