<svg width="38" height="34" viewBox="0 0 38 34" fill="none" xmlns="http://www.w3.org/2000/svg" xmlns:xlink="http://www.w3.org/1999/xlink">
<path d="M8.832,8.085C8.143,7.626 7.212,7.812 6.752,8.501C6.293,9.191 6.479,10.122 7.168,10.581L8.832,8.085ZM14.302,13.535L15.134,12.287L15.134,12.287L14.302,13.535ZM21.698,13.535L20.866,12.287L20.866,12.287L21.698,13.535ZM28.832,10.581C29.521,10.122 29.708,9.191 29.248,8.501C28.789,7.812 27.857,7.626 27.168,8.085L28.832,10.581ZM8,2.5L28,2.5L28,-0.5L8,-0.5L8,2.5ZM33.167,7.667L33.167,24.333L36.167,24.333L36.167,7.667L33.167,7.667ZM28,29.5L8,29.5L8,32.5L28,32.5L28,29.5ZM2.833,24.333L2.833,7.667L-0.167,7.667L-0.167,24.333L2.833,24.333ZM8,29.5C5.147,29.5 2.833,27.187 2.833,24.333L-0.167,24.333C-0.167,28.844 3.49,32.5 8,32.5L8,29.5ZM33.167,24.333C33.167,27.187 30.854,29.5 28,29.5L28,32.5C32.51,32.5 36.167,28.844 36.167,24.333L33.167,24.333ZM28,2.5C30.854,2.5 33.167,4.813 33.167,7.667L36.167,7.667C36.167,3.156 32.51,-0.5 28,-0.5L28,2.5ZM8,-0.5C3.49,-0.5 -0.167,3.156 -0.167,7.667L2.833,7.667C2.833,4.813 5.147,2.5 8,2.5L8,-0.5ZM7.168,10.581L13.47,14.783L15.134,12.287L8.832,8.085L7.168,10.581ZM22.53,14.783L28.832,10.581L27.168,8.085L20.866,12.287L22.53,14.783ZM13.47,14.783C16.213,16.612 19.787,16.612 22.53,14.783L20.866,12.287C19.131,13.444 16.87,13.444 15.134,12.287L13.47,14.783Z" fill="#1A2530"/>
</svg>
