<svg width="58" height="34" viewBox="0 0 58 34" fill="none" xmlns="http://www.w3.org/2000/svg" xmlns:xlink="http://www.w3.org/1999/xlink">
<path d="M17.951,4.113L12.198,2.214L15.805,7.217L12.257,12.191L17.951,10.292L21.41,15.295L21.41,9.116L27.223,7.217L21.41,5.288L21.41,-0.861L17.951,4.113ZM3.616,27.199C4.12,27.199 4.616,27.444 4.946,27.854L5.068,28.002L6.624,26.929L6.485,26.754C5.798,25.89 4.746,25.393 3.616,25.393C1.626,25.393 0,26.955 0,28.866C0,30.778 1.626,32.34 3.616,32.34C4.738,32.34 5.781,31.851 6.467,31.005L6.607,30.83L5.051,29.757L4.929,29.905C4.59,30.315 4.112,30.551 3.608,30.551C2.686,30.551 1.904,29.783 1.904,28.875C1.912,27.967 2.695,27.199 3.616,27.199ZM20.327,29.253L17.53,25.554L15.752,25.554L15.752,32.098L17.478,32.098L17.478,28.433L20.085,32.098L22.053,32.098L22.053,25.554L20.327,25.554L20.327,29.253ZM27,30.213C27,30.265 26.93,30.274 26.895,30.274C26.869,30.274 26.817,30.265 26.791,30.204L25.347,25.554L23.345,25.554L25.477,32.098L28.322,32.098L30.454,25.554L28.453,25.554L27,30.213ZM43.158,29.419C43.856,29.018 44.257,28.285 44.196,27.482C44.117,26.392 43.167,25.554 42.033,25.554L38.694,25.554L38.694,32.098L40.438,32.098L40.438,29.742L41.222,29.742C41.301,29.742 41.371,29.751 41.423,29.821L42.548,32.098L44.51,32.098L43.158,29.419ZM41.941,28.059L40.39,28.059L40.39,27.332L41.941,27.332C42.152,27.332 42.329,27.477 42.329,27.695C42.329,27.913 42.152,28.059 41.941,28.059ZM52.83,32.098L58,32.098L58,30.353L54.553,30.353L54.553,29.568L57.655,29.568L57.655,27.997L54.553,27.997L54.553,27.299L58,27.299L58,25.554L52.83,25.554L52.83,32.098ZM48.846,28.041C47.919,27.833 47.651,27.694 47.651,27.39L47.651,27.373C47.651,27.13 47.833,26.939 48.283,26.939C48.881,26.939 49.366,27.13 50.016,27.52L51.056,26.287C50.328,25.705 49.453,25.393 48.318,25.393C46.706,25.393 45.745,26.296 45.745,27.546L45.745,27.564C45.745,28.945 46.88,29.353 48.309,29.674C49.219,29.882 49.47,30.039 49.47,30.317L49.47,30.334C49.47,30.621 49.15,30.794 48.647,30.794C47.867,30.794 47.105,30.516 46.447,29.987L45.398,31.228C46.221,31.966 47.417,32.34 48.604,32.34C50.232,32.34 51.376,31.524 51.376,30.152L51.376,30.134C51.376,28.875 50.388,28.38 48.846,28.041ZM10.865,25.393C8.926,25.393 7.351,26.955 7.351,28.866C7.351,30.786 8.926,32.34 10.865,32.34C12.804,32.34 14.379,30.778 14.379,28.866C14.379,26.946 12.804,25.393 10.865,25.393ZM10.865,30.563C9.95,30.563 9.209,29.822 9.209,28.907C9.209,27.992 9.95,27.251 10.865,27.251C11.78,27.251 12.521,27.992 12.521,28.907C12.521,29.822 11.78,30.563 10.865,30.563ZM31.747,32.098L36.916,32.098L36.916,30.353L33.47,30.353L33.47,29.568L36.572,29.568L36.572,27.997L33.47,27.997L33.47,27.299L36.916,27.299L36.916,25.554L31.747,25.554L31.747,32.098Z" fill="#1A2530"/>
</svg>
