<svg width="52" height="28" viewBox="0 0 52 28" fill="none" xmlns="http://www.w3.org/2000/svg" xmlns:xlink="http://www.w3.org/1999/xlink">
<path d="M15.468,14.666L20.433,0.706L17.151,0.706L14.879,6.764L15.384,0.706L11.933,0.706L6.968,14.666L10.166,14.666L12.606,7.906L12.186,14.491L15.468,14.666ZM19.339,14.666L24.305,0.706L21.191,0.706L16.141,14.666L19.339,14.666ZM28.344,13.788L28.176,6.764L32.889,1.057L28.344,13.788ZM51.236,8.871L35.245,13.174L35.666,11.857L32.3,11.857L33.394,8.52L36.255,8.52L37.097,5.974L34.235,6.15L35.245,3.34L38.023,3.34L38.948,0.794L29.943,0.794L26.661,4.833L28.26,0.706L25.062,0.706L20.097,14.666L23.379,14.666L25.483,8.696L25.483,14.666L29.691,14.666L14.626,18.793C13.055,19.261 11.653,19.466 10.418,19.407C9.184,19.349 8.23,18.998 7.557,18.354C6.042,17.183 5.509,15.398 5.958,12.998C6.238,11.418 6.855,9.896 7.809,8.432C5.565,10.891 3.91,12.969 2.844,14.666C1.666,16.481 0.908,18.266 0.572,20.022C0.235,21.778 0.431,23.212 1.161,24.324C3.124,27.719 7.417,27.953 14.037,25.027L51.236,8.871Z" fill="#1A2530"/>
</svg>
