<svg width="20" height="10" viewBox="0 0 20 10" fill="none" xmlns="http://www.w3.org/2000/svg" xmlns:xlink="http://www.w3.org/1999/xlink">
<path d="M1.606,-0.505C0.96,-1.022 0.016,-0.917 -0.502,-0.27C-1.019,0.377 -0.915,1.321 -0.268,1.838L1.606,-0.505ZM9.003,7.333L8.066,8.505C8.614,8.943 9.392,8.943 9.94,8.505L9.003,7.333ZM18.273,1.838C18.92,1.321 19.025,0.377 18.507,-0.27C17.99,-0.917 17.046,-1.022 16.399,-0.505L18.273,1.838ZM-0.268,1.838L8.066,8.505L9.94,6.162L1.606,-0.505L-0.268,1.838ZM9.94,8.505L18.273,1.838L16.399,-0.505L8.066,6.162L9.94,8.505Z" transform="rotate(0 9.003 4)" fill="#707B81"/>
</svg>
