<svg width="20" height="12" viewBox="0 0 20 12" fill="none" xmlns="http://www.w3.org/2000/svg" xmlns:xlink="http://www.w3.org/1999/xlink">
<path d="M12.217,7.436C12.217,8.823 13.32,9.963 14.752,9.963C16.074,9.963 17.282,8.823 17.282,7.436C17.259,6.773 16.985,6.143 16.516,5.674C16.046,5.204 15.415,4.931 14.752,4.91C14.082,4.913 13.44,5.18 12.965,5.653C12.491,6.126 12.222,6.767 12.217,7.436ZM14.638,11.998C14.041,11.998 13.45,11.88 12.899,11.651C12.348,11.421 11.849,11.084 11.429,10.66C11.009,10.235 10.678,9.732 10.454,9.179C10.231,8.625 10.119,8.033 10.126,7.436C10.126,4.91 12.107,2.925 14.638,2.925C15.63,2.925 16.513,3.175 17.282,3.716L17.282,3.023L19.377,3.023L19.377,11.797L17.282,11.797L17.282,11.251C16.493,11.754 15.573,12.013 14.638,11.998ZM2.091,7.436C2.091,8.823 3.303,9.963 4.625,9.963C6.057,9.963 7.16,8.823 7.16,7.436C7.155,6.767 6.886,6.126 6.412,5.653C5.937,5.18 5.295,4.913 4.625,4.91C3.962,4.931 3.331,5.204 2.86,5.673C2.39,6.142 2.115,6.773 2.091,7.436ZM7.16,0L9.361,0L9.361,11.797L7.16,11.797L7.16,11.251C6.418,11.767 5.529,12.028 4.625,11.998C2.091,11.998 0,9.963 0,7.436C0,4.91 2.091,2.925 4.625,2.925C5.614,2.925 6.497,3.175 7.16,3.716L7.16,0Z" fill="#1A2530"/>
</svg>
