<svg width="28" height="40" viewBox="0 0 28 40" fill="none" xmlns="http://www.w3.org/2000/svg" xmlns:xlink="http://www.w3.org/1999/xlink">
<path d="M23.5,10C23.5,10.828 24.172,11.5 25,11.5C25.828,11.5 26.5,10.828 26.5,10L23.5,10ZM26.5,28C26.5,27.172 25.828,26.5 25,26.5C24.172,26.5 23.5,27.172 23.5,28L26.5,28ZM26.5,10L26.5,9L23.5,9L23.5,10L26.5,10ZM26.5,9C26.5,3.753 22.247,-0.5 17,-0.5L17,2.5C20.59,2.5 23.5,5.41 23.5,9L26.5,9ZM17,-0.5L9,-0.5L9,2.5L17,2.5L17,-0.5ZM9,-0.5C3.753,-0.5 -0.5,3.753 -0.5,9L2.5,9C2.5,5.41 5.41,2.5 9,2.5L9,-0.5ZM-0.5,9L-0.5,29L2.5,29L2.5,9L-0.5,9ZM-0.5,29C-0.5,34.247 3.753,38.5 9,38.5L9,35.5C5.41,35.5 2.5,32.59 2.5,29L-0.5,29ZM9,38.5L17,38.5L17,35.5L9,35.5L9,38.5ZM17,38.5C22.247,38.5 26.5,34.247 26.5,29L23.5,29C23.5,32.59 20.59,35.5 17,35.5L17,38.5ZM26.5,29L26.5,28L23.5,28L23.5,29L26.5,29Z" fill="#707B81"/>
</svg>
