<svg width="52" height="28" viewBox="0 0 52 28" fill="none" xmlns="http://www.w3.org/2000/svg" xmlns:xlink="http://www.w3.org/1999/xlink">
<path d="M15.467,14.666L20.433,0.706L17.151,0.706L14.878,6.764L15.383,0.706L11.933,0.706L6.967,14.666L10.165,14.666L12.606,7.906L12.185,14.491L15.467,14.666ZM19.339,14.666L24.304,0.706L21.19,0.706L16.141,14.666L19.339,14.666ZM28.344,13.788L28.175,6.764L32.888,1.057L28.344,13.788ZM51.235,8.871L35.245,13.174L35.666,11.857L32.299,11.857L33.393,8.52L36.255,8.52L37.096,5.974L34.235,6.15L35.245,3.34L38.022,3.34L38.948,0.794L29.943,0.794L26.661,4.833L28.26,0.706L25.062,0.706L20.096,14.666L23.378,14.666L25.482,8.696L25.482,14.666L29.69,14.666L14.626,18.793C13.055,19.261 11.652,19.466 10.418,19.407C9.183,19.349 8.23,18.998 7.556,18.354C6.041,17.183 5.508,15.398 5.957,12.998C6.238,11.418 6.855,9.896 7.809,8.432C5.565,10.891 3.909,12.969 2.843,14.666C1.665,16.481 0.908,18.266 0.571,20.022C0.234,21.778 0.431,23.212 1.16,24.324C3.124,27.719 7.416,27.953 14.037,25.027L51.235,8.871Z" fill="#1A2530"/>
</svg>
