<svg width="30" height="24" viewBox="0 0 30 24" fill="none" xmlns="http://www.w3.org/2000/svg" xmlns:xlink="http://www.w3.org/1999/xlink">
<path d="M14.601,5.073C19.07,5.073 23.368,6.79 26.606,9.869C26.85,10.107 27.24,10.104 27.48,9.862L29.812,7.51C29.933,7.387 30.001,7.221 30,7.049C29.999,6.876 29.929,6.711 29.806,6.59C21.306,-1.557 7.895,-1.557 -0.606,6.59C-0.729,6.711 -0.799,6.876 -0.8,7.049C-0.801,7.221 -0.733,7.387 -0.612,7.51L1.72,9.862C1.96,10.104 2.35,10.107 2.594,9.869C5.833,6.79 10.132,5.073 14.601,5.073L14.601,5.073ZM14.601,12.727C17.056,12.727 19.424,13.64 21.244,15.288C21.49,15.522 21.878,15.517 22.118,15.277L24.446,12.924C24.569,12.8 24.637,12.633 24.635,12.459C24.634,12.285 24.562,12.119 24.437,11.998C18.895,6.843 10.312,6.843 4.769,11.998C4.644,12.119 4.573,12.285 4.571,12.459C4.569,12.633 4.638,12.801 4.761,12.924L7.089,15.277C7.329,15.517 7.716,15.522 7.963,15.288C9.781,13.641 12.147,12.729 14.601,12.727L14.601,12.727ZM19.076,18.343C19.2,18.22 19.269,18.052 19.265,17.878C19.262,17.703 19.186,17.538 19.057,17.421C16.484,15.245 12.717,15.245 10.144,17.421C10.015,17.538 9.939,17.703 9.936,17.878C9.932,18.052 10,18.22 10.125,18.343L14.153,22.408C14.272,22.527 14.433,22.594 14.601,22.594C14.768,22.594 14.929,22.527 15.048,22.408L19.076,18.343Z" clip-rule="evenodd" fill-rule="evenodd" fill="#1A2530"/>
</svg>
